<svg width="518" height="346" viewBox="0 0 518 346" fill="none" xmlns="http://www.w3.org/2000/svg">
<path d="M132.434 122.085C132.434 122.085 127.721 118.446 120.321 129.25C112.921 140.054 109.872 146.402 109.872 146.402C109.872 146.402 107.984 148.633 106.413 146.904C104.843 145.175 102.94 140.516 99.8955 141.029C96.7379 141.559 95.3769 144.689 95.4468 149.488C95.5167 154.288 95.2607 164.807 95.2337 165.759C95.2076 166.692 94.4968 168.003 93.2259 166.987C91.9558 165.971 84.9922 156.96 80.6552 160.332C76.3178 163.702 78.8424 177.042 79.0892 178.506C79.3353 179.968 78.9734 180.549 78.2171 180.831C77.4613 181.115 75.4236 177.878 73.3318 175.392C71.2397 172.906 68.3518 170.369 66.0222 172.512C63.6928 174.654 61.9726 184.314 70.0737 201.057L74.3665 208.584L83.4609 208.982C102.979 208.72 111.504 203.121 112.562 200.219C113.619 197.317 109.951 195.943 106.672 195.224C103.392 194.505 99.4179 194.154 99.3657 193.389C99.3135 192.624 99.7152 192.067 101.224 191.651C102.731 191.234 116.601 187.676 117.976 182.539C119.352 177.4 107.733 175.323 106.216 174.676C104.698 174.029 105.65 172.862 106.534 172.439C107.434 172.01 117.41 167.29 122.041 165.295C126.672 163.3 129.09 160.802 128.248 157.885C127.436 155.071 122.156 155.444 119.826 154.845C117.496 154.247 118.827 151.683 118.827 151.683C118.827 151.683 123.608 146.369 130.799 135.44C137.989 124.511 132.333 122.017 132.333 122.017L132.434 122.085Z" fill="#E7E8E5"/>
<path d="M72.7578 209.974C78.0724 201.967 87.7719 187.886 96.0325 175.756C104.29 163.63 111.756 152.644 117.113 144.665C119.783 140.678 121.945 137.449 123.446 135.206C124.191 134.098 124.77 133.233 125.171 132.636C125.366 132.351 125.517 132.13 125.625 131.971C125.729 131.822 125.788 131.749 125.788 131.749C125.788 131.749 125.745 131.832 125.65 131.985C125.548 132.147 125.404 132.373 125.219 132.664C124.829 133.267 124.264 134.141 123.54 135.261C122.078 137.515 119.94 140.762 117.281 144.765C111.967 152.771 104.527 163.774 96.2691 175.899C88.0086 188.03 78.2833 202.094 72.9266 210.074" fill="#DADBD8"/>
<path d="M102.28 147.646C102.299 147.644 102.357 147.857 102.445 148.245C102.535 148.633 102.647 149.198 102.779 149.897C103.04 151.295 103.348 153.236 103.647 155.383C103.933 157.5 104.192 159.416 104.39 160.881C104.484 161.54 104.563 162.097 104.626 162.545C104.684 162.938 104.708 163.157 104.688 163.16C104.669 163.163 104.609 162.951 104.518 162.562C104.43 162.174 104.318 161.609 104.193 160.908C103.947 159.507 103.666 157.564 103.368 155.417C103.065 153.303 102.792 151.39 102.582 149.927C102.485 149.267 102.403 148.71 102.337 148.262C102.282 147.868 102.261 147.649 102.28 147.646Z" fill="#DADBD8"/>
<path d="M105.5 163.391C105.487 163.319 109.702 162.544 114.914 161.66C120.128 160.777 124.364 160.119 124.378 160.191C124.392 160.264 120.178 161.039 114.963 161.921C109.752 162.805 105.514 163.463 105.5 163.391Z" fill="#DADBD8"/>
<path d="M91.9297 181.476C91.9322 181.458 92.1706 181.473 92.5984 181.512C93.0827 181.561 93.6883 181.621 94.4075 181.692C95.9345 181.843 98.0443 182.043 100.381 182.182C102.718 182.326 104.838 182.387 106.373 182.42C107.096 182.436 107.704 182.45 108.191 182.461C108.621 182.473 108.859 182.487 108.859 182.506C108.859 182.525 108.622 182.544 108.192 182.564C107.763 182.583 107.14 182.602 106.371 182.608C104.833 182.623 102.707 182.591 100.363 182.447C98.0199 182.307 95.9067 182.078 94.3831 181.879C93.6217 181.777 93.0069 181.688 92.5833 181.615C92.1596 181.543 91.9272 181.495 91.9297 181.476Z" fill="#DADBD8"/>
<path d="M85.6901 167.838C85.7078 167.83 85.8139 168.012 85.9908 168.348C86.1887 168.737 86.4313 169.214 86.7177 169.778C87.3199 170.99 88.1335 172.673 89.0161 174.537C89.8996 176.402 90.6854 178.097 91.2404 179.329C91.4948 179.906 91.7096 180.395 91.8847 180.794C92.0313 181.141 92.1046 181.338 92.086 181.346C92.0683 181.353 91.9622 181.171 91.7854 180.835C91.5874 180.447 91.3449 179.969 91.0594 179.405C90.4572 178.193 89.6427 176.511 88.7592 174.645C87.8766 172.781 87.0916 171.086 86.5357 169.854C86.2814 169.278 86.0666 168.788 85.8914 168.39C85.744 168.041 85.6725 167.845 85.6901 167.838Z" fill="#DADBD8"/>
<path d="M71.5527 182.368C71.5705 182.36 71.7048 182.593 71.9314 183.023C72.1762 183.5 72.4914 184.114 72.8697 184.853C73.6504 186.403 74.7118 188.55 75.8676 190.93C77.0239 193.31 78.0563 195.472 78.7907 197.041C79.1361 197.794 79.424 198.421 79.6473 198.907C79.8437 199.349 79.9445 199.597 79.9267 199.605C79.9089 199.612 79.7747 199.379 79.548 198.949C79.3032 198.472 78.988 197.858 78.6097 197.12C77.829 195.57 76.768 193.422 75.6115 191.041C74.4555 188.662 73.4231 186.5 72.6887 184.931C72.3433 184.179 72.0555 183.551 71.832 183.066C71.6354 182.623 71.5353 182.375 71.5527 182.368Z" fill="#DADBD8"/>
<path d="M79.8516 199.144C79.8535 199.125 80.1552 199.135 80.6994 199.168C81.2932 199.207 82.068 199.257 83.0017 199.319C84.9454 199.444 87.6312 199.608 90.6009 199.709C93.5706 199.816 96.2624 199.844 98.2105 199.852C99.147 199.856 99.9227 199.86 100.518 199.863C101.063 199.868 101.365 199.88 101.365 199.897C101.366 199.916 101.065 199.939 100.521 199.966C99.9758 199.993 99.1875 200.021 98.2122 200.039C96.2624 200.08 93.5656 200.08 90.59 199.974C87.6152 199.873 84.9268 199.679 82.9856 199.505C82.0147 199.417 81.23 199.337 80.6892 199.271C80.148 199.206 79.8493 199.161 79.8516 199.144Z" fill="#DADBD8"/>
<path d="M58.2226 152.369C58.2226 152.369 58.3217 153.734 57.9867 156.282C57.6255 158.808 56.7622 162.584 54.202 166.789L54.1138 166.645H54.1217L54.2967 166.644L54.2105 166.788C48.7203 175.967 40.4815 189.741 30.6199 206.23L30.4719 206.477L30.3116 206.236C22.8052 194.948 14.3228 182.19 5.37439 168.734C4.95393 168.101 4.53513 167.471 4.1479 166.888L3.95807 166.602L4.31634 166.603H4.31733L4.14625 166.883C2.23412 163.794 0.976381 160.408 0.388461 156.976C0.10717 155.26 -0.050748 153.532 0.0147222 151.822C0.0640716 150.968 0.112763 150.117 0.161784 149.27C0.296342 148.431 0.430244 147.597 0.563487 146.765C1.93211 140.144 5.74846 134.337 10.7436 130.355C13.2595 128.376 16.0641 126.866 18.9478 125.809L20.0328 125.428L20.572 125.239L21.1257 125.1C21.8644 124.919 22.597 124.738 23.3241 124.56C24.8079 124.348 26.2617 124.063 27.7188 124.058C29.1704 123.932 30.5956 124.06 31.9948 124.129C32.6919 124.182 33.3729 124.324 34.0533 124.415C34.3922 124.467 34.7297 124.518 35.066 124.569C35.3986 124.635 35.7226 124.73 36.049 124.809C36.6987 124.975 37.3429 125.139 37.9795 125.302C38.5961 125.524 39.2064 125.743 39.8094 125.96C40.1094 126.071 40.4145 126.169 40.7056 126.291C40.9908 126.426 41.2747 126.56 41.5567 126.693C42.1202 126.961 42.6766 127.227 43.227 127.489C47.498 129.832 50.7044 132.891 52.914 135.919C55.1396 138.959 56.3737 141.955 57.1343 144.433C57.4551 145.691 57.7801 146.801 57.8778 147.796C58.0243 148.782 58.1681 149.614 58.1601 150.297C58.1848 150.969 58.2035 151.483 58.2167 151.843C58.2276 152.191 58.2226 152.369 58.2226 152.369C58.2226 152.369 58.2002 152.191 58.1769 151.843C58.1545 151.485 58.1226 150.972 58.0815 150.302C58.0766 149.621 57.9206 148.793 57.7627 147.813C57.6534 146.823 57.3182 145.721 56.9879 144.472C56.2082 142.011 54.9607 139.043 52.7337 136.037C50.5238 133.041 47.3296 130.022 43.0905 127.717C42.5447 127.459 41.9923 127.198 41.434 126.934C41.154 126.803 40.8724 126.671 40.5898 126.538C40.3009 126.418 39.9986 126.323 39.7015 126.214C39.1034 126.001 38.4986 125.785 37.888 125.567C37.2574 125.408 36.6198 125.248 35.9762 125.085C35.6528 125.009 35.3324 124.915 35.0034 124.851C34.6704 124.802 34.3366 124.752 34.0006 124.702C33.3279 124.614 32.6544 124.474 31.9642 124.424C30.5801 124.36 29.1707 124.236 27.7356 124.364C26.2952 124.371 24.8585 124.659 23.3932 124.869C22.6753 125.047 21.9515 125.227 21.2224 125.408L20.6753 125.546L20.143 125.734L19.0724 126.113C16.2263 127.163 13.4585 128.657 10.9765 130.616C6.05015 134.558 2.28874 140.296 0.942818 146.834C0.81155 147.655 0.679952 148.48 0.548024 149.308C0.50032 150.145 0.452616 150.985 0.404582 151.828C0.340757 153.517 0.497688 155.222 0.776347 156.917C1.35867 160.305 2.60063 163.647 4.48775 166.695L4.66212 166.976L4.31667 166.975H4.31536L4.48347 166.69C4.8707 167.273 5.28951 167.903 5.70931 168.535C14.6465 181.999 23.1181 194.762 30.6153 206.057L30.3077 206.063C40.2255 189.605 48.5116 175.856 54.0332 166.694L54.122 166.837H54.1142H53.9368L54.0263 166.692C56.5948 162.531 57.487 158.781 57.8804 156.269C58.0739 155.003 58.1296 154.024 58.1746 153.367C58.1871 153.045 58.1966 152.798 58.2035 152.621C58.2118 152.454 58.2226 152.369 58.2226 152.369Z" fill="#DADBD8"/>
<path d="M47.6395 152.053C47.6326 152.053 47.6211 151.958 47.605 151.772C47.5899 151.568 47.5695 151.295 47.5434 150.948C47.5316 150.765 47.5178 150.562 47.503 150.341C47.4777 150.119 47.4266 149.878 47.3845 149.616C47.2964 149.092 47.2122 148.486 46.9996 147.826C46.6749 146.486 46.0097 144.903 44.9625 143.225C43.9067 141.555 42.3841 139.809 40.3108 138.327C38.2437 136.858 35.6358 135.608 32.6232 135.099C29.6313 134.608 26.2525 134.689 23.032 135.834C22.2127 136.08 21.4423 136.46 20.6501 136.816C19.8995 137.241 19.1087 137.633 18.4099 138.167C17.6671 138.645 17.0176 139.244 16.3366 139.821C15.7217 140.459 15.0752 141.085 14.5445 141.81C13.4552 143.229 12.5031 144.806 11.9254 146.541C11.3262 148.266 11.0012 150.098 10.9703 151.963C10.991 153.829 11.3055 155.663 11.8951 157.391C12.4633 159.13 13.4072 160.712 14.4886 162.136C15.0156 162.864 15.6588 163.493 16.2708 164.135C16.9481 164.715 17.595 165.318 18.3352 165.8C19.0314 166.336 19.82 166.732 20.5681 167.161C21.3587 167.521 22.1276 167.905 22.9455 168.155C26.16 169.315 29.5389 169.412 32.5333 168.935C35.5486 168.441 38.1641 167.202 40.2385 165.743C42.3197 164.27 43.8511 162.532 44.9161 160.867C45.9722 159.194 46.6453 157.614 46.977 156.276C47.1934 155.617 47.2803 155.011 47.3721 154.488C47.4152 154.226 47.4675 153.986 47.4941 153.764C47.5096 153.543 47.5244 153.34 47.5376 153.158C47.5655 152.81 47.5876 152.538 47.6033 152.334C47.6208 152.148 47.6326 152.053 47.6395 152.053C47.6468 152.053 47.6477 152.148 47.6441 152.335C47.6375 152.539 47.6287 152.813 47.6168 153.162C47.6096 153.347 47.6014 153.551 47.5921 153.774C47.5717 153.998 47.5257 154.24 47.4882 154.504C47.4086 155.032 47.3322 155.644 47.1263 156.312C46.8148 157.667 46.1567 159.271 45.1056 160.974C44.0466 162.67 42.5095 164.444 40.4076 165.954C38.3125 167.448 35.6601 168.722 32.5929 169.239C29.5467 169.739 26.1038 169.651 22.8201 168.477C21.9847 168.225 21.1994 167.836 20.3921 167.469C19.6268 167.034 18.8218 166.631 18.1096 166.086C17.3532 165.594 16.6909 164.981 15.999 164.39C15.3723 163.736 14.7153 163.095 14.1758 162.352C13.0693 160.899 12.104 159.283 11.5214 157.507C10.917 155.743 10.5956 153.867 10.5742 151.962C10.6058 150.057 10.9384 148.185 11.552 146.423C12.1445 144.651 13.118 143.04 14.2326 141.593C14.7761 140.853 15.4367 140.215 16.0665 139.564C16.7617 138.977 17.4265 138.367 18.1859 137.88C18.9004 137.338 19.7084 136.938 20.4756 136.507C21.2847 136.145 22.0719 135.76 22.9086 135.511C26.1982 134.352 29.6412 134.281 32.6843 134.795C35.7483 135.327 38.3941 136.613 40.4813 138.118C42.5753 139.637 44.1025 141.418 45.1526 143.119C46.1949 144.828 46.8443 146.435 47.149 147.791C47.3517 148.459 47.4247 149.073 47.5013 149.601C47.5372 149.865 47.5819 150.108 47.6014 150.332C47.6096 150.556 47.6165 150.759 47.623 150.943C47.6326 151.293 47.6402 151.566 47.6454 151.771C47.648 151.958 47.6468 152.053 47.6395 152.053Z" fill="#DADBD8"/>
<path d="M28.8408 160.143L18.125 153.094L20.7343 149.57L27.9192 154.296L37.2144 143.161L40.7971 145.82L28.8408 160.143Z" fill="#DADBD8"/>
<path fill-rule="evenodd" clip-rule="evenodd" d="M324.425 48.2677C314.568 48.5996 307.559 57.2796 309.844 66.3256C311.535 73.0166 318.145 77.7568 325.436 77.5059C335.286 77.1669 342.286 68.4948 340.007 59.4552C338.32 52.7649 331.715 48.0223 324.425 48.2677ZM328.723 29.6389C331.891 30.0137 334.952 30.7862 337.837 31.9081L344.536 26.6153L356.042 34.8721L352.417 42.3699C354.333 44.6915 355.94 47.2673 357.167 50.0471L365.87 50.7704L367.813 64.2795L359.63 67.1633C359.234 70.1511 358.413 73.0373 357.222 75.7559L362.837 82.073L354.079 92.9198L346.126 89.5025C343.662 91.308 340.931 92.8214 337.981 93.9782L337.215 102.183L322.884 104.018L319.826 96.3015C316.655 95.9283 313.596 95.1542 310.711 94.0314L304.01 99.325L292.504 91.0682L296.129 83.5697C294.214 81.2481 292.611 78.6723 291.381 75.8925L282.679 75.1692L280.734 61.6593L288.918 58.7771C289.314 55.7893 290.134 52.9023 291.326 50.1836L285.711 43.8674L294.469 33.0197L302.422 36.4379C304.885 34.6323 307.617 33.1182 310.567 31.9605L311.333 23.7569L325.662 21.9236L328.723 29.6389Z" fill="#F3F2F1"/>
<path fill-rule="evenodd" clip-rule="evenodd" d="M195.439 84.9205C189.041 85.1357 184.491 90.7707 185.974 96.6423C187.073 100.985 191.363 104.063 196.095 103.9C202.49 103.68 207.033 98.0509 205.555 92.1824C204.46 87.84 200.171 84.7609 195.439 84.9205ZM198.23 72.8279C200.286 73.0708 202.273 73.5727 204.145 74.3008L208.494 70.8651L215.964 76.2246L213.61 81.0918C214.854 82.5988 215.896 84.271 216.693 86.0757L222.343 86.545L223.604 95.3139L218.292 97.1862C218.036 99.1259 217.502 100.999 216.728 102.764L220.374 106.864L214.689 113.905L209.526 111.687C207.927 112.86 206.153 113.841 204.238 114.593L203.742 119.919L194.439 121.109L192.454 116.1C190.396 115.858 188.41 115.356 186.537 114.627L182.188 118.064L174.718 112.703L177.073 107.836C175.829 106.329 174.788 104.657 173.989 102.852L168.341 102.383L167.078 93.614L172.391 91.7425C172.648 89.8028 173.18 87.9289 173.954 86.1639L170.309 82.0637L175.993 75.0225L181.157 77.2409C182.755 76.069 184.529 75.0868 186.443 74.3349L186.941 69.0095L196.243 67.8193L198.23 72.8279Z" fill="#E7E8E5"/>
<path d="M276.276 136.925C276.276 136.925 277.657 137.401 279.638 139.021C281.575 140.614 284.087 143.621 284.852 148.056C285.212 150.244 285.149 152.756 284.275 155.254C283.396 157.73 281.854 160.251 279.467 162.192C278.308 163.189 276.942 164.024 275.449 164.671C273.966 165.338 272.336 165.798 270.639 165.996C267.251 166.464 263.596 165.833 260.399 164.213C257.231 162.543 254.701 159.976 253.299 157.029C252.563 155.573 252.099 154.03 251.899 152.492C251.675 150.959 251.688 149.423 251.957 147.966C252.41 145.025 253.837 142.443 255.579 140.414C257.346 138.376 259.559 136.976 261.71 136.087C266.089 134.312 270.128 134.694 272.592 135.378C275.107 136.083 276.276 136.925 276.276 136.925C276.227 137.024 274.987 136.297 272.501 135.71C270.062 135.139 266.148 134.878 261.978 136.657C259.929 137.546 257.836 138.913 256.178 140.876C254.543 142.832 253.211 145.299 252.808 148.089C252.563 149.473 252.561 150.928 252.782 152.379C252.98 153.833 253.427 155.292 254.128 156.665C255.466 159.448 257.857 161.861 260.848 163.441C263.871 164.969 267.313 165.573 270.519 165.141C272.124 164.96 273.669 164.532 275.076 163.907C276.492 163.303 277.792 162.52 278.898 161.583C281.177 159.762 282.669 157.377 283.54 155.027C284.405 152.655 284.503 150.255 284.198 148.149C283.549 143.877 281.213 140.906 279.39 139.273C277.53 137.612 276.212 137.017 276.276 136.925Z" fill="#E7E8E5"/>
<path d="M293.649 124.562C293.637 124.566 293.679 124.388 293.775 124.036C293.883 123.648 294.028 123.127 294.216 122.453C294.637 121.007 295.243 118.922 296.028 116.217L296.1 116.379C292.683 114.636 288.192 112.344 282.758 109.573L283.049 109.526C281.217 111.493 279.182 113.679 277.004 116.018L276.895 116.136L276.732 116.098C273.737 115.412 270.444 115.035 266.974 115.125L266.789 115.13L266.698 114.976C265.304 112.624 263.797 110.077 262.227 107.429L262.612 107.577C258.028 108.847 253.166 110.196 248.06 111.611L248.323 111.257C248.502 113.928 248.698 116.869 248.899 119.885L248.914 120.104L248.714 120.218C246.108 121.702 243.445 123.658 241.091 126.002L240.923 126.169L240.688 126.106C237.955 125.371 234.942 124.563 231.874 123.739L232.353 123.55C230.066 127.491 227.601 131.742 225.074 136.098L224.981 135.593C227.12 137.374 229.469 139.331 231.849 141.313L232.05 141.48L231.986 141.727C231.252 144.53 230.844 147.689 230.935 150.884L230.941 151.141L230.701 151.267C228.191 152.582 225.452 154.016 222.686 155.465L222.902 154.967C224.248 159.313 225.692 163.972 227.154 168.694L226.68 168.38C229.571 168.213 232.691 168.034 235.833 167.852L236.115 167.836L236.261 168.064C237.862 170.571 239.934 173.062 242.364 175.239L242.368 175.242L242.37 175.244C242.427 175.44 242.244 174.806 242.498 175.686L242.495 175.694L242.49 175.71L242.481 175.743L242.46 175.808L242.421 175.939L242.342 176.2L242.183 176.723L241.865 177.767L241.232 179.851C240.811 181.236 240.391 182.617 239.973 183.992L239.749 183.485C244.243 185.811 248.678 188.105 253.049 190.366L252.48 190.46C254.525 188.282 256.551 186.126 258.556 183.992L258.741 183.795L259.01 183.858C262.218 184.608 265.495 184.937 268.72 184.864L268.995 184.858L269.127 185.083C270.63 187.641 272.109 190.159 273.569 192.645L273.056 192.445C278.029 191.084 282.886 189.754 287.622 188.458L287.313 188.871C287.127 185.943 286.945 183.068 286.766 180.242L286.752 180.003L286.968 179.88C289.832 178.257 292.398 176.303 294.607 174.123L294.776 173.955L295.011 174.019C298.031 174.84 300.958 175.635 303.817 176.411L303.37 176.588C305.947 172.182 308.378 168.023 310.694 164.064L310.77 164.478C308.362 162.459 306.101 160.564 303.921 158.736L303.77 158.609L303.818 158.423C304.663 155.221 304.972 152.149 304.909 149.237L304.905 149.061L305.068 148.978C307.987 147.463 310.615 146.099 313.1 144.81L312.969 145.11C311.349 139.785 309.969 135.247 308.788 131.363L309.002 131.504C305.345 131.692 302.345 131.847 299.846 131.976L299.754 131.98L299.708 131.907C298 129.21 296.395 127.416 295.31 126.26C294.772 125.713 294.361 125.294 294.059 124.988C293.767 124.702 293.637 124.565 293.649 124.562C293.662 124.559 293.822 124.687 294.115 124.936C294.411 125.198 294.859 125.598 295.424 126.162C296.55 127.291 298.203 129.065 299.965 131.761L299.828 131.692C302.324 131.534 305.321 131.343 308.975 131.11L309.141 131.1L309.189 131.253C310.407 135.127 311.829 139.653 313.498 144.965L313.561 145.163L313.367 145.265C310.893 146.57 308.273 147.95 305.365 149.484L305.523 149.223C305.607 152.182 305.313 155.31 304.47 158.575L304.366 158.263C306.555 160.08 308.826 161.965 311.244 163.973L311.458 164.151L311.321 164.388C309.023 168.356 306.609 172.524 304.051 176.94L303.903 177.196L303.603 177.116C300.742 176.349 297.811 175.562 294.789 174.751L295.192 174.648C292.941 176.883 290.324 178.889 287.4 180.556L287.601 180.195C287.788 183.019 287.979 185.894 288.171 188.821L288.193 189.145L287.863 189.235C283.129 190.541 278.275 191.88 273.305 193.251L272.964 193.346L272.791 193.052C271.326 190.568 269.843 188.052 268.336 185.497L268.742 185.717C265.438 185.796 262.079 185.462 258.79 184.697L259.244 184.564C257.24 186.7 255.216 188.858 253.173 191.038L252.929 191.299L252.604 191.13C248.232 188.872 243.796 186.579 239.3 184.257L238.974 184.088L239.076 183.749C239.494 182.375 239.914 180.994 240.335 179.608L240.967 177.524L241.285 176.481L241.444 175.958L241.523 175.697L241.563 175.566L241.583 175.501L241.592 175.468L241.597 175.451L241.6 175.443C241.854 176.322 241.67 175.686 241.725 175.882L241.724 175.88L241.72 175.877C239.227 173.644 237.102 171.088 235.462 168.518L235.889 168.729C232.748 168.91 229.627 169.087 226.737 169.253L226.366 169.275L226.262 168.94C224.804 164.215 223.365 159.555 222.024 155.208L221.922 154.876L222.241 154.71C225.01 153.265 227.75 151.834 230.263 150.522L230.031 150.904C229.944 147.631 230.367 144.396 231.124 141.526L231.261 141.939C228.885 139.953 226.54 137.992 224.405 136.207L224.145 135.99L224.311 135.703C226.851 131.353 229.327 127.109 231.624 123.173L231.784 122.897L232.103 122.984C235.169 123.817 238.179 124.635 240.909 125.375L240.507 125.479C242.922 123.089 245.649 121.1 248.315 119.595L248.13 119.929C247.941 116.913 247.756 113.97 247.59 111.299L247.572 111.022L247.853 110.945C252.966 109.553 257.836 108.226 262.425 106.975L262.682 106.905L262.809 107.124C264.363 109.781 265.856 112.336 267.235 114.695L266.959 114.546C270.486 114.475 273.829 114.879 276.864 115.596L276.594 115.676C278.792 113.353 280.846 111.183 282.695 109.229L282.822 109.095L282.986 109.182C288.385 112.012 292.849 114.351 296.243 116.132L296.348 116.187L296.314 116.294C295.47 118.958 294.82 121.011 294.369 122.435C294.147 123.109 293.977 123.63 293.849 124.019C293.729 124.376 293.662 124.558 293.649 124.562Z" fill="#E7E8E5"/>
<path d="M329.31 138.918L316.094 89.37L369.868 88.5324L329.31 138.918Z" fill="#E7E8E5"/>
<path d="M452.089 168.579L433.618 191.527L335.18 121.106L353.651 98.1578L452.089 168.579Z" fill="#E7E8E5"/>
<path d="M425.505 265.58L432.337 280.18C432.337 280.18 418.888 291.629 419.872 294.443L450.376 282.974L440.724 259.813L425.505 265.58Z" fill="url(#paint0_linear_1236_1996)"/>
<path d="M419.872 294.443C419.837 294.345 419.82 294.235 419.82 294.116C419.817 290.838 432.337 280.18 432.337 280.18L425.504 265.58L440.724 259.813L450.376 282.974L419.872 294.443Z" fill="#7E1C2C"/>
<path d="M450.38 282.974L449.31 280.675L420.462 292.532C420.462 292.532 419.34 293.599 419.875 294.443L450.38 282.974Z" fill="#303030"/>
<path d="M479.226 286.263L487.776 300.034C487.776 300.034 475.799 312.853 477.117 315.543L506.037 300.872L493.648 278.898L479.226 286.263Z" fill="url(#paint1_linear_1236_1996)"/>
<path d="M477.117 315.543C477.048 315.404 477.016 315.238 477.016 315.047C477.006 311.56 487.776 300.034 487.776 300.034L482.598 291.694L497.64 285.979L506.037 300.872L477.117 315.543Z" fill="#7E1C2C"/>
<path d="M506.039 300.872L504.698 298.703L477.471 313.58C477.471 313.58 476.485 314.761 477.118 315.543L506.039 300.872Z" fill="#303030"/>
<path d="M441.908 93.0841L423.162 94.4609L422.54 84.5669C422.54 84.5669 414.979 84.4629 413.847 77.5003C412.715 70.5377 411.609 54.3521 411.609 54.3521C419.655 49.7469 429.716 49.6079 437.902 53.9892L439.117 54.6395L441.908 93.0841Z" fill="#F8A58D"/>
<path d="M422.516 84.4681C422.516 84.4681 427.245 84.2077 431.775 80.6053C431.775 80.6053 430.136 86.0815 422.66 86.4316L422.516 84.4681Z" fill="#F68260"/>
<path d="M439.285 61.9845C439.404 61.9162 444.157 59.8931 444.707 64.6833C445.257 69.4727 440.042 69.005 440.017 68.8684C439.994 68.7319 439.285 61.9845 439.285 61.9845Z" fill="#F8A58D"/>
<path d="M441.362 66.8969C441.382 66.8794 441.457 66.9461 441.615 66.9961C441.767 67.0438 442.023 67.062 442.278 66.9413C442.793 66.7007 443.153 65.8512 443.079 64.9857C443.041 64.5482 442.897 64.1433 442.694 63.8162C442.497 63.4811 442.23 63.2612 441.954 63.2437C441.679 63.2127 441.505 63.3842 441.458 63.5248C441.406 63.6661 441.448 63.759 441.423 63.7693C441.409 63.7828 441.304 63.7002 441.322 63.4986C441.333 63.4009 441.379 63.2826 441.488 63.1778C441.6 63.0722 441.773 63.0063 441.963 63.0063C442.358 62.992 442.749 63.2953 442.973 63.6542C443.218 64.0131 443.392 64.4672 443.433 64.9587C443.512 65.9266 443.091 66.8834 442.38 67.1581C442.033 67.2827 441.723 67.2113 441.555 67.1144C441.384 67.012 441.345 66.908 441.362 66.8969Z" fill="#F68260"/>
<path d="M414.806 65.3122C414.864 65.8402 415.387 66.2292 415.975 66.1816C416.56 66.134 416.988 65.6679 416.93 65.1391C416.871 64.6103 416.348 64.2212 415.761 64.2688C415.175 64.3157 414.747 64.7826 414.806 65.3122Z" fill="#303030"/>
<path d="M414.478 63.9773C414.628 64.0908 415.345 63.4262 416.482 63.2777C417.617 63.115 418.532 63.5556 418.636 63.4079C418.688 63.342 418.521 63.1253 418.12 62.9236C417.725 62.7227 417.079 62.5623 416.371 62.6592C415.663 62.7569 415.105 63.0808 414.8 63.3786C414.488 63.6779 414.405 63.9288 414.478 63.9773Z" fill="#303030"/>
<path d="M425.861 64.1051C425.92 64.6332 426.443 65.0222 427.029 64.9746C427.615 64.9269 428.043 64.4609 427.984 63.9321C427.926 63.4033 427.403 63.0134 426.817 63.0618C426.231 63.1095 425.802 63.5763 425.861 64.1051Z" fill="#303030"/>
<path d="M425.681 62.6983C425.831 62.8103 426.55 62.1457 427.686 61.998C428.82 61.8352 429.736 62.2759 429.84 62.1282C429.892 62.0623 429.725 61.8455 429.323 61.6447C428.928 61.4438 428.283 61.2834 427.575 61.3795C426.867 61.4763 426.308 61.8019 426.002 62.0988C425.692 62.3982 425.608 62.6483 425.681 62.6983Z" fill="#303030"/>
<path d="M422.738 71.1906C422.736 71.1294 422.011 71.108 420.845 71.1223C420.551 71.1318 420.268 71.1143 420.192 70.9341C420.094 70.7451 420.171 70.4339 420.264 70.0972C420.438 69.3985 420.62 68.6664 420.811 67.8986C421.562 64.7735 422.061 62.2192 421.927 62.1922C421.793 62.1644 421.077 64.6758 420.327 67.801C420.149 68.5712 419.979 69.3048 419.818 70.0067C419.754 70.3323 419.617 70.7102 419.827 71.1009C419.936 71.2946 420.171 71.4153 420.364 71.4375C420.559 71.4669 420.722 71.4478 420.867 71.4367C422.028 71.3422 422.744 71.2525 422.738 71.1906Z" fill="#303030"/>
<path d="M426.2 71.4911C426.013 71.5054 426.184 72.6694 425.251 73.6349C424.32 74.6028 422.986 74.6465 423 74.8108C422.993 74.8863 423.327 74.9982 423.884 74.9379C424.431 74.8839 425.202 74.6139 425.773 74.0224C426.342 73.4309 426.518 72.7186 426.489 72.2359C426.463 71.7428 426.283 71.4729 426.2 71.4911Z" fill="#303030"/>
<path d="M424.763 58.533C424.918 58.8102 426.033 58.5211 427.389 58.4957C428.745 58.4457 429.875 58.6704 430.013 58.3861C430.075 58.2504 429.846 58.0011 429.369 57.7772C428.896 57.5525 428.168 57.3754 427.354 57.3976C426.541 57.4214 425.827 57.6382 425.368 57.8891C424.906 58.14 424.694 58.402 424.763 58.533Z" fill="#303030"/>
<path d="M414.429 60.8204C414.666 61.0371 415.411 60.6806 416.351 60.5441C417.287 60.3765 418.115 60.4774 418.26 60.1979C418.323 60.0637 418.161 59.8366 417.778 59.6524C417.4 59.4682 416.798 59.357 416.153 59.461C415.509 59.5659 414.981 59.8612 414.691 60.1542C414.395 60.448 414.323 60.7132 414.429 60.8204Z" fill="#303030"/>
<path d="M407.352 50.4256C407.143 49.572 407.346 48.5986 408.017 47.992C408.687 47.3846 409.85 47.2639 410.554 47.8363C410.032 46.7176 410.843 45.24 412.111 44.9938C413.307 44.762 414.464 45.4845 415.675 45.6314C416.857 45.7751 418.04 45.3583 419.074 44.7977C420.106 44.2371 421.044 43.5273 422.096 42.9993C424.289 41.8964 426.948 41.6455 429.329 42.3173C431.71 42.9898 433.787 44.5746 434.977 46.6318C436.524 45.9411 438.478 46.4715 439.669 47.6315C440.859 48.7915 441.368 50.4542 441.406 52.0676C441.432 53.1577 441.258 54.2376 441.026 55.3095C441.041 55.3992 441.063 55.4857 441.075 55.5763C441.57 59.4216 441.783 63.9863 440.05 64.242C437.032 64.6858 436.952 59.2175 436.952 59.2175C433.037 58.3576 433.637 52.9298 432.591 52.2581C431.545 51.5848 429.326 49.9936 422.112 54.7695C419.31 56.6243 415.291 57.1103 413.03 56.9324L412.832 56.9213L412.785 56.9181L412.717 56.9022C411.994 56.8236 411.282 56.6585 410.605 56.3702C409.838 56.0431 409.113 55.5588 408.705 54.8656C408.297 54.1717 408.273 53.2419 408.804 52.6257C408.129 52.0231 407.56 51.2799 407.352 50.4256Z" fill="#303030"/>
<path d="M422.516 90.6292L423.352 118.318L441.626 81.2306L441.168 77.7966L422.516 90.6292Z" fill="#E7E8E5"/>
<path d="M434.639 173.403C433.969 173.61 395.921 209.886 396.776 216.402C397.631 222.918 424.716 271.176 424.716 271.176L444.04 262.193L425.913 219.887L426.15 217.262L448.304 200.148L447.121 172.625L434.639 173.403Z" fill="#303030"/>
<path d="M442.844 180.553C443.287 181.185 449.876 238.176 451.642 241.126C453.408 244.076 479.873 292.729 479.873 292.729L499.522 285.265L475.535 231.792L478.268 181.182L476.788 166.891L447.122 172.625L442.844 180.553Z" fill="#303030"/>
<path d="M451.295 240.121C451.279 240.123 451.236 239.927 451.166 239.551C451.093 239.137 450.999 238.59 450.88 237.906C450.643 236.431 450.312 234.371 449.906 231.843C449.118 226.681 448.041 219.621 446.851 211.821C445.708 204.012 444.674 196.945 443.917 191.779C443.567 189.244 443.282 187.178 443.077 185.7C442.99 185.011 442.921 184.461 442.87 184.043C442.827 183.665 442.811 183.464 442.826 183.463C442.84 183.46 442.883 183.657 442.953 184.033C443.025 184.446 443.121 184.994 443.239 185.678C443.477 187.152 443.807 189.212 444.214 191.74C445.001 196.902 446.079 203.962 447.269 211.766C448.412 219.572 449.446 226.639 450.202 231.805C450.553 234.34 450.839 236.407 451.043 237.884C451.129 238.574 451.198 239.124 451.251 239.541C451.294 239.919 451.308 240.119 451.295 240.121Z" fill="#303030"/>
<path d="M475.034 230.156C475.147 230.186 474.636 232.208 473.893 234.672C473.15 237.137 472.456 239.11 472.344 239.08C472.231 239.05 472.744 237.028 473.486 234.563C474.229 232.1 474.922 230.126 475.034 230.156Z" fill="#303030"/>
<path d="M478.008 243.061C477.969 243.088 477.504 242.587 476.935 241.656C476.365 240.729 475.731 239.35 475.364 237.742C475.003 236.132 474.986 234.63 475.105 233.564C475.222 232.496 475.429 231.859 475.476 231.868C475.618 231.878 475.043 234.506 475.778 237.66C476.47 240.819 478.132 242.999 478.008 243.061Z" fill="#303030"/>
<path d="M419.58 213.748C419.619 213.655 421.207 214.278 422.752 215.615C424.306 216.941 425.109 218.377 425.015 218.421C424.909 218.487 423.971 217.192 422.467 215.908C420.975 214.615 419.519 213.854 419.58 213.748Z" fill="#303030"/>
<path d="M422.558 212.065C422.634 211.991 423.604 212.798 424.431 214.069C425.265 215.336 425.598 216.515 425.493 216.546C425.378 216.586 424.879 215.503 424.071 214.278C423.272 213.05 422.468 212.145 422.558 212.065Z" fill="#303030"/>
<path d="M425.184 128.923L430.048 151.672L434.006 183.418C434.006 183.418 450.325 181.27 457.28 179.195C465.347 176.787 482.9 174.737 482.9 174.737L479.941 177.497C486.221 175.839 490.22 170.189 490.22 170.189C479.396 160.725 470.162 141.255 470.162 141.255L461.931 102.728C461.931 102.728 460.681 97.2929 459.928 94.8759C459.173 92.459 446.674 84.6627 444.943 83.6774L443.854 83.1922L443.507 80.1044L442.22 79.3786L428.693 90.9623C426.065 93.218 424.387 96.2908 423.986 99.6201C423.563 103.131 423.184 108.166 423.397 114.113C423.558 118.627 425.184 128.923 425.184 128.923Z" fill="url(#paint2_linear_1236_1996)"/>
<path d="M434.47 89.5165C434.47 89.5165 427.324 93.1276 426.085 96.1932C424.846 99.2581 428.53 132.863 428.53 132.863L402.87 133.317L402.789 147.733C402.789 147.733 443.549 150.769 445.136 148.691C447.28 145.883 449.772 119.624 449.772 119.624L450.698 100.73C450.698 100.73 448.334 86.3222 434.47 89.5165Z" fill="url(#paint3_linear_1236_1996)"/>
<path d="M437.252 152.721C434.822 152.721 432.5 152.419 430.051 151.673L429.57 149.36C429.57 149.36 434.236 149.676 437.882 149.676C438.981 149.676 439.985 149.647 440.743 149.573C441.5 149.498 442.298 149.446 443.016 149.231C444.195 149.114 444.948 148.939 445.138 148.69C445.748 147.892 446.385 145.199 446.986 141.753C448.007 137.056 448.621 131.198 448.931 127.569C449.061 126.44 449.178 125.379 449.282 124.423C450.069 126.633 451.198 130.538 450.849 132.701C450.485 134.951 449.887 137.173 449.749 139.446C449.591 142.062 450.027 144.798 448.981 147.226C447.615 150.396 443.936 152.261 440.323 152.578C439.269 152.67 438.252 152.721 437.252 152.721Z" fill="#BA2C42"/>
<path d="M443.016 149.232C443.407 149.115 443.774 148.948 444.098 148.703C444.885 148.106 445.332 147.204 445.684 146.311C446.177 145.064 446.609 143.489 446.986 141.755C446.385 145.2 445.748 147.893 445.138 148.691C444.948 148.94 444.195 149.116 443.016 149.232ZM448.931 127.571C449.108 125.506 449.187 124.163 449.187 124.163C449.218 124.247 449.25 124.334 449.282 124.424C449.178 125.381 449.061 126.441 448.931 127.571Z" fill="#BA2C42"/>
<path d="M450.654 102.771C450.661 102.771 450.661 102.887 450.654 103.114C450.644 103.358 450.632 103.692 450.614 104.118C450.567 105.02 450.501 106.317 450.417 107.978C450.323 109.659 450.21 111.708 450.077 114.083C449.923 116.462 449.839 119.176 449.53 122.163C449.254 125.152 448.921 128.423 448.524 131.931C448.111 135.438 447.67 139.185 446.962 143.105C446.761 144.084 446.601 145.072 446.257 146.068C445.904 147.05 445.291 147.993 444.407 148.681C443.535 149.354 442.38 149.833 441.214 149.756C440.082 149.78 438.948 149.752 437.801 149.74C433.221 149.633 428.487 149.412 423.639 149.164C416.355 148.784 409.335 148.356 402.775 147.922L402.586 147.909L402.588 147.731C402.62 142.612 402.651 137.788 402.679 133.34L402.68 133.173L402.855 133.17C413.102 132.962 421.633 132.789 427.624 132.668C430.594 132.619 432.934 132.581 434.554 132.554C435.337 132.547 435.945 132.542 436.378 132.538C436.791 132.537 437.004 132.55 437.004 132.55C437.004 132.55 436.791 132.573 436.38 132.592C435.947 132.607 435.339 132.63 434.556 132.659C432.937 132.708 430.598 132.777 427.63 132.866C421.639 133.023 413.11 133.244 402.865 133.511L403.042 133.341C403.026 137.79 403.009 142.613 402.99 147.733L402.803 147.543C409.362 147.965 416.382 148.387 423.662 148.766C428.507 149.014 433.24 149.238 437.811 149.35C438.953 149.364 440.087 149.393 441.201 149.37C442.299 149.447 443.331 149.008 444.15 148.387C444.968 147.753 445.545 146.88 445.882 145.946C446.208 145.01 446.378 144.005 446.578 143.04C447.294 139.142 447.748 135.396 448.176 131.895C448.588 128.391 448.937 125.123 449.233 122.138C449.56 119.155 449.665 116.442 449.842 114.066C450.002 111.694 450.139 109.648 450.252 107.967C450.372 106.309 450.464 105.014 450.529 104.113C450.564 103.688 450.591 103.355 450.612 103.112C450.633 102.887 450.646 102.771 450.654 102.771Z" fill="#303030"/>
<path d="M407.828 147.521C407.711 147.521 407.635 144.391 407.656 140.531C407.678 136.67 407.79 133.542 407.906 133.542C408.023 133.542 408.101 136.672 408.079 140.533C408.057 144.392 407.945 147.521 407.828 147.521Z" fill="#303030"/>
<path d="M405.108 135.731C405.059 135.705 405.316 135.436 405.802 135.588C406.027 135.655 406.3 135.892 406.323 136.228C406.352 136.547 406.185 136.92 405.801 137.092C405.414 137.25 405.01 137.129 404.77 136.913C404.512 136.689 404.467 136.364 404.52 136.151C404.634 135.695 404.972 135.598 404.984 135.644C405.023 135.689 404.823 135.857 404.815 136.185C404.813 136.345 404.871 136.524 405.028 136.639C405.182 136.759 405.437 136.812 405.627 136.729C405.817 136.65 405.938 136.431 405.934 136.249C405.938 136.066 405.821 135.925 405.678 135.844C405.382 135.678 405.134 135.783 405.108 135.731Z" fill="#303030"/>
<path d="M462.047 106.029C462.047 106.029 475.398 122.485 477.024 126.969C478.651 131.455 477.394 137.893 474.675 140.971C471.956 144.051 469.763 142.799 469.763 142.799L462.047 106.029Z" fill="url(#paint4_linear_1236_1996)"/>
<path d="M469.287 141.48C469.306 141.588 467.808 141.921 465.941 142.223C464.073 142.525 462.543 142.682 462.524 142.573C462.503 142.465 464.002 142.132 465.87 141.83C467.736 141.528 469.267 141.371 469.287 141.48Z" fill="#303030"/>
<path d="M471.849 153.612C471.877 153.605 472.005 153.915 472.212 154.481C472.415 155.048 472.721 155.865 473.117 156.865C473.905 158.87 475.118 161.594 476.703 164.492C478.293 167.388 479.938 169.904 481.188 171.688C481.811 172.581 482.326 173.299 482.686 173.792C483.043 174.287 483.231 174.569 483.206 174.585C483.183 174.602 482.953 174.351 482.553 173.883C482.152 173.417 481.598 172.722 480.941 171.847C479.623 170.096 477.927 167.588 476.327 164.674C474.733 161.759 473.554 158.997 472.836 156.96C472.474 155.942 472.209 155.109 472.054 154.526C471.896 153.945 471.822 153.62 471.849 153.612Z" fill="#303030"/>
<path d="M482.838 173.201C482.771 173.201 482.705 173.194 482.638 173.18C482.282 173.1 482.022 172.822 481.796 172.549C481.608 172.284 481.405 171.996 481.189 171.687C479.939 169.903 478.294 167.387 476.704 164.491C475.212 161.763 474.049 159.188 473.261 157.224C473.136 156.852 473.016 156.48 472.902 156.105L472.758 155.562C474.873 159.116 477.048 162.74 480.271 165.457C481.409 166.416 482.682 167.268 483.55 168.451C484.418 169.635 484.792 171.291 483.969 172.502C483.714 172.874 483.29 173.201 482.838 173.201Z" fill="#BA2C42"/>
<path d="M481.797 172.551C481.787 172.539 481.777 172.527 481.767 172.515C478.002 167.946 475.109 162.742 473.262 157.225C474.05 159.189 475.213 161.764 476.706 164.492C478.295 167.388 479.941 169.904 481.19 171.688C481.406 171.997 481.609 172.286 481.797 172.551Z" fill="#4F4F4F"/>
<path d="M470.996 142.738L469.773 141.081L463.168 108.511L464.473 113.076C466.17 119.628 468.108 125.054 470.975 131.055C471.901 132.989 472.921 134.932 473.193 137.039C473.463 139.145 472.824 141.501 470.996 142.738Z" fill="#BA2C42"/>
<path d="M437.945 88.0527C437.87 87.9613 439.069 86.9998 440.433 85.7096C441.802 84.4225 442.821 83.2934 442.918 83.3633C443.008 83.4252 442.124 84.6821 440.732 85.9914C439.344 87.3039 438.01 88.1376 437.945 88.0527Z" fill="#303030"/>
<path d="M436.598 90.84C436.619 90.9067 435.827 91.1315 434.646 91.6825C433.465 92.2288 431.919 93.1609 430.504 94.5044C429.095 95.8534 428.124 97.3231 427.559 98.4426C426.988 99.5629 426.761 100.312 426.689 100.293C426.661 100.285 426.695 100.093 426.781 99.7479C426.861 99.4026 427.03 98.9134 427.286 98.3275C427.793 97.1539 428.754 95.6128 430.204 94.2241C431.658 92.8417 433.282 91.9183 434.52 91.4268C435.138 91.1783 435.655 91.0124 436.021 90.9338C436.387 90.848 436.59 90.8138 436.598 90.84Z" fill="#303030"/>
<path d="M472.454 146.011C472.441 146.018 472.37 145.909 472.244 145.695C472.101 145.442 471.924 145.131 471.71 144.751C471.232 143.871 470.584 142.677 469.788 141.208L469.781 141.193L469.777 141.176C468.942 137.569 467.761 132.309 466.477 126.459C465.291 120.946 464.219 115.958 463.427 112.278C463.066 110.501 462.769 109.044 462.551 107.971C462.464 107.497 462.392 107.109 462.333 106.796C462.288 106.526 462.272 106.383 462.287 106.381C462.3 106.377 462.345 106.515 462.417 106.779C462.496 107.088 462.593 107.472 462.713 107.939C462.963 109.006 463.305 110.455 463.72 112.22C464.543 115.894 465.658 120.874 466.89 126.379C468.175 132.228 469.304 137.498 470.055 141.121L470.044 141.089C470.792 142.58 471.401 143.792 471.849 144.686C472.037 145.079 472.191 145.4 472.317 145.662C472.419 145.886 472.467 146.006 472.454 146.011Z" fill="#303030"/>
<path d="M428.087 132.85C428.059 132.852 427.99 132.427 427.893 131.657C427.795 130.815 427.669 129.716 427.515 128.391C427.216 125.632 426.832 121.819 426.433 117.603C426.035 113.387 425.696 109.569 425.474 106.803C425.374 105.474 425.293 104.372 425.23 103.527C425.183 102.753 425.17 102.324 425.199 102.322C425.229 102.32 425.297 102.745 425.395 103.515C425.491 104.357 425.618 105.457 425.771 106.781C426.071 109.54 426.456 113.354 426.854 117.569C427.253 121.783 427.59 125.6 427.813 128.365C427.912 129.695 427.994 130.798 428.056 131.643C428.104 132.417 428.117 132.846 428.087 132.85Z" fill="#303030"/>
<path d="M403.195 135.002C403.195 135.002 397.661 131.044 396.31 130.805C395.276 130.622 389.099 130.719 386.258 130.775C385.166 130.796 384.208 131.605 384.22 132.635L384.24 132.824C384.462 133.911 385.59 134.147 385.59 134.147C385.59 134.147 384.118 134.545 384.094 136.057C384.07 137.57 386.012 137.887 386.012 137.887C386.012 137.887 385.895 137.968 385.735 138.12C384.673 139.119 385.212 140.834 386.674 141.148L387.549 141.335C387.549 141.335 386.365 141.799 386.382 142.837C386.414 144.828 391.161 145.209 391.161 145.209C391.161 145.209 402.894 146.96 403.148 146.88C403.401 146.8 403.195 135.002 403.195 135.002Z" fill="#F8A58D"/>
<path d="M387.346 128.423C387.399 129.079 387.562 130.475 388.745 131.107L395.284 130.866C395.284 130.866 390.415 129.282 389.722 128.499C389.48 128.224 389.145 127.885 388.789 127.638C388.169 127.21 387.29 127.7 387.346 128.423Z" fill="#F8A58D"/>
<path d="M392.208 130.805C392.21 130.912 390.874 131.033 389.223 131.003C387.579 130.976 386.246 130.918 386.242 130.805C386.241 130.698 387.577 130.577 389.229 130.606C390.872 130.635 392.205 130.692 392.208 130.805Z" fill="#F68260"/>
<path d="M390.74 134.246C390.751 134.352 389.598 134.544 388.162 134.494C386.726 134.448 385.589 134.18 385.61 134.074C385.629 133.962 386.771 134.051 388.177 134.096C389.582 134.146 390.73 134.133 390.74 134.246Z" fill="#F68260"/>
<path d="M394.065 133.808C394.162 133.864 394.036 134.199 393.667 134.423C393.297 134.649 392.922 134.62 392.907 134.513C392.886 134.402 393.15 134.268 393.436 134.089C393.728 133.915 393.965 133.744 394.065 133.808Z" fill="#F68260"/>
<path d="M391.457 138.151C391.448 138.261 390.186 138.311 388.639 138.263C387.092 138.215 385.837 138.087 385.836 137.977C385.834 137.867 387.096 137.817 388.653 137.866C390.21 137.913 391.465 138.042 391.457 138.151Z" fill="#F68260"/>
<path d="M395.194 136.504C395.246 136.49 395.348 136.613 395.38 136.856C395.412 137.093 395.351 137.452 395.097 137.757C394.843 138.061 394.488 138.201 394.236 138.228C393.978 138.255 393.826 138.192 393.828 138.14C393.825 138.032 394.392 137.963 394.766 137.511C395.145 137.062 395.082 136.527 395.194 136.504Z" fill="#F68260"/>
<path d="M392.447 141.975C392.432 142.084 391.294 142.041 389.905 141.879C388.515 141.718 387.4 141.498 387.414 141.388C387.429 141.28 388.566 141.323 389.957 141.484C391.346 141.646 392.46 141.866 392.447 141.975Z" fill="#F68260"/>
<path d="M396.095 140.031C396.148 140.024 396.229 140.159 396.222 140.398C396.217 140.635 396.102 140.957 395.871 141.236C395.393 141.781 394.856 141.979 394.796 141.905C394.712 141.811 395.143 141.448 395.538 140.991C395.94 140.531 395.986 140.049 396.095 140.031Z" fill="#F68260"/>
<path d="M477.725 177.832C480.035 177.638 482.212 176.346 483.395 174.465C483.529 174.251 483.644 173.96 483.469 173.776C483.351 173.651 483.152 173.638 482.975 173.636C481.148 173.62 479.318 173.915 477.602 174.504C477.407 174.572 477.193 174.661 477.12 174.844C477.067 174.977 477.104 175.124 477.142 175.262C477.373 176.097 477.602 176.931 477.833 177.766L477.725 177.832Z" fill="url(#paint5_linear_1236_1996)"/>
<path d="M477.725 177.832L477.832 177.766C477.622 177.002 477.411 176.24 477.202 175.476C477.181 175.405 477.162 175.333 477.142 175.262C477.117 175.174 477.094 175.082 477.094 174.992C477.094 174.942 477.1 174.892 477.12 174.844C477.192 174.661 477.407 174.572 477.602 174.504C479.275 173.93 481.056 173.635 482.838 173.635C482.883 173.635 482.929 173.635 482.974 173.636C483.152 173.638 483.351 173.651 483.469 173.776C483.533 173.844 483.558 173.926 483.558 174.013C483.557 174.164 483.48 174.33 483.394 174.465C482.681 175.599 481.606 176.52 480.358 177.114C479.537 177.505 478.641 177.755 477.725 177.832Z" fill="#9C2438"/>
<path d="M422.517 90.6292C422.517 90.6292 419.825 99.148 420.567 98.6637C421.309 98.1802 422.917 96.8351 422.917 96.8351L422.517 90.6292Z" fill="#E7E8E5"/>
<path d="M422.669 94.5581L421.197 97.8738C421.056 98.22 420.961 98.5773 420.913 98.9457C420.791 99.8747 420.651 101.578 421.237 101.696C422.047 101.86 422.811 101.083 422.811 101.083L422.669 94.5581Z" fill="#303030"/>
<path d="M468.318 95.08C468.318 95.08 453.92 89.7832 445.946 94.4607C437.974 99.1374 436.522 106.6 431.773 106.6C422.514 106.6 422.81 100.44 422.81 100.44L420.842 101.002C420.804 102.263 418.696 111.312 428.454 112.433C438.212 113.555 442.313 101.014 451.092 101.002C459.869 100.991 466.534 105.478 466.534 105.478L472.84 101.718L468.318 95.08Z" fill="#303030"/>
<path d="M431.375 112.283C431.375 112.283 434.965 110.548 436.929 106.275C439.166 101.41 443.969 95.8551 447.977 94.4601C451.987 93.0642 461.264 92.09 467.671 96.0266L471.774 101.253L466.447 104.511C466.447 104.511 462.236 102.329 457.06 100.967C450.437 99.2241 446.413 101.192 442.563 104.627C442.323 104.841 442.104 105.052 441.912 105.257C440.941 106.297 438.255 108.705 435.818 110.344C433.935 111.61 432.232 112.297 431.375 112.283Z" fill="#303030"/>
<path d="M133.231 38.3776C124.691 39.6178 118.43 32.8553 116.433 26.8337C114.59 21.2757 113.714 15.4929 111.125 10.2057C107.506 2.81754 97.921 -0.597431 89.3193 0.0862007C80.7165 0.768246 72.0481 4.83272 64.4375 8.6733L66.5368 53.1508C66.5368 53.1508 83.111 36.5125 91.0754 36.2092C104.363 35.7034 103.639 56.295 116.543 59.3352C116.543 59.3352 134.632 63.9587 146.862 49.0664C154.624 39.6147 155.311 28.1326 155.311 28.1326C155.311 28.1326 149.366 36.0345 133.231 38.3776Z" fill="url(#paint6_linear_1236_1996)"/>
<path d="M64.0905 1.29303C64.207 1.28825 66.5314 48.5193 69.2811 106.772C72.0315 165.046 74.1663 212.274 74.0499 212.279C73.9335 212.284 71.6098 165.063 68.859 106.79C66.1089 48.5368 63.9738 1.29779 64.0905 1.29303Z" fill="#303030"/>
<path d="M121.314 51.4707C120.43 51.4707 119.652 51.2404 118.936 50.502C117.936 49.4714 116.606 48.2312 115.847 47.0132C111.949 40.7501 110.02 31.793 109.703 24.7074V23.7569C110.881 27.9191 113.524 33.4763 115.984 37.1072C118.444 40.7382 122.174 43.7959 126.648 44.6741C127.457 44.8337 128.295 44.9242 129.042 45.2608C129.787 45.5967 130.443 46.2509 130.467 47.0299C130.501 48.1954 129.223 48.9569 128.115 49.4722C126.537 50.2051 124.935 50.9459 123.206 51.2508C122.521 51.3715 121.894 51.4707 121.314 51.4707Z" fill="#DA314B"/>
<path d="M121.251 52.3192C121.242 52.3303 121.111 52.2596 120.867 52.1127C120.623 51.965 120.276 51.7308 119.848 51.4061C118.998 50.7502 117.838 49.6974 116.697 48.1801C115.547 46.6707 114.446 44.696 113.544 42.3974C112.634 40.0987 111.889 37.5 111.208 34.7543C109.849 29.2551 109.25 24.16 109.032 20.4727C108.922 18.6282 108.905 17.1331 108.906 16.1009C108.917 15.6213 108.927 15.2283 108.934 14.9115C108.946 14.64 108.959 14.4978 108.973 14.4978C108.988 14.4978 109.003 14.64 109.019 14.9115C109.033 15.2275 109.05 15.6197 109.071 16.0977C109.119 17.1283 109.183 18.6179 109.33 20.4544C109.623 24.1251 110.267 29.1908 111.62 34.6654C112.298 37.3983 113.029 39.99 113.908 42.2703C114.782 44.5531 115.84 46.5103 116.942 48.0189C118.036 49.5362 119.146 50.6026 119.955 51.2886C120.771 51.9682 121.272 52.2906 121.251 52.3192Z" fill="#303030"/>
<path d="M12.5938 221.669L125.429 239.084V221.669H12.5938Z" fill="#DADBD8"/>
<path d="M144.055 261.009L256.89 278.422V261.009H144.055Z" fill="#DADBD8"/>
<path d="M274.609 298.64L387.444 316.055V298.64H274.609Z" fill="#DADBD8"/>
<path d="M404.992 328.585L517.826 346V328.585H404.992Z" fill="#DADBD8"/>
<path d="M12.5938 221.67H125.429V208.627H12.5938V221.67Z" fill="url(#paint7_linear_1236_1996)"/>
<path d="M90.2148 221.67H125.426V208.627H90.2148V221.67Z" fill="#BA2C42"/>
<path d="M144.055 261.01H256.89V247.966H144.055V261.01Z" fill="url(#paint8_linear_1236_1996)"/>
<path d="M221.68 261.01H256.89V247.966H221.68V261.01Z" fill="#BA2C42"/>
<path d="M274.609 298.639H387.444V285.596H274.609V298.639Z" fill="url(#paint9_linear_1236_1996)"/>
<path d="M352.234 298.639H387.445V285.596H352.234V298.639Z" fill="#BA2C42"/>
<path d="M405.164 328.586H517.999V315.543H405.164V328.586Z" fill="url(#paint10_linear_1236_1996)"/>
<path d="M517.999 328.586H482.789V315.543H517.999V328.586Z" fill="#BA2C42"/>
<path d="M448.461 268.068C448.461 269.665 449.835 270.961 451.529 270.961C453.225 270.961 454.598 269.665 454.598 268.068C454.598 266.471 453.225 265.175 451.529 265.175C449.835 265.175 448.461 266.471 448.461 268.068Z" fill="#E7E8E5"/>
<defs>
<linearGradient id="paint0_linear_1236_1996" x1="419.82" y1="277.253" x2="450.376" y2="277.253" gradientUnits="userSpaceOnUse">
<stop stop-color="#F34242"/>
<stop offset="1" stop-color="#F1408B"/>
</linearGradient>
<linearGradient id="paint1_linear_1236_1996" x1="477.016" y1="297.352" x2="506.037" y2="297.352" gradientUnits="userSpaceOnUse">
<stop stop-color="#F34242"/>
<stop offset="1" stop-color="#F1408B"/>
</linearGradient>
<linearGradient id="paint2_linear_1236_1996" x1="423.336" y1="131.773" x2="490.22" y2="131.773" gradientUnits="userSpaceOnUse">
<stop stop-color="#F34242"/>
<stop offset="1" stop-color="#F1408B"/>
</linearGradient>
<linearGradient id="paint3_linear_1236_1996" x1="402.789" y1="119.453" x2="450.698" y2="119.453" gradientUnits="userSpaceOnUse">
<stop stop-color="#F34242"/>
<stop offset="1" stop-color="#F1408B"/>
</linearGradient>
<linearGradient id="paint4_linear_1236_1996" x1="462.047" y1="124.673" x2="477.748" y2="124.673" gradientUnits="userSpaceOnUse">
<stop stop-color="#F34242"/>
<stop offset="1" stop-color="#F1408B"/>
</linearGradient>
<linearGradient id="paint5_linear_1236_1996" x1="477.094" y1="175.749" x2="483.558" y2="175.749" gradientUnits="userSpaceOnUse">
<stop stop-color="#F34242"/>
<stop offset="1" stop-color="#F1408B"/>
</linearGradient>
<linearGradient id="paint6_linear_1236_1996" x1="64.4375" y1="30.223" x2="155.311" y2="30.223" gradientUnits="userSpaceOnUse">
<stop stop-color="#F34242"/>
<stop offset="1" stop-color="#F1408B"/>
</linearGradient>
<linearGradient id="paint7_linear_1236_1996" x1="12.5938" y1="215.195" x2="125.429" y2="215.195" gradientUnits="userSpaceOnUse">
<stop stop-color="#F34242"/>
<stop offset="1" stop-color="#F1408B"/>
</linearGradient>
<linearGradient id="paint8_linear_1236_1996" x1="144.055" y1="254.535" x2="256.89" y2="254.535" gradientUnits="userSpaceOnUse">
<stop stop-color="#F34242"/>
<stop offset="1" stop-color="#F1408B"/>
</linearGradient>
<linearGradient id="paint9_linear_1236_1996" x1="274.609" y1="292.164" x2="387.444" y2="292.164" gradientUnits="userSpaceOnUse">
<stop stop-color="#F34242"/>
<stop offset="1" stop-color="#F1408B"/>
</linearGradient>
<linearGradient id="paint10_linear_1236_1996" x1="405.164" y1="322.111" x2="517.999" y2="322.111" gradientUnits="userSpaceOnUse">
<stop stop-color="#F34242"/>
<stop offset="1" stop-color="#F1408B"/>
</linearGradient>
</defs>
</svg>
