<svg width="524" height="195" viewBox="0 0 524 195" fill="none" xmlns="http://www.w3.org/2000/svg">
<path d="M119.508 35.352V38.352H122.508V35.352H119.508ZM36.564 35.352V32.352H33.564V35.352H36.564ZM36.564 79.128H33.564V87.6168L38.8978 81.013L36.564 79.128ZM51.924 68.376L53.0627 71.1515L53.0929 71.1391L53.1228 71.1261L51.924 68.376ZM106.708 72.984L105.01 75.4575L106.708 72.984ZM125.652 96.024L122.884 97.1814L122.888 97.1905L122.892 97.1996L125.652 96.024ZM114.644 173.08L112.461 171.022L112.453 171.03L112.446 171.039L114.644 173.08ZM20.436 176.408L18.5088 178.707L20.436 176.408ZM0.724001 138.264V135.264H-2.5838L-2.26175 138.556L0.724001 138.264ZM35.54 138.264L38.4668 137.605L37.94 135.264H35.54V138.264ZM45.78 154.648L43.9435 157.02L43.9616 157.034L43.98 157.048L45.78 154.648ZM89.3 151.32L91.6303 153.209L89.3 151.32ZM89.044 102.168L86.8242 104.186L86.8562 104.221L86.8893 104.255L89.044 102.168ZM48.34 99.096L46.54 96.696L48.34 99.096ZM38.1 113.432V116.432H40.2429L40.9378 114.405L38.1 113.432ZM3.796 113.432H0.796001V116.432H3.796V113.432ZM3.796 3.864V0.863998H0.796001V3.864H3.796ZM119.508 3.864H122.508V0.863998H119.508V3.864ZM119.508 32.352H36.564V38.352H119.508V32.352ZM33.564 35.352V79.128H39.564V35.352H33.564ZM38.8978 81.013C42.0923 77.058 46.7539 73.7397 53.0627 71.1515L50.7853 65.6005C43.7821 68.4736 38.2037 72.3234 34.2302 77.243L38.8978 81.013ZM53.1228 71.1261C59.3876 68.3953 66.0607 67.024 73.172 67.024V61.024C65.2646 61.024 57.7724 62.5541 50.7253 65.6259L53.1228 71.1261ZM73.172 67.024C86.3959 67.024 96.9343 69.915 105.01 75.4575L108.406 70.5105C99.0737 64.1063 87.2547 61.024 73.172 61.024V67.024ZM105.01 75.4575C113.257 81.1172 119.19 88.348 122.884 97.1814L128.42 94.8666C124.263 84.9267 117.567 76.7975 108.406 70.5105L105.01 75.4575ZM122.892 97.1996C126.65 106.023 128.54 115.52 128.54 125.72H134.54C134.54 114.758 132.505 104.457 128.412 94.8484L122.892 97.1996ZM128.54 125.72C128.54 144.74 123.101 159.738 112.461 171.022L116.827 175.138C128.715 162.529 134.54 145.953 134.54 125.72H128.54ZM112.446 171.039C102.063 182.22 87.0812 188 67.028 188V194C88.2761 194 105.038 187.834 116.842 175.121L112.446 171.039ZM67.028 188C48.072 188 33.2899 183.268 22.3632 174.109L18.5088 178.707C30.7928 189.004 47.072 194 67.028 194V188ZM22.3632 174.109C11.3873 164.908 5.17282 152.928 3.70975 137.972L-2.26175 138.556C-0.652821 155.003 6.27406 168.452 18.5088 178.707L22.3632 174.109ZM0.724001 141.264H35.54V135.264H0.724001V141.264ZM32.6132 138.923C34.2947 146.396 38.0744 152.476 43.9435 157.02L47.6165 152.276C42.9042 148.628 39.8573 143.785 38.4668 137.605L32.6132 138.923ZM43.98 157.048C50.0685 161.614 57.6535 163.792 66.516 163.792V157.792C58.6532 157.792 52.4142 155.874 47.58 152.248L43.98 157.048ZM66.516 163.792C77.253 163.792 85.8066 160.392 91.6303 153.209L86.9697 149.431C82.5534 154.877 75.9177 157.792 66.516 157.792V163.792ZM91.6303 153.209C97.2928 146.226 99.98 137.134 99.98 126.232H93.98C93.98 136.151 91.5472 143.785 86.9697 149.431L91.6303 153.209ZM99.98 126.232C99.98 115.18 97.2139 106.29 91.1987 100.081L86.8893 104.255C91.4554 108.969 93.98 116.121 93.98 126.232H99.98ZM91.2638 100.15C85.4072 93.7077 76.8875 90.72 66.26 90.72V96.72C75.7712 96.72 82.4408 99.3643 86.8242 104.186L91.2638 100.15ZM66.26 90.72C58.5764 90.72 51.9355 92.6494 46.54 96.696L50.14 101.496C54.3019 98.3746 59.6076 96.72 66.26 96.72V90.72ZM46.54 96.696C41.2519 100.662 37.4935 105.951 35.2622 112.459L40.9378 114.405C42.8025 108.966 45.8707 104.698 50.14 101.496L46.54 96.696ZM38.1 110.432H3.796V116.432H38.1V110.432ZM6.796 113.432V3.864H0.796001V113.432H6.796ZM3.796 6.864H119.508V0.863998H3.796V6.864ZM116.508 3.864V35.352H122.508V3.864H116.508ZM179.81 25.88L177.286 24.2577L177.281 24.2669L177.275 24.2761L179.81 25.88ZM286.05 25.88L283.515 27.4839L283.521 27.4931L283.526 27.5023L286.05 25.88ZM286.05 165.144L283.519 163.533L283.513 163.543L283.507 163.552L286.05 165.144ZM179.81 165.144L177.267 166.736L177.273 166.745L177.279 166.755L179.81 165.144ZM264.29 63.512L261.336 64.0333L261.342 64.0669L261.348 64.1003L264.29 63.512ZM254.562 42.264L252.304 44.2395L252.321 44.2592L252.339 44.2785L254.562 42.264ZM211.298 42.264L209.075 40.2494L209.057 40.2688L209.04 40.2885L211.298 42.264ZM201.57 63.512L198.626 62.9348L198.622 62.9576L198.617 62.9805L201.57 63.512ZM201.57 128.024L198.614 128.536L198.616 128.545L201.57 128.024ZM211.298 149.272L209.075 151.287L209.091 151.304L209.107 151.321L211.298 149.272ZM254.818 149.272L257.009 151.321L257.025 151.304L257.041 151.287L254.818 149.272ZM264.546 128.024L267.5 128.545L267.502 128.536L264.546 128.024ZM166.938 95.256C166.938 66.0373 172.182 43.5482 182.345 27.4839L177.275 24.2761C166.275 41.6624 160.938 65.424 160.938 95.256H166.938ZM182.334 27.5023C192.395 11.8509 209.047 3.79199 233.058 3.79199V-2.20801C207.576 -2.20801 188.729 6.45844 177.286 24.2577L182.334 27.5023ZM233.058 3.79199C257.071 3.79199 273.624 11.8506 283.515 27.4839L288.585 24.2761C277.313 6.45869 258.538 -2.20801 233.058 -2.20801V3.79199ZM283.526 27.5023C293.851 43.5626 299.178 66.0441 299.178 95.256H305.178C305.178 65.4172 299.753 41.648 288.574 24.2577L283.526 27.5023ZM299.178 95.256C299.178 124.64 293.851 147.298 283.519 163.533L288.581 166.755C299.753 149.198 305.178 125.264 305.178 95.256H299.178ZM283.507 163.552C273.611 179.354 257.058 187.488 233.058 187.488V193.488C258.551 193.488 277.326 184.726 288.593 166.736L283.507 163.552ZM233.058 187.488C209.06 187.488 192.408 179.353 182.341 163.533L177.279 166.755C188.716 184.727 207.563 193.488 233.058 193.488V187.488ZM182.353 163.552C172.182 147.312 166.938 124.647 166.938 95.256H160.938C160.938 125.257 166.275 149.184 177.267 166.736L182.353 163.552ZM269.85 95.256C269.85 82.5091 268.99 71.7159 267.232 62.9236L261.348 64.1003C263.003 72.3747 263.85 82.7442 263.85 95.256H269.85ZM267.244 62.9906C265.63 53.8418 262.184 46.2066 256.785 40.2494L252.339 44.2785C256.839 49.2441 259.878 55.7741 261.336 64.0333L267.244 62.9906ZM256.82 40.2885C251.304 33.9853 243.19 31.072 233.058 31.072V37.072C242.041 37.072 248.262 39.6201 252.304 44.2395L256.82 40.2885ZM233.058 31.072C222.92 31.072 214.75 33.9872 209.075 40.2494L213.521 44.2785C217.744 39.6181 224.081 37.072 233.058 37.072V31.072ZM209.04 40.2885C203.844 46.2269 200.412 53.8271 198.626 62.9348L204.514 64.0892C206.141 55.7889 209.195 49.2237 213.556 44.2395L209.04 40.2885ZM198.617 62.9805C197.039 71.7487 196.266 82.5213 196.266 95.256H202.266C202.266 82.732 203.029 72.3419 204.523 64.0434L198.617 62.9805ZM196.266 95.256C196.266 108.33 197.039 119.436 198.614 128.536L204.526 127.512C203.029 118.862 202.266 108.123 202.266 95.256H196.266ZM198.616 128.545C200.23 137.694 203.676 145.329 209.075 151.287L213.521 147.257C209.021 142.292 205.982 135.762 204.524 127.503L198.616 128.545ZM209.107 151.321C214.789 157.395 222.948 160.208 233.058 160.208V154.208C224.053 154.208 217.706 151.73 213.489 147.223L209.107 151.321ZM233.058 160.208C243.168 160.208 251.327 157.395 257.009 151.321L252.627 147.223C248.41 151.73 242.063 154.208 233.058 154.208V160.208ZM257.041 151.287C262.44 145.329 265.886 137.694 267.5 128.545L261.592 127.503C260.134 135.762 257.095 142.292 252.595 147.257L257.041 151.287ZM267.502 128.536C269.077 119.436 269.85 108.33 269.85 95.256H263.85C263.85 108.123 263.087 118.862 261.59 127.512L267.502 128.536ZM341.726 19.736L339.653 17.567L339.641 17.5787L339.629 17.5904L341.726 19.736ZM400.35 19.736L398.253 21.8816L398.265 21.8933L398.277 21.905L400.35 19.736ZM400.35 80.92L398.277 78.751L398.265 78.7627L398.253 78.7744L400.35 80.92ZM341.726 80.92L339.629 83.0656L339.641 83.0773L339.653 83.089L341.726 80.92ZM494.814 11.8L497.43 13.2686L499.939 8.79999H494.814V11.8ZM394.206 191V194H395.962L396.822 192.469L394.206 191ZM359.39 191L356.772 189.534L354.272 194H359.39V191ZM459.742 11.8V8.79999H457.984L457.124 10.3342L459.742 11.8ZM381.662 65.56L384.017 67.4189L384.04 67.3897L384.062 67.36L381.662 65.56ZM454.11 121.88L456.181 124.05L456.183 124.049L454.11 121.88ZM512.478 121.88L510.357 124.001L510.381 124.026L510.407 124.05L512.478 121.88ZM512.478 183.064L510.381 180.918L510.369 180.93L510.357 180.943L512.478 183.064ZM454.11 183.064L456.207 180.918L454.11 183.064ZM333.462 50.2C333.462 37.8347 337.021 28.5285 343.823 21.8816L339.629 17.5904C331.412 25.6208 327.462 36.624 327.462 50.2H333.462ZM343.799 21.905C350.849 15.1676 359.887 11.728 371.166 11.728V5.728C358.552 5.728 347.963 9.62701 339.653 17.567L343.799 21.905ZM371.166 11.728C382.446 11.728 391.383 15.1674 398.253 21.8816L402.447 17.5904C394.298 9.62729 383.779 5.728 371.166 5.728V11.728ZM398.277 21.905C405.238 28.5562 408.87 37.8545 408.87 50.2H414.87C414.87 36.6042 410.822 25.5931 402.423 17.567L398.277 21.905ZM408.87 50.2C408.87 62.7294 405.23 72.1072 398.277 78.751L402.423 83.089C410.83 75.0554 414.87 63.9532 414.87 50.2H408.87ZM398.253 78.7744C391.383 85.4886 382.446 88.928 371.166 88.928V94.928C383.779 94.928 394.298 91.0287 402.447 83.0656L398.253 78.7744ZM371.166 88.928C359.887 88.928 350.849 85.4883 343.799 78.751L339.653 83.089C347.963 91.029 358.552 94.928 371.166 94.928V88.928ZM343.823 78.7744C337.029 72.1348 333.462 62.749 333.462 50.2H327.462C327.462 63.9336 331.405 75.0279 339.629 83.0656L343.823 78.7744ZM492.198 10.3313L391.59 189.531L396.822 192.469L497.43 13.2686L492.198 10.3313ZM394.206 188H359.39V194H394.206V188ZM362.008 192.466L462.36 13.2658L457.124 10.3342L356.772 189.534L362.008 192.466ZM459.742 14.8H494.814V8.79999H459.742V14.8ZM370.91 27.232C365.413 27.232 360.899 29.2397 357.898 33.4952C355.033 37.5589 353.83 43.283 353.83 50.2H359.83C359.83 43.805 360.974 39.5451 362.802 36.9528C364.494 34.5523 367.021 33.232 370.91 33.232V27.232ZM353.83 50.2C353.83 57.1971 355.031 62.9787 357.888 67.0821C360.882 71.3829 365.397 73.424 370.91 73.424V67.424C367.036 67.424 364.511 66.0944 362.812 63.6539C360.976 61.016 359.83 56.6856 359.83 50.2H353.83ZM370.91 73.424C376.315 73.424 380.817 71.4719 384.017 67.4189L379.307 63.7011C377.387 66.1334 374.72 67.424 370.91 67.424V73.424ZM384.062 67.36C387.183 63.1985 388.502 57.3151 388.502 50.2H382.502C382.502 56.7382 381.261 61.0948 379.262 63.76L384.062 67.36ZM388.502 50.2C388.502 43.2674 387.251 37.5252 384.276 33.4539C381.173 29.2075 376.536 27.232 370.91 27.232V33.232C375.012 33.232 377.671 34.5845 379.432 36.994C381.321 39.5788 382.502 43.8206 382.502 50.2H388.502ZM445.846 152.344C445.846 139.792 449.414 130.51 456.181 124.05L452.039 119.71C443.788 127.586 439.846 138.614 439.846 152.344H445.846ZM456.183 124.049C463.233 117.312 472.271 113.872 483.55 113.872V107.872C470.936 107.872 460.347 111.771 452.037 119.711L456.183 124.049ZM483.55 113.872C494.831 113.872 503.667 117.311 510.357 124.001L514.599 119.759C506.612 111.771 496.162 107.872 483.55 107.872V113.872ZM510.407 124.05C517.174 130.51 520.742 139.792 520.742 152.344H526.742C526.742 138.614 522.8 127.586 514.549 119.71L510.407 124.05ZM520.742 152.344C520.742 164.893 517.175 174.279 510.381 180.918L514.575 185.21C522.799 177.172 526.742 166.078 526.742 152.344H520.742ZM510.357 180.943C503.667 187.633 494.831 191.072 483.55 191.072V197.072C496.162 197.072 506.612 193.173 514.599 185.185L510.357 180.943ZM483.55 191.072C472.086 191.072 463.069 187.625 456.207 180.918L452.013 185.21C460.17 193.181 470.779 197.072 483.55 197.072V191.072ZM456.207 180.918C449.413 174.279 445.846 164.893 445.846 152.344H439.846C439.846 166.078 443.789 177.172 452.013 185.21L456.207 180.918ZM483.294 129.376C477.668 129.376 473.031 131.351 469.928 135.598C466.953 139.669 465.702 145.411 465.702 152.344H471.702C471.702 145.965 472.883 141.723 474.772 139.138C476.533 136.729 479.192 135.376 483.294 135.376V129.376ZM465.702 152.344C465.702 159.356 466.951 165.156 469.917 169.267C473.014 173.56 477.653 175.568 483.294 175.568V169.568C479.207 169.568 476.55 168.205 474.783 165.757C472.885 163.127 471.702 158.814 471.702 152.344H465.702ZM483.294 175.568C488.87 175.568 493.448 173.544 496.493 169.247C499.405 165.139 500.63 159.349 500.63 152.344H494.63C494.63 158.822 493.466 163.143 491.599 165.777C489.866 168.221 487.275 169.568 483.294 169.568V175.568ZM500.63 152.344C500.63 145.419 499.403 139.686 496.483 135.618C493.431 131.367 488.855 129.376 483.294 129.376V135.376C487.29 135.376 489.883 136.713 491.609 139.118C493.467 141.706 494.63 145.957 494.63 152.344H500.63Z" fill="white"/>
</svg>
