<svg width="20" height="18" viewBox="0 0 20 18" fill="none" xmlns="http://www.w3.org/2000/svg">
<path d="M10 0L20 4.07143V5.42857H18.6667C18.6667 5.61235 18.5955 5.77139 18.4531 5.90569C18.3108 6.03999 18.1424 6.10714 17.9479 6.10714H2.05208C1.85764 6.10714 1.68924 6.03999 1.54688 5.90569C1.40451 5.77139 1.33333 5.61235 1.33333 5.42857H0V4.07143L10 0ZM2.66667 6.78571H5.33333V14.4643H6.66667V6.78571H9.33333V14.4643H10.6667V6.78571H13.3333V14.4643H14.6667V6.78571H17.3333V14.4643H17.9479C18.1424 14.4643 18.3108 14.5314 18.4531 14.6657C18.5955 14.8 18.6667 14.9591 18.6667 15.1429V15.8214H1.33333V15.1429C1.33333 14.9591 1.40451 14.8 1.54688 14.6657C1.68924 14.5314 1.85764 14.4643 2.05208 14.4643H2.66667V6.78571ZM19.2812 16.5C19.4757 16.5 19.6441 16.5672 19.7865 16.7015C19.9288 16.8358 20 16.9948 20 17.1786V18H0L0 17.1786C0 16.9948 0.0711806 16.8358 0.213542 16.7015C0.355903 16.5672 0.524306 16.5 0.71875 16.5H19.2812Z" fill="#8D2C2C"/>
</svg>
