<svg width="18" height="18" viewBox="0 0 18 18" fill="none" xmlns="http://www.w3.org/2000/svg">
<path fill-rule="evenodd" clip-rule="evenodd" d="M15.3111 2.64805C13.8415 1.16659 11.9018 0.245078 9.82641 0.0423731C7.75106 -0.160331 5.67013 0.368479 3.94236 1.53764C2.21459 2.70679 0.948258 4.44303 0.361691 6.44702C-0.224877 8.451 -0.0949268 10.5972 0.729138 12.5155C0.815027 12.6938 0.843209 12.8945 0.809751 13.0896L0.0215361 16.884C-0.00883149 17.0295 -0.00263037 17.1803 0.0395823 17.3228C0.0817949 17.4653 0.158696 17.595 0.263375 17.7003C0.349187 17.7857 0.451359 17.8527 0.563733 17.8974C0.676108 17.9421 0.796357 17.9636 0.917235 17.9605H1.09637L4.92997 17.189C5.12481 17.1656 5.32239 17.1934 5.50321 17.2698C7.41867 18.0951 9.56161 18.2252 11.5626 17.6378C13.5636 17.0503 15.2972 15.7821 16.4647 14.0517C17.6321 12.3214 18.1601 10.2373 17.9577 8.1589C17.7553 6.08044 16.8351 4.13784 15.3559 2.66599L15.3111 2.64805ZM14.8396 13.1227C15.464 12.2357 15.8794 11.2183 16.0545 10.1473C16.2388 9.02306 16.1531 7.87105 15.8046 6.78656C15.4561 5.70206 14.8548 4.71625 14.0504 3.91067C13.246 3.10508 12.2617 2.50286 11.1788 2.15384C10.0959 1.80481 8.94563 1.719 7.82307 1.90351C6.75363 2.0789 5.73783 2.49493 4.85213 3.1203C3.96643 3.74567 3.23389 4.56408 2.70966 5.51395C2.18542 6.46382 1.88314 7.52041 1.82556 8.60419C1.76798 9.68796 1.9566 10.7707 2.37722 11.7709C2.60146 12.2809 2.66701 12.8467 2.56532 13.3946L2.05477 15.9242L4.58064 15.4129C4.74633 15.3842 4.91409 15.3692 5.08224 15.3681C5.46714 15.3711 5.84765 15.4504 6.20186 15.6013C7.20059 16.0225 8.28171 16.2114 9.36387 16.1538C10.446 16.0961 11.501 15.7934 12.4495 15.2684C13.3979 14.7433 14.2151 14.0097 14.8396 13.1227Z" fill="#8D2C2C"/>
<path d="M6.32153 9.01978C6.32153 9.51683 5.91859 9.91978 5.42153 9.91978C4.92448 9.91978 4.52153 9.51683 4.52153 9.01978C4.52153 8.52272 4.92448 8.11977 5.42153 8.11977C5.91859 8.11977 6.32153 8.52272 6.32153 9.01978Z" fill="#8D2C2C"/>
<path d="M9.92153 9.01978C9.92153 9.51683 9.51859 9.91978 9.02153 9.91978C8.52448 9.91978 8.12153 9.51683 8.12153 9.01978C8.12153 8.52272 8.52448 8.11977 9.02153 8.11977C9.51859 8.11977 9.92153 8.52272 9.92153 9.01978Z" fill="#8D2C2C"/>
<path d="M13.5215 9.01978C13.5215 9.51683 13.1186 9.91978 12.6215 9.91978C12.1245 9.91978 11.7215 9.51683 11.7215 9.01978C11.7215 8.52272 12.1245 8.11977 12.6215 8.11977C13.1186 8.11977 13.5215 8.52272 13.5215 9.01978Z" fill="#8D2C2C"/>
</svg>
