<svg width="8" height="8" viewBox="0 0 8 8" fill="none" xmlns="http://www.w3.org/2000/svg">
<path fill-rule="evenodd" clip-rule="evenodd" d="M7.46116 3.99999C7.46116 5.91175 5.91138 7.46153 3.99962 7.46153C2.08787 7.46153 0.538086 5.91175 0.538086 3.99999C0.538086 2.08824 2.08787 0.538452 3.99962 0.538452C5.91138 0.538452 7.46116 2.08824 7.46116 3.99999ZM1.85858 4.00817C1.75105 4.1157 1.75104 4.29004 1.85857 4.39757L2.99896 5.53797C3.12185 5.66087 3.3211 5.66087 3.44399 5.53797L6.14201 2.83995C6.24954 2.73242 6.24954 2.55808 6.14201 2.45055C6.03448 2.34302 5.86014 2.34302 5.75261 2.45055L3.22149 4.98167L2.24798 4.00817C2.14045 3.90063 1.96611 3.90063 1.85858 4.00817Z" fill="#F9F8F7"/>
</svg>
