<svg width="22" height="22" viewBox="0 0 22 22" fill="none" xmlns="http://www.w3.org/2000/svg">
<path d="M9.13678 6.51405C9.48701 6.18884 9.50729 5.64128 9.18207 5.29105C8.85686 4.94082 8.30931 4.92054 7.95907 5.24576L4.93023 8.05826C4.75389 8.222 4.6537 8.45177 4.6537 8.6924C4.6537 8.93304 4.75389 9.16281 4.93023 9.32655L7.95907 12.1391C8.30931 12.4643 8.85686 12.444 9.18207 12.0938C9.50729 11.7435 9.48701 11.196 9.13678 10.8708L6.79086 8.6924L9.13678 6.51405Z" fill="#E14A48"/>
<path d="M14.0406 5.24576C13.6904 4.92054 13.1428 4.94082 12.8176 5.29105C12.4924 5.64128 12.5127 6.18884 12.8629 6.51405L15.2088 8.6924L12.8629 10.8708C12.5127 11.196 12.4924 11.7435 12.8176 12.0938C13.1428 12.444 13.6904 12.4643 14.0406 12.1391L17.0695 9.32655C17.2458 9.16281 17.346 8.93304 17.346 8.6924C17.346 8.45177 17.2458 8.222 17.0695 8.05826L14.0406 5.24576Z" fill="#E14A48"/>
<path fill-rule="evenodd" clip-rule="evenodd" d="M1.76908 0.615479C1.13183 0.615479 0.615234 1.13207 0.615234 1.76932V15.6155C0.615234 16.2527 1.13183 16.7693 1.76908 16.7693H9.846V19.077H5.23062C4.59337 19.077 4.07677 19.5936 4.07677 20.2309C4.07677 20.8681 4.59337 21.3847 5.23062 21.3847H16.7691C17.4063 21.3847 17.9229 20.8681 17.9229 20.2309C17.9229 19.5936 17.4063 19.077 16.7691 19.077H12.1537V16.7693H20.2306C20.8679 16.7693 21.3845 16.2527 21.3845 15.6155V1.76932C21.3845 1.13207 20.8679 0.615479 20.2306 0.615479H1.76908ZM2.92293 2.92317V14.4616H19.0768V2.92317H2.92293Z" fill="#E14A48"/>
</svg>
