<svg width="535" height="581" viewBox="0 0 535 581" fill="none" xmlns="http://www.w3.org/2000/svg">
<path d="M450.851 314.895L357.111 279.445C350.634 276.996 347.369 269.759 349.818 263.283L398.888 133.542C401.338 127.065 408.574 123.799 415.053 126.249L474.503 148.732L502.583 213.562L467.015 307.603C464.566 314.079 457.329 317.344 450.851 314.895Z" fill="#F5F5F5"/>
<path d="M474.501 148.731L460.691 185.245C458.412 191.268 461.448 198 467.473 200.279L502.582 213.562L474.501 148.731Z" fill="#EBEBEB"/>
<path d="M459.963 188.63C459.963 188.63 456.153 197.311 465.134 204.036C465.471 204.288 465.828 204.517 466.19 204.732C470.463 207.286 498.614 224.067 498.876 223.374C499.159 222.624 502.587 213.561 502.587 213.561L467.475 200.284C467.475 200.284 458.822 196.669 459.963 188.63Z" fill="#E0E0E0"/>
<path d="M453.398 180.782C453.221 181.251 443.368 177.96 431.394 173.431C419.416 168.902 409.853 164.851 410.03 164.382C410.208 163.912 420.059 167.203 432.036 171.732C444.011 176.26 453.576 180.312 453.398 180.782Z" fill="#E0E0E0"/>
<path d="M473.596 212.02C473.418 212.489 457.296 206.827 437.588 199.373C417.875 191.918 402.042 185.497 402.22 185.028C402.398 184.558 418.518 190.219 438.23 197.674C457.939 205.127 473.774 211.551 473.596 212.02Z" fill="#E0E0E0"/>
<path d="M473.505 231.69C473.327 232.159 455.764 225.952 434.282 217.829C412.794 209.703 395.523 202.736 395.701 202.267C395.877 201.798 413.436 208.004 434.925 216.13C456.408 224.253 473.682 231.221 473.505 231.69Z" fill="#E0E0E0"/>
<path d="M467.352 247.954C467.174 248.423 449.612 242.217 428.13 234.093C406.641 225.966 389.37 219 389.548 218.531C389.725 218.061 407.283 224.267 428.773 232.394C450.255 240.517 467.53 247.484 467.352 247.954Z" fill="#E0E0E0"/>
<path d="M461.2 264.219C461.022 264.688 443.46 258.482 421.978 250.358C400.488 242.232 383.218 235.265 383.396 234.796C383.572 234.327 401.131 240.533 422.621 248.66C444.102 256.782 461.378 263.75 461.2 264.219Z" fill="#E0E0E0"/>
<path d="M455.051 280.485C454.873 280.954 437.311 274.747 415.829 266.624C394.339 258.496 377.07 251.531 377.247 251.062C377.424 250.593 394.982 256.797 416.472 264.924C437.953 273.048 455.229 280.016 455.051 280.485Z" fill="#E0E0E0"/>
<path d="M205.705 372.733L82.1285 416.004C77.8529 417.5 73.1739 415.249 71.6774 410.975L9.6738 233.924C8.1773 229.65 10.4291 224.97 14.7047 223.473L138.281 180.202C142.557 178.705 147.236 180.958 148.734 185.232L210.735 362.283C212.233 366.558 209.981 371.237 205.705 372.733Z" fill="#EBEBEB"/>
<path d="M201.328 366.699L81.7827 408.559L20.3281 233.067L139.872 191.209L201.328 366.699Z" fill="#E0E0E0"/>
<path d="M198.014 362.517L78.4704 404.377L18.1875 232.237L137.731 190.378L198.014 362.517Z" fill="#FAFAFA"/>
<path d="M198.015 362.517C197.51 361.08 173.236 291.972 137.571 190.435L137.789 190.54C101.533 203.24 60.9701 217.449 18.265 232.409L18.2509 232.415L18.3656 232.175C40.8982 296.835 61.8711 356.547 78.6149 404.327L78.4216 404.234C151.134 378.871 196.842 362.926 198.015 362.517C196.845 362.929 151.173 378.982 78.5208 404.52L78.379 404.57L78.3288 404.427C61.5862 356.65 40.661 296.934 18.0111 232.3L17.9492 232.122L18.1271 232.06L18.1413 232.055C60.8502 217.106 101.417 202.908 137.676 190.216L137.838 190.159L137.895 190.322C173.369 291.926 197.513 361.08 198.015 362.517Z" fill="#E0E0E0"/>
<path d="M155.613 377.365C155.613 377.365 182.236 354.915 186.849 331.531C186.849 331.531 179.459 343.118 164.091 345.233C164.091 345.233 163.557 369.783 155.613 377.365Z" fill="#E0E0E0"/>
<path d="M64.1679 285.207L57.8726 287.411C55.5756 288.216 53.0621 287.007 52.2578 284.708L50.0536 278.413C49.2493 276.118 50.4583 273.603 52.7553 272.799L59.0507 270.595C61.3476 269.791 63.8624 271.001 64.6668 273.298L66.8709 279.593C67.6752 281.888 66.4649 284.403 64.1679 285.207Z" fill="#EBEBEB"/>
<path d="M58.2842 281.429C58.2817 281.43 58.2778 281.431 58.2726 281.433C58.1773 281.462 58.0716 281.452 57.9839 281.401L55.1018 279.729C54.929 279.63 54.871 279.409 54.9703 279.236C55.0708 279.065 55.2912 279.006 55.464 279.105L58.0058 280.578L61.0504 274.067C61.1342 273.886 61.3494 273.809 61.5299 273.893C61.7103 273.978 61.7877 274.192 61.7039 274.372L58.4918 281.241C58.4505 281.33 58.3758 281.397 58.2842 281.429Z" fill="white"/>
<path d="M140.838 243.953C140.873 244.051 125.347 249.576 106.167 256.293C86.978 263.012 71.4008 268.376 71.3672 268.278C71.3324 268.18 86.8543 262.656 106.042 255.938C125.223 249.222 140.804 243.855 140.838 243.953Z" fill="#E0E0E0"/>
<path d="M104.38 268.716C104.389 268.741 103.986 268.907 103.253 269.188C102.458 269.482 101.407 269.871 100.136 270.343C97.5003 271.302 93.8486 272.602 89.8077 274.018C85.7654 275.433 82.0996 276.695 79.4392 277.589C78.1528 278.014 77.0894 278.365 76.2837 278.632C75.5361 278.869 75.1185 278.99 75.1095 278.966C75.1018 278.941 75.5026 278.774 76.2361 278.493C77.0313 278.199 78.0819 277.809 79.3515 277.339C81.9887 276.379 85.6404 275.078 89.6839 273.663C93.7236 272.248 97.3894 270.987 100.05 270.092C101.336 269.668 102.4 269.316 103.205 269.05C103.953 268.812 104.372 268.692 104.38 268.716Z" fill="#E0E0E0"/>
<path d="M142.494 248.689C142.529 248.787 127.003 254.312 107.823 261.029C88.6356 267.748 73.0583 273.112 73.0235 273.014C72.99 272.916 88.5106 267.392 107.698 260.674C126.88 253.958 142.461 248.591 142.494 248.689Z" fill="#E0E0E0"/>
<path d="M73.1523 310.856L66.8569 313.06C64.56 313.864 62.0465 312.655 61.2421 310.357L59.038 304.062C58.2337 301.765 59.4427 299.252 61.7397 298.447L68.035 296.243C70.332 295.439 72.8468 296.649 73.6511 298.946L75.8553 305.241C76.6596 307.538 75.4492 310.051 73.1523 310.856Z" fill="#EBEBEB"/>
<path d="M67.2686 307.077C67.266 307.079 67.2622 307.08 67.257 307.081C67.1616 307.111 67.0559 307.101 66.9683 307.049L64.0861 305.379C63.9134 305.278 63.8554 305.058 63.9547 304.885C64.0552 304.712 64.2756 304.653 64.4483 304.753L66.9902 306.227L70.0348 299.715C70.1185 299.535 70.3338 299.457 70.5143 299.541C70.6947 299.626 70.772 299.841 70.6883 300.021L67.4761 306.889C67.4349 306.978 67.3601 307.045 67.2686 307.077Z" fill="white"/>
<path d="M149.818 269.601C149.852 269.699 134.327 275.224 115.148 281.941C95.9585 288.66 80.3812 294.024 80.3477 293.926C80.3142 293.828 95.8348 288.304 115.022 281.585C134.204 274.87 149.785 269.503 149.818 269.601Z" fill="#E0E0E0"/>
<path d="M113.36 294.365C113.369 294.391 112.967 294.555 112.233 294.836C111.438 295.132 110.388 295.52 109.117 295.991C106.481 296.95 102.829 298.252 98.7881 299.666C94.7459 301.082 91.0801 302.343 88.4196 303.239C87.1345 303.663 86.0698 304.013 85.2642 304.28C84.5166 304.519 84.099 304.639 84.09 304.614C84.0822 304.59 84.4831 304.423 85.2165 304.142C86.0118 303.847 87.0623 303.459 88.332 302.987C90.9692 302.029 94.6209 300.728 98.6644 299.312C102.704 297.896 106.37 296.636 109.03 295.74C110.317 295.316 111.38 294.965 112.186 294.699C112.933 294.46 113.352 294.34 113.36 294.365Z" fill="#E0E0E0"/>
<path d="M151.475 274.337C151.509 274.435 135.984 279.961 116.804 286.677C97.616 293.395 82.0388 298.761 82.004 298.663C81.9704 298.565 97.491 293.041 116.679 286.322C135.86 279.606 151.441 274.239 151.475 274.337Z" fill="#E0E0E0"/>
<path d="M82.1328 336.502L75.8374 338.706C73.5404 339.51 71.0269 338.301 70.2226 336.003L68.0185 329.708C67.2141 327.412 68.4232 324.898 70.7202 324.094L77.0155 321.89C79.3125 321.086 81.8273 322.296 82.6316 324.593L84.8358 330.888C85.6401 333.183 84.4297 335.698 82.1328 336.502Z" fill="#EBEBEB"/>
<path d="M76.25 332.726C76.2461 332.727 76.2423 332.728 76.2384 332.73C76.1417 332.759 76.036 332.749 75.9497 332.697L73.0662 331.027C72.8935 330.926 72.8355 330.706 72.936 330.533C73.0353 330.361 73.2557 330.301 73.4284 330.402L75.9703 331.875L79.0161 325.364C79.0999 325.183 79.3139 325.106 79.4943 325.19C79.6748 325.275 79.7534 325.49 79.6684 325.669L76.4575 332.538C76.4163 332.627 76.3415 332.695 76.25 332.726Z" fill="white"/>
<path d="M158.803 295.25C158.838 295.347 143.312 300.873 124.132 307.588C104.943 314.307 89.3656 319.673 89.3321 319.575C89.2973 319.477 104.819 313.953 124.007 307.235C143.188 300.519 158.769 295.152 158.803 295.25Z" fill="#E0E0E0"/>
<path d="M122.341 320.013C122.35 320.039 121.947 320.204 121.214 320.485C120.419 320.78 119.368 321.168 118.097 321.64C115.461 322.599 111.81 323.9 107.769 325.314C103.726 326.731 100.061 327.991 97.4001 328.887C96.1137 329.311 95.0503 329.662 94.2447 329.929C93.4971 330.167 93.0794 330.287 93.0704 330.262C93.0627 330.238 93.4636 330.072 94.197 329.791C94.9923 329.496 96.0428 329.108 97.3124 328.636C99.9497 327.677 103.601 326.376 107.645 324.96C111.685 323.545 115.35 322.284 118.011 321.388C119.297 320.964 120.361 320.614 121.166 320.347C121.914 320.109 122.333 319.989 122.341 320.013Z" fill="#E0E0E0"/>
<path d="M160.455 299.986C160.49 300.084 144.964 305.608 125.784 312.324C106.597 319.043 91.0192 324.409 90.9844 324.311C90.9509 324.213 106.473 318.689 125.659 311.971C144.84 305.255 160.422 299.888 160.455 299.986Z" fill="#E0E0E0"/>
<path d="M91.1132 362.151L84.8179 364.355C82.5209 365.159 80.0074 363.95 79.2031 361.652L76.9989 355.357C76.1946 353.06 77.4037 350.547 79.7006 349.742L85.996 347.538C88.2929 346.734 90.8077 347.944 91.612 350.241L93.8162 356.536C94.6205 358.832 93.4102 361.346 91.1132 362.151Z" fill="#EBEBEB"/>
<path d="M85.2335 358.374C85.2296 358.376 85.227 358.377 85.2219 358.378C85.1265 358.408 85.0208 358.397 84.9331 358.346L82.051 356.675C81.8783 356.575 81.8203 356.355 81.9195 356.182C82.0188 356.009 82.2405 355.951 82.4132 356.05L84.955 357.524L87.9996 351.012C88.0834 350.832 88.2987 350.754 88.4791 350.838C88.6596 350.923 88.7369 351.137 88.6531 351.318L85.441 358.186C85.3997 358.275 85.325 358.342 85.2335 358.374Z" fill="white"/>
<path d="M167.783 320.898C167.817 320.996 152.292 326.52 133.112 333.237C113.923 339.956 98.3461 345.321 98.3126 345.223C98.2778 345.125 113.8 339.601 132.987 332.883C152.169 326.167 167.748 320.8 167.783 320.898Z" fill="#E0E0E0"/>
<path d="M131.321 345.662C131.33 345.687 130.928 345.852 130.194 346.133C129.399 346.429 128.349 346.817 127.078 347.288C124.442 348.247 120.79 349.549 116.749 350.963C112.707 352.378 109.041 353.64 106.381 354.536C105.094 354.96 104.031 355.31 103.225 355.577C102.478 355.816 102.06 355.935 102.051 355.911C102.043 355.886 102.444 355.72 103.177 355.439C103.973 355.144 105.023 354.756 106.293 354.284C108.93 353.324 112.582 352.025 116.625 350.608C120.665 349.193 124.331 347.933 126.991 347.037C128.278 346.613 129.341 346.261 130.147 345.996C130.894 345.757 131.313 345.637 131.321 345.662Z" fill="#E0E0E0"/>
<path d="M169.439 325.634C169.474 325.732 153.949 331.256 134.769 337.973C115.581 344.692 100.004 350.058 99.9688 349.96C99.9353 349.862 115.456 344.337 134.644 337.62C153.825 330.903 169.406 325.536 169.439 325.634Z" fill="#E0E0E0"/>
<path d="M31.7266 215.468L34.882 224.479C36.7136 229.707 42.4367 232.462 47.666 230.631L113.787 207.478C119.016 205.647 121.771 199.924 119.939 194.695L116.79 185.702L31.7266 215.468Z" fill="#E0E0E0"/>
<path d="M70.1116 188.903C67.0941 189.959 65.4984 193.274 66.5553 196.292C67.6123 199.309 70.9263 200.905 73.945 199.848C76.9613 198.791 78.557 195.477 77.5 192.459C76.4444 189.441 73.1291 187.846 70.1116 188.903ZM75.1361 203.252C70.2418 204.966 64.8642 202.379 63.1499 197.484C61.4368 192.589 64.0238 187.212 68.9193 185.497C73.8149 183.784 79.1912 186.372 80.9055 191.266C82.6199 196.162 80.0316 201.538 75.1361 203.252" fill="#E0E0E0"/>
<path d="M127.993 226.627C128.052 226.798 110.618 233.059 89.0564 240.609C67.4867 248.162 49.9592 254.144 49.8986 253.971C49.8393 253.801 67.2701 247.542 88.8399 239.989C110.401 232.439 127.933 226.456 127.993 226.627Z" fill="#E0E0E0"/>
<path d="M105.664 229.833C105.723 230.004 98.0486 232.848 88.5244 236.183C78.995 239.519 71.225 242.084 71.1644 241.914C71.1038 241.742 78.7784 238.899 88.3065 235.562C97.8321 232.228 105.605 229.662 105.664 229.833Z" fill="#E0E0E0"/>
<path d="M433.426 73.5029L431.018 73.7917C410.72 76.2174 393.197 89.3164 385.999 108.25C385.074 110.684 384.324 113.186 383.767 115.735C379.745 134.097 385.784 154.406 399.25 167.804C407.169 175.683 417.694 181.661 422.199 191.833C428.062 205.072 421.61 220.096 415.256 232.995C408.904 245.894 402.485 260.945 408.408 274.16C412.116 282.436 420.133 288.172 428.623 291.497C451.104 300.303 477.682 293.925 496.275 278.904C514.869 263.885 526.147 241.381 531.527 218.143C539.065 185.589 535.441 149.728 517.684 121.096C499.929 92.4639 467.147 72.3674 433.426 73.5029Z" fill="#F5F5F5"/>
<path d="M77.8412 401.766L80.2529 402.025C100.577 404.211 120.593 395.376 131.852 378.539C133.299 376.374 134.592 374.104 135.708 371.744C143.744 354.752 142.412 333.605 132.294 317.53C126.344 308.076 117.428 299.89 115.318 288.967C112.573 274.75 122.231 261.556 131.314 250.41C140.398 239.263 150.028 226.035 147.22 211.829C145.462 202.932 138.937 195.545 131.408 190.4C111.473 176.777 84.1443 177.035 62.6557 187.502C41.1672 197.971 25.1285 217.374 14.6749 238.812C0.0282308 268.847 -4.48061 304.608 6.40222 336.491C17.2851 368.376 44.7248 395.311 77.8412 401.766Z" fill="#F5F5F5"/>
<path d="M485.52 374.474C485.52 393.903 469.769 409.652 450.34 409.652C430.91 409.652 415.16 393.903 415.16 374.474C415.16 355.047 430.91 339.296 450.34 339.296C469.769 339.296 485.52 355.047 485.52 374.474Z" fill="#F5F5F5"/>
<path d="M449.185 491.007C453.815 488.618 459.265 488.308 464.405 489.158C467.166 489.614 470.044 490.441 471.924 492.514C473.803 494.588 474.158 498.237 472.001 500.019C470.716 501.08 468.926 501.241 467.259 501.223C463.236 501.175 458.772 500.466 455.558 502.888C453.723 504.269 452.504 506.564 450.311 507.243C448.167 507.907 445.746 506.643 444.608 504.707C443.47 502.771 443.432 500.35 443.963 498.17C443.963 498.17 444.521 493.412 449.185 491.007" fill="url(#paint0_linear_1236_2105)"/>
<path d="M438.579 470.534C441.409 474.577 446.912 473.239 449.461 470.772C452.014 468.304 453.091 464.726 454.073 461.317C456.316 453.524 458.577 445.349 456.909 437.413C456.41 435.041 455.524 432.675 453.857 430.915C452.189 429.155 449.625 428.107 447.281 428.726C444.508 429.46 442.783 432.176 441.537 434.76C437.874 442.358 435.934 450.78 435.907 459.213C435.892 463.151 436.356 467.283 438.579 470.534Z" fill="url(#paint1_linear_1236_2105)"/>
<path d="M430.804 476.334C433.879 472.687 434.461 467.366 433.094 462.797C431.726 458.228 428.636 454.34 425.076 451.167C420.9 447.446 415.993 444.55 410.717 442.695C408.642 441.966 406.451 441.389 404.259 441.598C402.069 441.807 399.863 442.927 398.84 444.877C397.33 447.758 398.779 451.253 400.346 454.106C403.107 459.129 406.262 463.936 409.777 468.467C412.603 472.11 415.842 475.705 420.148 477.351C424.456 478.997 428.932 478.805 431.214 475.817" fill="url(#paint2_linear_1236_2105)"/>
<path d="M438.388 531.52C438.441 531.523 438.526 530.869 438.643 529.683C438.773 528.346 438.937 526.667 439.132 524.67C439.365 522.56 439.673 520.05 440.26 517.316C440.844 514.589 441.757 511.633 442.932 508.636C444.149 505.658 445.632 502.95 447.365 500.783C449.085 498.609 451.087 497.034 452.969 496.125C454.843 495.198 456.524 494.823 457.688 494.656C458.86 494.536 459.516 494.443 459.517 494.391C459.517 494.339 458.86 494.33 457.655 494.363C456.461 494.442 454.71 494.745 452.734 495.643C450.752 496.522 448.628 498.122 446.823 500.342C445.004 502.553 443.467 505.32 442.228 508.353C441.034 511.404 440.133 514.389 439.575 517.174C439.018 519.955 438.764 522.493 438.597 524.62C438.438 526.749 438.378 528.474 438.349 529.666C438.322 530.857 438.337 531.517 438.388 531.52Z" fill="#303030"/>
<path d="M438.733 527.662C438.76 527.661 438.776 527.367 438.782 526.809C438.781 526.168 438.778 525.363 438.776 524.372C438.77 522.256 438.77 519.195 438.884 515.415C439.072 507.854 439.723 499.717 440.98 488.246C442.171 477.459 443.769 464.906 445.456 456.744C445.817 454.887 446.181 453.217 446.525 451.754C446.852 450.289 447.131 449.024 447.4 448.002C447.631 447.039 447.82 446.255 447.97 445.633C448.092 445.089 448.144 444.799 448.118 444.792C448.094 444.785 447.993 445.059 447.823 445.59C447.636 446.205 447.403 446.977 447.115 447.927C446.801 448.94 446.48 450.195 446.113 451.656C445.73 453.112 445.328 454.779 444.932 456.632C443.263 464.028 441.497 474.364 440.226 485.863C438.966 497.357 438.399 507.825 438.349 515.405C438.304 519.194 438.384 522.263 438.482 524.379C438.542 525.369 438.591 526.176 438.63 526.815C438.672 527.371 438.706 527.663 438.733 527.662Z" fill="#303030"/>
<path d="M438.783 507.475C438.836 507.473 438.827 506.569 438.765 504.928C438.673 503.292 438.447 500.927 437.987 498.03C437.498 495.14 436.815 491.708 435.743 487.979C435.277 486.274 434.186 482.189 431.539 476.085C428.053 467.814 423.316 461.054 419.196 456.865C418.229 455.754 417.153 454.952 416.292 454.167C415.846 453.791 415.452 453.414 415.051 453.117C414.647 452.838 414.271 452.579 413.924 452.341C412.568 451.413 411.808 450.923 411.781 450.967C411.658 451.133 414.818 452.992 418.807 457.236C422.781 461.471 427.385 468.186 430.843 476.386C432.772 480.834 434.116 484.802 435.07 488.169C436.173 491.863 436.905 495.26 437.458 498.121C437.984 500.99 438.288 503.331 438.473 504.952C438.624 506.576 438.732 507.477 438.783 507.475Z" fill="#303030"/>
<path d="M419.27 543.085L421.292 570.799H456.897L458.921 543.085H419.27Z" fill="#303030"/>
<path d="M415.828 543.086H463.167V532.163H415.828V543.086Z" fill="#303030"/>
<path d="M415.828 569.737V572.766H418.053H462.383V569.737H415.828Z" fill="#4F4F4F"/>
<path d="M420.234 578.094L418.055 572.764H460.69L458.146 578.094H420.234Z" fill="#4F4F4F"/>
<path d="M458.257 552.141C458.265 552.148 458.208 552.234 458.09 552.395C457.95 552.584 457.773 552.816 457.558 553.102C457.052 553.749 456.358 554.638 455.484 555.757L455.391 555.874L455.302 555.75C453.998 553.947 452.258 551.538 450.207 548.703H450.5C448.985 550.85 447.297 553.241 445.483 555.807L445.326 556.03L445.15 555.82C443.299 553.617 441.287 551.225 439.201 548.74L439.542 548.736C439.439 548.866 439.327 549.007 439.216 549.149C437.37 551.462 435.585 553.7 433.896 555.817L433.719 556.039L433.555 555.808C431.749 553.252 430.06 550.865 428.534 548.707L428.827 548.721C426.353 551.538 424.255 553.929 422.645 555.763L422.535 555.888L422.453 555.748C421.637 554.378 420.987 553.287 420.517 552.495C420.313 552.143 420.151 551.858 420.019 551.631C419.911 551.431 419.858 551.327 419.868 551.32C419.877 551.315 419.947 551.409 420.076 551.595C420.219 551.814 420.401 552.09 420.625 552.429C421.119 553.206 421.802 554.277 422.657 555.621L422.463 555.606C424.047 553.749 426.112 551.329 428.546 548.477L428.699 548.298L428.838 548.491C430.377 550.64 432.08 553.017 433.902 555.56L433.561 555.552C435.246 553.432 437.027 551.189 438.869 548.873C438.981 548.731 439.094 548.591 439.197 548.462L439.366 548.248L439.54 548.456C441.621 550.944 443.626 553.343 445.473 555.549L445.14 555.562C446.97 553.009 448.676 550.63 450.207 548.495L450.355 548.288L450.5 548.495C452.508 551.362 454.212 553.795 455.489 555.618L455.308 555.612C456.216 554.523 456.939 553.657 457.465 553.027C457.699 552.756 457.889 552.536 458.043 552.358C458.177 552.208 458.248 552.135 458.257 552.141Z" fill="#E0E0E0"/>
<path d="M459.42 542.901C459.42 543.024 450.498 543.123 439.495 543.123C428.489 543.123 419.57 543.024 419.57 542.901C419.57 542.779 428.489 542.68 439.495 542.68C450.498 542.68 459.42 542.779 459.42 542.901Z" fill="#4F4F4F"/>
<path d="M461.215 573.064C461.215 573.186 451.52 573.285 439.561 573.285C427.601 573.285 417.906 573.186 417.906 573.064C417.906 572.941 427.601 572.842 439.561 572.842C451.52 572.842 461.215 572.941 461.215 573.064Z" fill="#303030"/>
<path d="M109.983 484.65C109.885 484.771 109.073 484.282 108.168 483.558C107.263 482.833 106.607 482.148 106.705 482.025C106.803 481.904 107.615 482.393 108.52 483.118C109.425 483.841 110.081 484.527 109.983 484.65Z" fill="#303030"/>
<path d="M134.678 447.745C134.827 444.296 134.924 440.76 133.836 437.485C132.747 434.21 130.222 431.198 126.842 430.498C122.984 429.699 119.032 432.135 116.871 435.427C114.709 438.72 113.966 442.719 113.327 446.605C108.928 473.389 107.304 500.627 108.488 527.744L124.273 529.957C131.207 501.635 133.417 476.878 134.678 447.745Z" fill="#4F4F4F"/>
<path d="M124.649 430.374C124.658 430.38 124.633 430.463 124.577 430.626C124.507 430.82 124.421 431.054 124.316 431.342C124.059 432.01 123.708 432.92 123.265 434.068C123.044 434.663 122.752 435.306 122.517 436.04C122.281 436.779 122.025 437.577 121.75 438.431C121.474 439.291 121.179 440.207 120.866 441.177C120.608 442.165 120.336 443.211 120.051 444.306C118.86 448.681 117.873 453.997 117.001 459.926C116.148 465.862 115.587 472.436 115.147 479.344C114.34 493.173 114.213 505.726 113.858 514.804C113.69 519.342 113.534 523.015 113.36 525.551C113.278 526.78 113.21 527.755 113.163 528.469C113.136 528.774 113.115 529.023 113.097 529.227C113.079 529.397 113.065 529.486 113.055 529.484C113.046 529.484 113.04 529.395 113.039 529.223C113.042 529.018 113.046 528.769 113.049 528.464C113.071 527.747 113.102 526.771 113.141 525.54C113.247 523.002 113.342 519.33 113.459 514.791C113.713 505.716 113.775 493.162 114.585 479.31C115.025 472.391 115.603 465.802 116.487 459.853C117.389 453.911 118.421 448.581 119.666 444.203C119.965 443.109 120.251 442.063 120.522 441.075C120.85 440.106 121.16 439.19 121.452 438.333C121.742 437.481 122.013 436.685 122.264 435.949C122.516 435.218 122.824 434.579 123.061 433.988C123.547 432.854 123.93 431.956 124.212 431.297C124.338 431.018 124.44 430.789 124.525 430.604C124.597 430.449 124.64 430.371 124.649 430.374Z" fill="#303030"/>
<path d="M126.111 430.385C126.111 430.385 127.079 431.379 128.04 433.651C129.033 435.904 129.656 439.487 129.479 443.862C129.06 452.584 128.279 464.601 127.24 477.871C126.196 491.141 125.04 503.137 124.108 511.81C123.643 516.145 123.239 519.652 122.943 522.072C122.792 523.244 122.672 524.173 122.585 524.858C122.541 525.146 122.506 525.383 122.478 525.579C122.451 525.742 122.431 525.825 122.422 525.824C122.412 525.823 122.412 525.738 122.42 525.574C122.434 525.376 122.451 525.137 122.471 524.845C122.534 524.158 122.618 523.224 122.724 522.048C122.962 519.569 123.299 516.07 123.712 511.77C124.541 503.089 125.634 491.092 126.678 477.826C127.716 464.565 128.56 452.541 129.081 443.848C129.305 439.505 128.752 435.981 127.836 433.732C126.953 431.469 126.042 430.426 126.111 430.385Z" fill="#303030"/>
<path d="M137.056 471.236C137.003 471.382 135.664 471.036 134.064 470.462C132.465 469.888 131.21 469.304 131.263 469.158C131.315 469.01 132.654 469.358 134.255 469.932C135.855 470.505 137.109 471.089 137.056 471.236Z" fill="#303030"/>
<path d="M138.959 455.149C139.022 455.291 137.749 456 136.113 456.732C134.477 457.464 133.101 457.941 133.037 457.799C132.973 457.656 134.248 456.949 135.884 456.217C137.518 455.486 138.896 455.008 138.959 455.149Z" fill="#303030"/>
<path d="M137.968 442.02C137.958 442.176 136.904 442.23 135.616 442.141C134.326 442.051 133.291 441.853 133.301 441.697C133.311 441.543 134.366 441.489 135.655 441.578C136.944 441.668 137.979 441.865 137.968 442.02Z" fill="#303030"/>
<path d="M121.682 433.608C121.55 433.69 120.859 432.829 120.139 431.685C119.418 430.539 118.94 429.544 119.073 429.46C119.204 429.378 119.895 430.239 120.616 431.383C121.336 432.529 121.815 433.525 121.682 433.608Z" fill="#303030"/>
<path d="M116.297 441.547C116.293 441.701 115.289 441.807 114.055 441.781C112.819 441.754 111.822 441.607 111.824 441.451C111.828 441.295 112.832 441.191 114.067 441.217C115.302 441.244 116.3 441.391 116.297 441.547Z" fill="#303030"/>
<path d="M112.432 457.432C112.374 457.576 111.317 457.286 110.073 456.785C108.828 456.282 107.866 455.757 107.924 455.614C107.982 455.47 109.039 455.759 110.283 456.261C111.528 456.763 112.49 457.287 112.432 457.432Z" fill="#303030"/>
<path d="M112.02 470.789C112.052 470.941 111.153 471.258 110.012 471.498C108.871 471.738 107.92 471.809 107.888 471.655C107.855 471.503 108.755 471.186 109.896 470.946C111.037 470.708 111.988 470.637 112.02 470.789Z" fill="#303030"/>
<path d="M110.201 492.639C110.228 492.793 109.274 493.092 108.069 493.308C106.864 493.523 105.865 493.575 105.836 493.42C105.809 493.267 106.763 492.968 107.97 492.753C109.175 492.536 110.174 492.486 110.201 492.639Z" fill="#303030"/>
<path d="M108.996 504.702C109.068 504.838 108.271 505.403 107.218 505.961C106.163 506.518 105.249 506.859 105.177 506.721C105.103 506.583 105.9 506.019 106.954 505.462C108.008 504.904 108.922 504.564 108.996 504.702Z" fill="#303030"/>
<path d="M118.847 518.392C118.713 518.469 118.018 517.511 117.297 516.254C116.577 514.995 116.103 513.911 116.238 513.835C116.372 513.756 117.065 514.714 117.787 515.973C118.508 517.232 118.982 518.313 118.847 518.392Z" fill="#303030"/>
<path d="M121.689 495.641C121.797 495.754 121.025 496.688 119.963 497.728C118.901 498.771 117.952 499.525 117.842 499.413C117.733 499.302 118.506 498.367 119.568 497.326C120.63 496.285 121.58 495.531 121.689 495.641Z" fill="#303030"/>
<path d="M121.058 483.704C120.944 483.811 120.227 483.222 119.458 482.391C118.687 481.561 118.156 480.8 118.269 480.695C118.384 480.589 119.101 481.177 119.871 482.009C120.641 482.839 121.172 483.599 121.058 483.704Z" fill="#303030"/>
<path d="M123.014 468.452C123.13 468.555 122.485 469.464 121.575 470.48C120.665 471.495 119.833 472.236 119.717 472.131C119.601 472.026 120.245 471.119 121.155 470.103C122.065 469.088 122.898 468.348 123.014 468.452Z" fill="#303030"/>
<path d="M124.115 457.381C124.007 457.492 123.107 456.786 122.108 455.804C121.108 454.823 120.386 453.936 120.495 453.824C120.605 453.713 121.503 454.419 122.504 455.403C123.503 456.385 124.224 457.27 124.115 457.381Z" fill="#303030"/>
<path d="M126.273 442.419C126.407 442.499 125.955 443.501 125.265 444.659C124.574 445.816 123.906 446.689 123.774 446.61C123.64 446.53 124.091 445.528 124.78 444.37C125.471 443.213 126.139 442.339 126.273 442.419Z" fill="#303030"/>
<path d="M130.341 428.553C130.478 428.628 130.078 429.632 129.449 430.796C128.82 431.961 128.199 432.844 128.062 432.769C127.924 432.697 128.324 431.693 128.953 430.528C129.583 429.364 130.205 428.478 130.341 428.553Z" fill="#303030"/>
<path d="M134.952 434.85C135.019 434.99 134.388 435.433 133.541 435.839C132.696 436.242 131.955 436.456 131.888 436.317C131.821 436.175 132.452 435.734 133.298 435.328C134.145 434.925 134.885 434.711 134.952 434.85Z" fill="#303030"/>
<path d="M135.062 484.65C135.032 484.796 133.6 484.6 131.975 483.903C130.345 483.212 129.214 482.315 129.297 482.191C129.385 482.054 130.619 482.716 132.195 483.384C133.769 484.06 135.099 484.493 135.062 484.65Z" fill="#303030"/>
<path d="M133.178 495.198C133.207 495.351 132.256 495.663 131.055 495.895C129.852 496.127 128.853 496.191 128.825 496.037C128.795 495.885 129.745 495.573 130.948 495.341C132.15 495.11 133.148 495.046 133.178 495.198Z" fill="#303030"/>
<path d="M130.861 513.284C130.77 513.401 129.563 512.575 128.457 511.173C127.344 509.777 126.815 508.414 126.95 508.353C127.096 508.278 127.827 509.48 128.899 510.823C129.963 512.173 130.967 513.159 130.861 513.284Z" fill="#303030"/>
<path d="M105.491 521.556C105.389 521.437 106.031 520.723 106.923 519.96C107.815 519.197 108.621 518.673 108.723 518.791C108.823 518.909 108.182 519.625 107.29 520.388C106.399 521.151 105.593 521.674 105.491 521.556Z" fill="#303030"/>
<path d="M98.1925 482.081C97.1665 478.874 95.2382 475.133 91.8701 475.084C89.8709 475.057 88.0728 476.491 87.1331 478.254C86.1935 480.018 85.7952 482.064 85.8532 484.062C86.2399 497.259 88.5252 512.354 93.0921 526.102H105.417C105.259 510.829 102.85 496.627 98.1925 482.081Z" fill="#4F4F4F"/>
<path d="M75.9083 461.89C74.1862 455 69.047 451.279 63.0778 450.933C57.6306 451.889 55.5179 457.25 54.8709 462.744C54.2238 468.236 55.9291 473.702 57.6138 478.97C63.0211 495.882 68.4283 512.795 73.8369 529.707C78.9464 529.15 84.0572 528.592 89.1693 528.033C84.315 505.374 81.5282 484.37 75.9083 461.89Z" fill="#4F4F4F"/>
<path d="M91.8709 475.085C91.925 475.128 91.3656 475.64 90.8268 476.831C90.2931 478.025 90.0366 479.934 90.2506 482.279C90.4891 484.619 90.7572 487.442 91.149 490.532C91.5512 493.63 92.1093 497.021 92.8015 500.56C94.1949 507.64 95.7649 513.993 96.7613 518.623C97.2665 520.937 97.6468 522.816 97.8878 524.119C97.991 524.718 98.0747 525.216 98.1456 525.623C98.1985 525.969 98.2165 526.15 98.1972 526.154C98.1791 526.159 98.1224 525.983 98.0335 525.646C97.9368 525.243 97.8169 524.754 97.6726 524.164C97.3465 522.791 96.9069 520.95 96.3733 518.713C95.2776 514.108 93.6458 507.769 92.2485 500.669C91.5538 497.118 91.0098 493.711 90.6347 490.597C90.4375 489.04 90.3073 487.557 90.181 486.167C90.0689 484.786 89.918 483.494 89.8523 482.306C89.6847 479.928 90.0108 477.945 90.627 476.738C91.2496 475.535 91.8709 475.085 91.8709 475.085Z" fill="#303030"/>
<path d="M63.2981 450.496C63.3509 450.542 62.4822 451.274 61.4458 452.986C60.4121 454.678 59.3139 457.439 59.1115 461.008C58.8782 464.575 59.6722 468.809 61.0089 473.35C62.3558 477.913 63.833 482.919 65.3837 488.175C68.4411 498.685 71.2085 508.194 73.2322 515.148C74.1977 518.563 74.9839 521.346 75.5472 523.34C75.7973 524.268 75.9984 525.01 76.1505 525.575C76.2819 526.088 76.3425 526.36 76.3232 526.365C76.3039 526.372 76.2085 526.11 76.0409 525.607C75.863 525.052 75.6297 524.317 75.3371 523.402C74.7313 521.42 73.8857 518.655 72.8494 515.261C70.7845 508.318 67.9616 498.825 64.8423 488.335C63.3058 483.071 61.8428 478.061 60.5087 473.492C59.194 468.924 58.4232 464.615 58.7132 460.982C58.9723 457.347 60.1504 454.552 61.2589 452.87C62.3713 451.166 63.2981 450.496 63.2981 450.496Z" fill="#303030"/>
<path d="M85.8229 526.394C85.8049 526.401 85.6863 526.148 85.4762 525.66C85.2751 525.167 84.949 524.452 84.6036 523.503C83.8727 521.619 82.9356 518.844 81.9663 515.36C80.9918 511.879 80.0341 507.681 79.1099 502.997C78.2205 498.303 77.2461 493.152 76.2213 487.746C75.1554 482.349 73.9682 477.242 72.5903 472.685C71.215 468.127 69.6746 464.117 68.1201 460.872C66.5734 457.623 65.0962 455.104 63.9877 453.425C63.4592 452.565 62.981 451.945 62.6948 451.497C62.3997 451.056 62.2501 450.817 62.2669 450.806C62.2824 450.794 62.4602 451.009 62.7864 451.43C63.1022 451.856 63.6126 452.458 64.1694 453.301C65.3385 454.951 66.8776 457.453 68.4798 460.698C70.0884 463.942 71.679 467.961 73.0878 472.534C74.4993 477.106 75.7058 482.228 76.7743 487.637C77.7836 493.048 78.7439 498.2 79.6191 502.898C80.5149 507.579 81.4301 511.773 82.3517 515.257C83.2682 518.742 84.1434 521.526 84.8098 523.427C85.123 524.386 85.4156 525.113 85.5832 525.617C85.7585 526.119 85.841 526.387 85.8229 526.394Z" fill="#303030"/>
<path d="M57.8826 476.436C57.9199 476.587 57.086 476.92 56.02 477.179C54.9553 477.437 54.0607 477.524 54.0246 477.373C53.9873 477.221 54.8212 476.89 55.8872 476.63C56.9519 476.372 57.8465 476.286 57.8826 476.436Z" fill="#303030"/>
<path d="M56.2601 465.973C56.2523 466.132 55.0935 466.196 53.6744 466.253C52.2552 466.307 51.0951 466.333 51.0745 466.176C51.0539 466.025 52.2036 465.744 53.6524 465.689C55.1013 465.631 56.2691 465.821 56.2601 465.973Z" fill="#303030"/>
<path d="M57.9865 456.417C57.886 456.536 57.0533 455.995 56.1265 455.21C55.1998 454.422 54.5295 453.689 54.6313 453.57C54.7319 453.452 55.5645 453.992 56.4913 454.779C57.4181 455.564 58.087 456.297 57.9865 456.417Z" fill="#303030"/>
<path d="M62.6642 447.57C62.8189 447.605 62.7763 448.35 62.7531 449.252C62.7248 450.153 62.7235 450.899 62.5662 450.925C62.418 450.953 62.1602 450.199 62.1899 449.235C62.2156 448.271 62.516 447.534 62.6642 447.57Z" fill="#303030"/>
<path d="M72.2232 451.739C72.3508 451.827 71.9758 452.583 71.3867 453.426C70.7964 454.267 70.215 454.878 70.0874 454.788C69.9598 454.699 70.3349 453.944 70.924 453.102C71.5143 452.259 72.0956 451.65 72.2232 451.739Z" fill="#303030"/>
<path d="M78.4231 462.512C78.4811 462.656 77.6884 463.117 76.6507 463.54C75.6118 463.963 74.7224 464.189 74.6631 464.044C74.6051 463.901 75.3991 463.441 76.4368 463.018C77.4744 462.594 78.3638 462.368 78.4231 462.512Z" fill="#303030"/>
<path d="M82.1866 473.6C82.2498 473.735 81.198 474.336 79.7556 474.661C78.3146 474.991 77.1068 474.903 77.1055 474.752C77.0978 474.591 78.2488 474.429 79.6306 474.11C81.015 473.801 82.1235 473.452 82.1866 473.6Z" fill="#303030"/>
<path d="M64.911 470.449C64.7615 470.403 64.8697 469.637 65.152 468.739C65.433 467.842 65.7811 467.149 65.9306 467.197C66.0788 467.244 65.9705 468.008 65.6895 468.907C65.4085 469.806 65.0592 470.495 64.911 470.449Z" fill="#303030"/>
<path d="M67.3239 484.366C67.1808 484.304 67.4915 483.272 68.0174 482.063C68.5433 480.851 69.0859 479.921 69.2277 479.983C69.3708 480.044 69.0601 481.076 68.5342 482.287C68.0083 483.497 67.467 484.429 67.3239 484.366Z" fill="#303030"/>
<path d="M61.3738 488.178C61.3145 488.324 60.3414 488.058 59.1658 487.692C57.9903 487.324 57.0416 486.987 57.0751 486.833C57.1073 486.683 58.132 486.777 59.3334 487.153C60.5373 487.529 61.4331 488.036 61.3738 488.178Z" fill="#303030"/>
<path d="M64.798 499.525C64.8883 499.651 64.2322 500.275 63.3312 500.918C62.4302 501.56 61.6271 501.978 61.5356 501.853C61.4454 501.725 62.1028 501.101 63.0025 500.46C63.9048 499.816 64.7078 499.398 64.798 499.525Z" fill="#303030"/>
<path d="M67.5476 510.839C67.585 510.991 66.7717 511.318 65.7328 511.571C64.6938 511.823 63.8225 511.906 63.7864 511.754C63.749 511.603 64.5611 511.276 65.6 511.023C66.6389 510.769 67.5115 510.688 67.5476 510.839Z" fill="#303030"/>
<path d="M82.4921 483.049C82.5707 483.181 81.876 483.734 80.8641 484.113C79.8535 484.497 78.9654 484.538 78.9384 484.388C78.9074 484.232 79.704 483.95 80.6656 483.585C81.6272 483.226 82.4122 482.912 82.4921 483.049Z" fill="#303030"/>
<path d="M84.6253 500.65C84.5595 500.791 83.732 500.542 82.7769 500.092C81.8217 499.644 81.1025 499.165 81.1682 499.024C81.2353 498.883 82.0628 499.133 83.0166 499.583C83.9718 500.032 84.6923 500.511 84.6253 500.65Z" fill="#303030"/>
<path d="M88.3935 513.246C88.3368 513.391 87.2438 513.099 85.9522 512.593C84.6607 512.086 83.6604 511.558 83.7171 511.413C83.7739 511.269 84.8669 511.56 86.1585 512.067C87.4487 512.573 88.4503 513.102 88.3935 513.246Z" fill="#303030"/>
<path d="M68.1565 523.114C68.0792 522.973 69.0859 522.296 70.2472 521.378C71.4125 520.467 72.307 519.65 72.4269 519.758C72.5403 519.857 71.8056 520.876 70.5953 521.823C69.3888 522.774 68.2248 523.248 68.1565 523.114Z" fill="#303030"/>
<path d="M78.1162 516.709C77.9564 516.728 77.7398 515.881 77.3557 514.898C76.9781 513.91 76.5695 513.138 76.7009 513.046C76.8195 512.953 77.473 513.629 77.8803 514.695C78.2941 515.756 78.2657 516.697 78.1162 516.709Z" fill="#303030"/>
<path d="M75.4769 501.561C75.3854 501.689 74.7422 501.381 74.0397 500.878C73.3372 500.373 72.8423 499.861 72.9325 499.735C73.0227 499.607 73.6659 499.915 74.3697 500.419C75.0722 500.923 75.5672 501.435 75.4769 501.561Z" fill="#303030"/>
<path d="M98.6944 477.822C98.7859 477.948 98.1595 478.567 97.2946 479.205C96.4297 479.843 95.6525 480.259 95.5597 480.134C95.4681 480.008 96.0946 479.389 96.9595 478.751C97.8257 478.113 98.6016 477.697 98.6944 477.822Z" fill="#303030"/>
<path d="M102.191 487.387C102.206 487.536 101.225 487.742 100.012 487.61C98.7962 487.481 97.8823 487.071 97.9274 486.927C97.9738 486.772 98.916 486.928 100.071 487.049C101.226 487.177 102.18 487.227 102.191 487.387Z" fill="#303030"/>
<path d="M87.1532 489.533C87.1867 489.681 86.278 490.006 85.105 490.084C83.9308 490.163 82.9872 489.961 83.0001 489.81C83.013 489.652 83.9385 489.599 85.0664 489.52C86.1942 489.448 87.121 489.377 87.1532 489.533Z" fill="#303030"/>
<path d="M88.4425 480.489C88.4309 480.639 87.5131 480.665 86.509 480.198C85.501 479.739 84.9223 479.026 85.028 478.921C85.1363 478.801 85.8271 479.271 86.7449 479.686C87.6562 480.112 88.4631 480.329 88.4425 480.489Z" fill="#303030"/>
<path d="M103.483 497.656C103.401 497.789 102.461 497.346 101.383 496.668C100.307 495.99 99.5014 495.334 99.5839 495.203C99.6677 495.071 100.607 495.513 101.684 496.191C102.76 496.869 103.566 497.525 103.483 497.656Z" fill="#303030"/>
<path d="M140.178 538.717H59.9375V524.495H140.178V538.717Z" fill="url(#paint3_linear_1236_2105)"/>
<path d="M65.9336 535.895L75.6911 578.393H123.513L134.19 535.895H65.9336Z" fill="url(#paint4_linear_1236_2105)"/>
<path d="M140.135 538.735C140.135 538.891 122.035 539.018 99.7139 539.018C77.385 539.018 59.2891 538.891 59.2891 538.735C59.2891 538.579 77.385 538.453 99.7139 538.453C122.035 538.453 140.135 538.579 140.135 538.735Z" fill="#303030"/>
<path d="M95.5117 489.842C95.3789 489.925 94.8311 489.286 94.2872 488.416C93.7419 487.544 93.4081 486.771 93.5408 486.69C93.6723 486.606 94.2214 487.245 94.7654 488.117C95.3093 488.988 95.6445 489.761 95.5117 489.842Z" fill="#303030"/>
<path d="M95.5389 501.283C95.3907 501.234 95.5789 500.268 95.9591 499.124C96.3381 497.98 96.766 497.094 96.9143 497.143C97.0612 497.192 96.8743 498.159 96.4941 499.302C96.1138 500.445 95.6859 501.332 95.5389 501.283Z" fill="#303030"/>
<path d="M99.4607 513.295C99.3202 513.364 98.7209 512.403 98.1215 511.152C97.5234 509.899 97.1509 508.831 97.2914 508.762C97.4319 508.697 98.0312 509.656 98.6306 510.907C99.23 512.159 99.6012 513.228 99.4607 513.295Z" fill="#303030"/>
<path d="M90.9864 522.961C90.8691 522.859 91.3474 522.115 92.0563 521.3C92.7639 520.482 93.4329 519.905 93.5515 520.007C93.6688 520.109 93.1906 520.852 92.4816 521.668C91.774 522.484 91.1037 523.063 90.9864 522.961Z" fill="#303030"/>
<path d="M89.2036 505.414C89.1766 505.567 88.4045 505.558 87.479 505.396C86.5535 505.232 85.8252 504.976 85.8523 504.822C85.8794 504.669 86.6515 504.678 87.5769 504.84C88.5024 505.004 89.2307 505.26 89.2036 505.414Z" fill="#303030"/>
<path d="M368.365 578.494H178.082V426.762H368.365V578.494Z" fill="#E0E0E0"/>
<g opacity="0.300003">
<g opacity="0.300003">
<path opacity="0.300003" d="M191.945 427.08C214.348 435.073 239.057 436.777 263.099 437.227C268.077 437.32 273.121 437.312 277.938 438.568C282.756 439.823 287.42 442.525 289.895 446.846C292.587 451.549 292.3 457.44 290.772 462.639C289.244 467.84 286.594 472.633 284.678 477.704C281.318 486.602 280.274 496.363 281.676 505.771C282.272 509.766 283.343 513.792 285.653 517.109C287.961 520.426 291.685 522.949 295.726 523.009C302.957 523.113 307.909 516.003 311.495 509.724C326.2 483.965 342.108 454.678 351.519 426.55L191.945 427.08Z" fill="#303030"/>
</g>
</g>
<path d="M242.915 577.682C242.729 577.682 242.578 544.052 242.578 502.576C242.578 461.086 242.729 427.463 242.915 427.463C243.1 427.463 243.25 461.086 243.25 502.576C243.25 544.052 243.1 577.682 242.915 577.682Z" fill="#4F4F4F"/>
<path d="M320.888 314.63C320.324 310.847 309.013 298.336 309.013 298.336C309.013 298.336 303.358 275.641 301.662 268.95C301.239 267.277 300.329 265.377 299.204 263.468C295.257 256.774 289.469 251.353 282.695 247.544L267.044 238.743L263.298 230.411L225.692 211.091L215.498 229.078C215.498 229.078 190.736 236.947 187.46 242.568C184.182 248.189 189.085 323.509 189.085 323.509C189.085 323.509 178.721 366.976 176.536 375.97C174.351 384.963 177.24 395.695 177.24 395.695L195.681 372.551C201.41 365.358 213.995 362.055 223.03 362.183L300.253 362.523L297.181 340.894L359.623 353.037C359.623 353.037 370.367 332.088 371.215 331.667C372.063 331.245 320.888 314.63 320.888 314.63Z" fill="url(#paint5_linear_1236_2105)"/>
<path d="M224.092 236.149C223.55 235.597 228.456 252.166 234.615 269.038C237.931 278.128 239.595 287.77 239.595 297.481V334.627V358.572L276.623 356.058L271.088 315.816C271.088 315.816 266.574 289.855 265.311 279.982C264.153 270.941 260.177 246.426 260.177 246.426C260.177 246.426 239.595 251.938 224.092 236.149" fill="white"/>
<path d="M306.252 329.81C306.21 329.807 306.197 329.474 306.25 328.879C306.301 328.282 306.443 327.423 306.737 326.39C307.307 324.331 308.626 321.552 310.967 319.205C313.311 316.858 316.087 315.535 318.146 314.96C319.178 314.663 320.036 314.52 320.632 314.467C321.229 314.413 321.56 314.425 321.565 314.469C321.581 314.583 320.267 314.723 318.29 315.411C316.322 316.086 313.691 317.428 311.443 319.681C309.195 321.933 307.859 324.565 307.189 326.534C306.503 328.512 306.367 329.827 306.252 329.81Z" fill="#303030"/>
<path d="M308.158 315.154C308.078 315.007 310.511 313.776 313.812 313.516C317.11 313.232 319.713 314.051 319.656 314.208C319.617 314.408 317.042 313.909 313.867 314.185C310.69 314.431 308.23 315.343 308.158 315.154Z" fill="#303030"/>
<g opacity="0.300003">
<g opacity="0.300003">
<path opacity="0.300003" d="M185.354 348.488L182.141 352.132C185.585 356.137 190.059 359.496 195.186 360.759C200.314 362.021 205.644 362.169 210.925 362.183C213.065 362.188 215.235 362.169 217.29 361.576C219.384 360.974 221.338 359.783 223.514 359.653C224.972 359.567 226.407 359.965 227.835 360.272C229.261 360.577 230.771 360.788 232.161 360.34C233.55 359.893 234.766 358.605 234.679 357.149C218.623 352.462 202.048 349.553 185.354 348.488Z" fill="#303030"/>
</g>
</g>
<path d="M291.05 353.16L281.965 343.512L263.278 338.783C263.278 338.783 246.152 343.913 245.742 343.897C245.334 343.883 230.839 339.938 230.839 339.938L225.773 358.517L251.878 360.305L281.683 359.111C281.683 359.111 283.237 357.664 282.317 356.675C281.395 355.685 287.3 358.347 287.995 358.38C288.677 358.411 290.039 358.945 290.96 357.831C291.586 357.072 292.438 354.635 291.05 353.16Z" fill="#FFBE9D"/>
<path d="M282.318 356.675C282.283 356.767 281.161 356.406 279.348 355.831C277.537 355.255 275.032 354.488 272.228 353.769C269.422 353.052 266.854 352.52 264.99 352.146C263.127 351.774 261.97 351.542 261.985 351.444C261.996 351.357 263.177 351.424 265.069 351.678C266.961 351.933 269.565 352.397 272.394 353.118C275.221 353.844 277.725 354.69 279.506 355.383C281.287 356.076 282.35 356.594 282.318 356.675Z" fill="#EB996E"/>
<path d="M291.051 353.16C291.014 353.254 289.453 352.671 286.905 351.823C284.362 350.965 280.807 349.914 276.852 348.81C272.903 347.637 269.386 346.464 266.721 346.308C264.064 346.083 262.444 346.607 262.418 346.476C262.407 346.44 262.796 346.277 263.537 346.099C264.277 345.92 265.383 345.786 266.749 345.834C269.502 345.872 273.128 347.004 277.035 348.164C280.991 349.269 284.549 350.398 287.065 351.376C288.327 351.858 289.329 352.287 290.015 352.602C290.702 352.919 291.07 353.119 291.051 353.16Z" fill="#EB996E"/>
<path d="M187.46 242.569C187.46 242.569 173.988 251.938 170.71 265.427C167.433 278.917 153.231 334.001 156.145 342.244C159.057 350.488 215.704 358.572 215.704 358.572L222.416 330.254L193.65 322.384C193.65 322.384 194.013 296.155 194.378 285.288C194.741 274.42 187.46 242.569 187.46 242.569Z" fill="url(#paint6_linear_1236_2105)"/>
<path d="M222.036 334.476L231.306 336.759L225.73 358.133L216.621 356.675L222.036 334.476Z" fill="white"/>
<path d="M155.935 339.33C155.983 339.33 155.908 339.801 156.073 340.664C156.256 341.512 156.806 342.746 158.048 343.879C160.51 346.172 165.21 348.079 171.173 349.153L171.193 349.157L171.215 349.164C173.941 350.059 177.042 350.77 180.362 351.522C183.688 352.264 187.253 353.026 191.024 353.793C198.56 355.333 206.9 356.955 215.736 358.608L215.35 358.856C215.991 356.23 216.668 353.453 217.353 350.636C218.943 344.138 220.482 337.844 221.941 331.875L222.168 332.264C212.654 329.547 203.974 327.07 196.602 324.965L196.587 324.963L196.573 324.956C192.67 323.357 188.787 322.774 185.422 323.004C182.041 323.157 179.206 324.062 177.006 324.979C174.802 325.924 173.224 326.95 172.171 327.656C171.684 328.013 171.296 328.294 171.001 328.51C170.734 328.703 170.593 328.796 170.586 328.786C170.576 328.777 170.7 328.662 170.95 328.45C171.204 328.242 171.57 327.918 172.081 327.533C173.111 326.781 174.675 325.706 176.887 324.709C179.095 323.739 181.958 322.781 185.396 322.585C188.817 322.314 192.782 322.869 196.774 324.473L196.744 324.463C204.126 326.531 212.818 328.97 222.344 331.64L222.645 331.726L222.571 332.028C221.119 337.999 219.587 344.296 218.006 350.796C217.319 353.611 216.639 356.387 215.999 359.014L215.924 359.322L215.613 359.264C206.774 357.599 198.438 355.954 190.902 354.377C187.133 353.592 183.568 352.809 180.243 352.041C176.918 351.265 173.831 350.532 171.06 349.592L171.101 349.604C165.074 348.456 160.36 346.471 157.876 344.059C156.627 342.868 156.091 341.566 155.947 340.689C155.819 339.794 155.935 339.33 155.935 339.33Z" fill="#303030"/>
<path d="M195.201 324.262C195.121 324.347 194.162 323.467 192.434 322.309C190.712 321.149 188.159 319.786 185.119 318.895C182.074 318.015 179.189 317.793 177.113 317.847C175.034 317.897 173.751 318.123 173.731 318.008C173.714 317.942 174.973 317.547 177.091 317.373C179.201 317.196 182.179 317.346 185.307 318.25C188.43 319.166 191.024 320.638 192.707 321.923C194.401 323.205 195.251 324.214 195.201 324.262Z" fill="#303030"/>
<path d="M198.971 278.121C199.018 278.123 199.023 278.738 198.99 279.848C198.966 280.959 198.869 282.563 198.719 284.543C198.401 288.501 197.811 293.963 196.776 299.935C195.762 305.914 194.461 311.265 193.203 315.045C192.887 315.989 192.562 316.83 192.285 317.57C191.977 318.262 191.704 318.88 191.462 319.426C190.931 320.411 190.62 320.939 190.579 320.917C190.539 320.894 190.771 320.324 191.223 319.319C191.432 318.765 191.668 318.138 191.933 317.437C192.176 316.691 192.467 315.847 192.751 314.902C193.884 311.115 195.103 305.779 196.115 299.822C197.145 293.87 197.809 288.436 198.245 284.499C198.439 282.63 198.601 281.064 198.73 279.831C198.841 278.728 198.925 278.118 198.971 278.121Z" fill="#303030"/>
<path d="M231.827 263.513C231.783 263.524 231.693 263.161 231.38 262.56C231.064 261.97 230.488 261.123 229.444 260.443C228.431 259.767 226.865 259.288 225.252 259.83C223.671 260.341 222.11 261.828 221.715 263.834L221.535 264.75L221.14 263.902C219.783 260.983 218.395 257.607 217.201 253.95C215.023 247.314 214.083 240.957 214.289 236.367C214.283 235.22 214.451 234.189 214.516 233.282C214.672 232.384 214.787 231.609 214.928 230.983C215.254 229.742 215.453 229.067 215.499 229.08C215.665 229.112 214.735 231.829 214.764 236.376C214.681 240.907 215.68 247.16 217.841 253.743C219.024 257.37 220.38 260.729 221.693 263.648L221.118 263.718C221.598 261.459 223.342 259.877 225.099 259.348C226.906 258.789 228.609 259.38 229.649 260.142C230.73 260.912 231.283 261.838 231.555 262.476C231.689 262.801 231.768 263.059 231.799 263.238C231.834 263.416 231.844 263.509 231.827 263.513Z" fill="#303030"/>
<path d="M263.251 266.414C263.207 266.417 263.121 265.874 262.953 264.88C262.816 263.889 262.488 262.43 262.68 260.56C262.939 258.724 263.806 256.5 265.788 254.851C266.768 254.039 268.112 253.498 269.535 253.506C270.941 253.504 272.479 254.052 273.48 255.27L272.912 255.595C272.519 254.608 272.107 253.57 271.687 252.516C269.283 246.443 267.142 240.934 265.624 236.933C264.912 235.02 264.319 233.425 263.858 232.185C263.456 231.058 263.253 230.428 263.297 230.411C263.34 230.396 263.625 230.995 264.103 232.093C264.616 233.314 265.276 234.885 266.069 236.768C267.7 240.725 269.912 246.209 272.317 252.281C272.734 253.337 273.142 254.374 273.533 255.363L274.319 257.353L272.965 255.689C272.12 254.653 270.79 254.154 269.531 254.142C268.256 254.127 267.067 254.583 266.152 255.314C264.312 256.785 263.409 258.906 263.118 260.619C262.876 262.382 263.126 263.852 263.192 264.851C263.284 265.855 263.292 266.411 263.251 266.414Z" fill="#303030"/>
<path d="M287.162 269.612C287.346 269.586 290.258 289.181 293.667 313.374C297.075 337.574 299.69 357.207 299.507 357.232C299.324 357.259 296.411 337.668 293.002 313.467C289.594 289.275 286.977 269.637 287.162 269.612Z" fill="#303030"/>
<g opacity="0.300003">
<g opacity="0.300003">
<path opacity="0.300003" d="M217.594 254.161C217.751 259.163 218.848 264.133 220.805 268.715C222.207 266.983 223.764 265.15 225.899 264.638C228.562 264.001 231.253 265.647 233.178 267.646C232.769 265.654 232.096 263.67 230.853 262.085C229.608 260.501 227.721 259.361 225.744 259.415C223.765 259.47 221.797 260.918 221.441 262.921L217.747 254.244" fill="#303030"/>
</g>
</g>
<path d="M195.829 268.324C195.704 268.323 195.747 266.975 195.356 264.867C194.971 262.768 194.032 259.918 192.221 257.202C191.31 255.854 190.287 254.684 189.276 253.7C188.235 252.752 187.236 251.955 186.322 251.401C184.512 250.258 183.235 249.818 183.278 249.701C183.293 249.657 183.62 249.738 184.203 249.927C184.498 250.013 184.85 250.142 185.242 250.331C185.637 250.513 186.099 250.704 186.565 250.994C187.537 251.511 188.598 252.292 189.696 253.247C190.764 254.235 191.837 255.435 192.78 256.83C194.652 259.638 195.553 262.621 195.825 264.793C195.962 265.88 196.001 266.77 195.95 267.381C195.916 267.992 195.876 268.326 195.829 268.324Z" fill="#303030"/>
<path d="M270.641 176.342C269.117 162.031 256.852 151.297 242.464 151.667L241.035 151.703C225.639 153.001 218.141 166.799 219.863 182.151L224.087 236.149L225.876 238.344C234.153 248.503 248.23 251.821 260.171 246.427L258.988 229.055C258.988 229.055 273.752 226.37 273.554 211.547C273.459 204.387 272.061 189.656 270.641 176.342Z" fill="#FFBE9D"/>
<path d="M259.107 229.03C259.107 229.03 249.658 229.843 239.543 223.847C239.543 223.847 244.384 234.394 259.137 232.679L259.107 229.03Z" fill="#EB996E"/>
<path d="M265.958 188.601C266.026 189.717 265.137 190.695 263.972 190.788C262.809 190.881 261.81 190.053 261.742 188.936C261.674 187.82 262.563 186.84 263.726 186.748C264.89 186.654 265.89 187.484 265.958 188.601Z" fill="#303030"/>
<path d="M266.901 180.543C266.733 180.803 265.051 180.98 263.05 182.065C261.043 183.131 259.84 184.5 259.559 184.48C259.424 184.476 259.545 184.105 260.063 183.499C260.573 182.9 261.53 182.069 262.78 181.399C264.029 180.73 265.2 180.419 265.925 180.356C266.664 180.288 266.986 180.42 266.901 180.543Z" fill="#303030"/>
<path d="M244.564 189.726C244.632 190.842 243.743 191.82 242.577 191.913C241.416 192.006 240.416 191.177 240.347 190.061C240.279 188.944 241.169 187.965 242.331 187.872C243.496 187.779 244.497 188.608 244.564 189.726Z" fill="#303030"/>
<path d="M244.238 183.661C243.942 183.725 242.561 182.792 240.352 182.248C238.149 181.69 236.352 181.831 236.154 181.642C236.055 181.556 236.386 181.39 237.175 181.32C237.949 181.248 239.211 181.303 240.587 181.648C241.962 181.992 243.041 182.519 243.627 182.931C244.224 183.346 244.38 183.634 244.238 183.661Z" fill="#303030"/>
<path d="M253.174 201.357C253.16 201.228 254.57 200.947 256.855 200.595C257.435 200.52 257.982 200.39 258.071 199.989C258.196 199.567 257.937 198.947 257.638 198.277C257.055 196.885 256.445 195.423 255.805 193.893C253.254 187.651 251.392 182.512 251.644 182.41C251.896 182.311 254.169 187.289 256.719 193.532C257.333 195.072 257.921 196.539 258.481 197.944C258.718 198.599 259.116 199.339 258.841 200.218C258.696 200.656 258.277 200.983 257.907 201.093C257.537 201.216 257.21 201.231 256.922 201.255C254.618 201.438 253.185 201.486 253.174 201.357Z" fill="#303030"/>
<path d="M244.269 174.861C244.015 175.469 241.757 175.066 239.072 175.258C236.382 175.396 234.192 176.072 233.865 175.5C233.72 175.227 234.124 174.664 235.023 174.107C235.915 173.55 237.319 173.049 238.93 172.949C240.541 172.852 241.995 173.176 242.949 173.62C243.911 174.062 244.38 174.572 244.269 174.861Z" fill="#303030"/>
<path d="M266.84 175.366C266.345 175.888 264.383 175.371 262.03 175.37C259.677 175.303 257.688 175.763 257.225 175.226C257.02 174.965 257.329 174.443 258.194 173.945C259.048 173.448 260.478 173.035 262.095 173.058C263.712 173.082 265.119 173.537 265.942 174.058C266.779 174.581 267.057 175.112 266.84 175.366Z" fill="#303030"/>
<path d="M274.961 163.232C274.679 161.886 273.354 160.749 271.992 160.952C272.719 160.694 273.464 160.423 274.037 159.91C274.612 159.397 274.98 158.576 274.738 157.844C274.358 156.698 272.892 156.463 271.729 156.133C270.214 155.703 268.841 154.787 267.864 153.552C266.454 151.774 265.911 149.457 264.694 147.542C263.119 145.061 260.381 143.356 257.461 143.034C254.54 142.711 251.495 143.781 249.419 145.859C247.154 143.534 243.739 142.388 240.53 142.876C237.322 143.365 234.402 145.477 232.934 148.371C229.001 146.735 224.201 147.411 220.873 150.07C217.546 152.729 215.828 157.26 216.556 161.458L225.788 167.114C225.937 164.262 229.121 161.996 231.867 162.79C234.653 163.595 236.435 166.82 239.327 167.041C241.579 167.211 243.494 165.466 245.677 164.882C248.323 164.171 251.117 165.232 253.505 166.578C255.893 167.923 258.162 169.595 260.818 170.267C263.932 171.053 267.252 170.363 270.223 169.147C271.496 168.626 272.757 167.989 273.704 166.993C274.652 165.997 275.245 164.577 274.961 163.232Z" fill="#303030"/>
<path d="M227.394 162.765L269.667 162.524C268.273 159.646 265.862 157.377 263.261 155.516C257.655 151.505 250.834 149.092 243.941 149.163C237.047 149.234 223.255 158.014 218.396 162.904C214.507 166.817 214.623 170.105 214.623 170.105C214.141 175.6 217.379 181.741 218.747 187.085C219.453 189.842 220.9 198.199 220.9 198.199H220.901C223.229 198.126 224.041 196.249 223.625 193.959L222.938 184.943C222.938 184.943 230.699 179.096 226.662 168.904C226.037 168.101 224.648 164.375 227.394 162.765Z" fill="#303030"/>
<path d="M222.28 184.342C220.129 176.855 218.153 168.835 220.439 161.389C220.022 161.373 219.603 161.354 219.184 161.338L218.662 161.719C216.296 160.924 213.467 161.825 211.998 163.841C210.528 165.855 210.536 168.826 212.016 170.834C209.513 170.717 207.109 172.81 206.88 175.307C206.723 177.03 207.472 178.694 208.24 180.245C209.01 181.795 209.836 183.401 209.846 185.131C209.858 186.86 208.751 188.74 207.033 188.945C207.802 190.718 209.952 191.762 211.821 191.271C211.227 192.734 210.207 194.022 208.918 194.933C211.672 196.808 215.452 196.168 218.446 194.71C220.224 193.845 221.968 192.612 222.694 190.772C223.498 188.736 222.884 186.447 222.28 184.342Z" fill="#303030"/>
<path d="M221.592 193.064C221.336 192.961 211.332 190.315 211.915 200.436C212.499 210.559 222.543 207.885 222.543 207.594C222.544 207.302 221.592 193.064 221.592 193.064Z" fill="#FFBE9D"/>
<path d="M220.119 203.91C220.072 203.881 219.95 204.044 219.659 204.198C219.376 204.347 218.881 204.469 218.343 204.301C217.251 203.97 216.252 202.325 216.097 200.503C216.019 199.584 216.162 198.694 216.445 197.949C216.712 197.191 217.161 196.646 217.694 196.52C218.223 196.365 218.622 196.664 218.763 196.943C218.915 197.219 218.862 197.423 218.916 197.439C218.946 197.462 219.124 197.256 219.018 196.843C218.965 196.644 218.832 196.412 218.584 196.231C218.328 196.048 217.966 195.967 217.594 196.03C216.815 196.129 216.155 196.887 215.842 197.706C215.486 198.529 215.305 199.529 215.393 200.562C215.576 202.598 216.73 204.447 218.218 204.786C218.941 204.93 219.522 204.681 219.816 204.423C220.115 204.155 220.155 203.927 220.119 203.91Z" fill="#EB996E"/>
<path d="M211.075 184.667C211.047 184.688 210.791 184.286 210.889 183.489C210.984 182.715 211.544 181.593 212.782 180.852C214.006 180.106 215.699 179.923 217.419 179.731C219.122 179.546 221.067 179.063 222.04 177.385C223.015 175.749 223.041 173.748 222.833 172.071C222.592 170.371 222.141 168.827 221.921 167.498C221.384 164.818 221.897 163.109 221.989 163.156C222.11 163.172 221.808 164.814 222.466 167.386C222.752 168.678 223.255 170.179 223.554 171.969C223.804 173.734 223.841 175.877 222.713 177.797C222.15 178.741 221.252 179.46 220.3 179.839C219.348 180.226 218.389 180.358 217.503 180.453C215.733 180.608 214.176 180.732 213.052 181.339C211.941 181.926 211.359 182.878 211.19 183.55C211.012 184.238 211.146 184.654 211.075 184.667Z" fill="#4F4F4F"/>
<path d="M208.63 180.253C208.59 180.269 208.407 179.965 208.317 179.338C208.235 178.722 208.281 177.757 208.821 176.735C209.091 176.228 209.485 175.716 210.025 175.289C210.556 174.845 211.281 174.571 211.968 174.382C212.657 174.181 213.374 174.003 213.891 173.594C214.405 173.188 214.637 172.516 214.653 171.739C214.682 170.967 214.565 170.155 214.584 169.343C214.595 168.539 214.69 167.765 214.842 167.045C215.158 165.599 215.681 164.378 216.295 163.426C216.906 162.446 217.881 161.966 218.536 162.001C219.206 162.008 219.487 162.309 219.457 162.335C219.429 162.397 219.119 162.22 218.559 162.308C217.999 162.378 217.265 162.815 216.766 163.723C216.266 164.624 215.81 165.828 215.556 167.187C215.431 167.868 215.358 168.595 215.356 169.348C215.346 170.094 215.471 170.888 215.441 171.769C215.438 172.627 215.122 173.636 214.372 174.198C213.639 174.75 212.836 174.897 212.162 175.082C210.775 175.353 209.849 176.125 209.306 177.01C208.233 178.824 208.783 180.26 208.63 180.253Z" fill="#4F4F4F"/>
<path d="M267.876 153.563C267.939 153.577 267.112 154.115 265.784 153.491C265.136 153.202 264.495 152.593 263.874 151.863C263.254 151.123 262.549 150.336 261.523 149.778C259.545 148.654 256.345 148.362 253.888 150.284C252.636 151.192 251.528 152.46 250.073 153.521C249.344 154.041 248.499 154.505 247.538 154.691C246.579 154.88 245.561 154.746 244.656 154.419C242.831 153.763 241.391 152.645 239.816 152.073C238.248 151.466 236.613 151.198 235.062 151.219C231.941 151.225 229.24 152.402 227.396 153.856C225.52 155.307 224.423 156.943 223.776 158.097C223.146 159.273 222.918 159.987 222.852 159.966C222.826 159.957 222.861 159.773 222.953 159.426C223.048 159.081 223.223 158.582 223.502 157.958C224.079 156.734 225.137 154.99 227.049 153.419C228.923 151.845 231.758 150.538 235.052 150.492C236.688 150.449 238.42 150.717 240.093 151.351C241.792 151.969 243.262 153.091 244.917 153.673C245.739 153.969 246.585 154.075 247.393 153.92C248.2 153.767 248.945 153.371 249.624 152.892C250.985 151.918 252.12 150.65 253.461 149.695C254.786 148.698 256.414 148.214 257.885 148.232C259.367 148.239 260.723 148.658 261.801 149.294C262.893 149.928 263.64 150.833 264.213 151.58C264.799 152.33 265.351 152.912 265.926 153.218C267.09 153.872 267.88 153.487 267.876 153.563Z" fill="#4F4F4F"/>
<path d="M247.544 204.011C247.865 203.938 248.233 206.102 250.345 207.325C252.454 208.556 254.72 207.924 254.788 208.223C254.841 208.355 254.344 208.731 253.375 208.92C252.426 209.114 250.979 209.042 249.687 208.293C248.398 207.541 247.701 206.367 247.478 205.491C247.242 204.6 247.393 204.023 247.544 204.011Z" fill="#303030"/>
<path d="M380.939 405.396C377.108 401.984 371.819 400.399 366.697 400.697L357.988 428.377C364.371 428.658 370.739 431.951 376.901 430.263C381.85 428.908 385.603 424.26 386.29 419.177C386.98 414.094 384.769 408.808 380.939 405.396Z" fill="url(#paint7_linear_1236_2105)"/>
<path d="M366.849 400.048C366.867 399.824 367.795 399.65 369.489 399.668C371.171 399.715 373.666 399.907 376.618 401.011C379.576 402.107 382.803 404.346 385.298 407.753C386.547 409.455 387.592 411.481 388.196 413.756C388.808 416.027 388.918 418.558 388.411 421.018C387.906 423.478 386.824 425.789 385.244 427.626C383.664 429.48 381.637 430.763 379.624 431.522C375.56 433.048 371.656 432.805 368.668 432.231C365.649 431.637 363.379 430.756 361.837 430.109C360.302 429.448 359.501 428.962 359.566 428.742C359.633 428.519 360.574 428.585 362.206 428.858C363.838 429.116 366.165 429.624 368.998 429.881C371.808 430.134 375.214 430.048 378.464 428.657C380.07 427.966 381.568 426.927 382.724 425.513C383.892 424.099 384.722 422.295 385.121 420.343C385.955 416.407 384.766 412.486 382.764 409.524C380.758 406.526 378.133 404.393 375.667 403.186C373.178 401.943 370.883 401.394 369.312 400.962C367.729 400.555 366.83 400.286 366.849 400.048Z" fill="#F5F5F5"/>
<path d="M286.133 503.875L267.184 556.963L333.113 580.873C335.012 574.436 305.491 549.421 305.491 549.421L319.028 515.906L286.133 503.875Z" fill="url(#paint8_linear_1236_2105)"/>
<g opacity="0.600006">
<g opacity="0.600006">
<path opacity="0.600006" d="M286.138 539.17C284.735 539.057 283.333 540.172 283.162 541.568C282.991 542.965 284.113 544.401 285.513 544.539C286.914 544.677 288.636 543.39 288.651 541.984C288.666 540.577 287.255 538.964 285.863 539.165" fill="white"/>
</g>
</g>
<path d="M267.184 556.961L269.096 551.603L331.723 576.585C331.723 576.585 334.196 578.926 333.113 580.873L267.184 556.961Z" fill="white"/>
<path d="M306.684 549.473C306.555 549.79 304.893 549.353 302.934 549.814C300.962 550.223 299.639 551.321 299.391 551.087C299.116 550.915 300.294 549.166 302.676 548.649C305.053 548.112 306.86 549.202 306.684 549.473Z" fill="#303030"/>
<path d="M312.557 554.84C312.519 555.179 310.924 555.221 309.337 556.187C307.722 557.104 306.912 558.476 306.597 558.347C306.276 558.288 306.736 556.321 308.733 555.158C310.719 553.979 312.662 554.531 312.557 554.84Z" fill="#303030"/>
<path d="M313.485 564.541C313.167 564.504 313.302 562.733 314.769 561.27C316.226 559.795 317.995 559.651 318.034 559.968C318.12 560.299 316.799 560.891 315.613 562.11C314.4 563.301 313.816 564.625 313.485 564.541Z" fill="#303030"/>
<path d="M308.921 541.493C308.68 541.738 307.364 540.758 305.5 540.222C303.646 539.647 302.009 539.745 301.942 539.408C301.84 539.107 303.653 538.417 305.841 539.08C308.033 539.726 309.172 541.298 308.921 541.493Z" fill="#303030"/>
<path d="M310.185 533.102C310.14 533.236 308.796 532.973 306.888 531.888C305.941 531.345 304.868 530.582 303.82 529.573C303.296 529.068 302.779 528.505 302.288 527.878C302.054 527.574 301.767 527.247 301.572 526.74C301.338 526.276 301.445 525.348 302.047 524.974C302.569 524.59 303.244 524.59 303.724 524.751C304.216 524.911 304.573 525.152 304.9 525.371C305.571 525.816 306.17 526.308 306.699 526.82C307.749 527.85 308.51 528.944 309.017 529.922C310.034 531.894 310.12 533.286 309.988 533.307C309.802 533.361 309.423 532.084 308.29 530.349C307.726 529.485 306.952 528.525 305.948 527.622C305.443 527.173 304.882 526.74 304.264 526.351C303.632 525.914 303.04 525.694 302.748 525.938C302.64 526.034 302.615 526.078 302.687 526.335C302.77 526.578 302.985 526.865 303.214 527.168C303.66 527.758 304.127 528.302 304.596 528.797C305.54 529.784 306.499 530.573 307.346 531.178C309.042 532.389 310.254 532.929 310.185 533.102Z" fill="#303030"/>
<path d="M309.6 533.412C309.467 533.42 309.248 532.035 309.886 529.906C310.205 528.853 310.767 527.639 311.647 526.456C312.09 525.867 312.611 525.289 313.215 524.756C313.838 524.244 314.625 523.543 315.926 523.852C316.587 524.065 316.944 524.771 316.971 525.274C317.028 525.799 316.931 526.197 316.871 526.607C316.713 527.421 316.425 528.171 316.066 528.831C315.35 530.16 314.352 531.119 313.419 531.73C311.51 532.971 310.028 532.869 310.04 532.75C309.992 532.55 311.34 532.336 312.92 531.051C313.7 530.418 314.518 529.508 315.091 528.327C315.376 527.741 315.601 527.09 315.722 526.398C315.873 525.659 315.815 524.999 315.528 524.975C315.202 524.851 314.453 525.176 313.98 525.639C313.427 526.107 312.938 526.614 312.513 527.131C311.667 528.173 311.074 529.249 310.679 530.194C309.886 532.096 309.792 533.426 309.6 533.412Z" fill="#303030"/>
<path d="M222.253 362.087C212.252 362.32 202.765 363.731 195.876 370.985C186.74 380.607 175.442 394.311 174.8 403.815C173.843 418.02 182.412 422.242 188.67 425.706C191.437 427.238 194.593 427.929 197.753 427.806L313.35 426.93L316.978 407.35L242.215 388.926L245.32 360.789L222.253 362.087Z" fill="#303030"/>
<path d="M245.32 360.788L281.683 359.113C281.683 359.113 344.502 362.604 357.9 374.886C371.301 387.169 369.626 401.126 365.159 414.524C360.692 427.923 321.332 513.617 321.332 513.617C321.332 513.617 324.524 519.065 322.728 524.504C319.948 532.923 312.461 534.279 312.461 534.279L277.504 521.434C277.504 521.434 272.76 519.759 276.11 515.293C279.46 510.826 281.692 509.989 281.692 509.989V501.057C281.692 501.057 293.976 478.726 295.093 475.655C296.209 472.585 307.982 427.136 307.982 427.136L315.801 413.698C315.801 413.698 296.888 404.804 280.497 398.358L242.215 388.925L245.32 360.788Z" fill="#303030"/>
<path d="M304.302 519.815C304.233 519.899 303.131 519.029 301.236 517.804C299.344 516.577 296.615 515.057 293.405 513.832C290.192 512.615 287.141 511.94 284.912 511.599C282.684 511.254 281.281 511.174 281.285 511.064C281.285 510.988 282.698 510.901 284.974 511.129C287.245 511.352 290.371 511.965 293.644 513.204C296.913 514.452 299.657 516.069 301.503 517.412C303.355 518.754 304.353 519.758 304.302 519.815Z" fill="#4F4F4F"/>
<path d="M321.773 513.679C321.702 513.736 320.921 512.925 319.741 511.541C318.563 510.156 316.993 508.193 315.349 505.96C313.704 503.723 312.296 501.642 311.327 500.106C310.356 498.567 309.814 497.581 309.89 497.53C309.97 497.479 310.65 498.372 311.719 499.837C312.94 501.513 314.341 503.437 315.89 505.561C317.456 507.671 318.877 509.581 320.114 511.244C321.194 512.701 321.846 513.618 321.773 513.679Z" fill="#4F4F4F"/>
<path d="M334.586 401.426C334.606 401.534 333.302 401.812 331.273 402.485C329.244 403.154 326.51 404.295 323.747 406.014C320.987 407.741 318.762 409.699 317.27 411.226C315.774 412.754 314.953 413.804 314.863 413.737C314.802 413.695 315.492 412.539 316.923 410.904C318.346 409.269 320.573 407.209 323.391 405.444C326.214 403.689 329.042 402.592 331.135 402.031C333.231 401.464 334.574 401.352 334.586 401.426Z" fill="#4F4F4F"/>
<path d="M298.826 462.109C298.803 462.103 298.853 461.842 298.969 461.354C299.109 460.795 299.286 460.091 299.505 459.223C300.023 457.295 300.732 454.652 301.6 451.423C303.453 444.777 305.972 435.741 308.755 425.758C310.205 420.752 311.45 415.977 312.849 411.654C314.475 407.366 317.048 404.059 319.43 401.612C321.835 399.159 324.085 397.51 325.68 396.462C326.489 395.949 327.12 395.56 327.566 395.326C328.008 395.084 328.244 394.965 328.256 394.986C328.285 395.038 327.381 395.58 325.829 396.677C324.287 397.784 322.102 399.476 319.774 401.941C317.464 404.396 314.978 407.682 313.429 411.869C312.087 416.13 310.843 420.961 309.398 425.949C306.542 435.91 303.957 444.923 302.056 451.554C301.105 454.759 300.325 457.382 299.758 459.294C299.49 460.149 299.272 460.842 299.099 461.39C298.942 461.868 298.849 462.116 298.826 462.109Z" fill="#4F4F4F"/>
<path d="M266.661 396.645C266.477 396.661 265.712 389.861 264.954 381.461C264.195 373.056 263.731 366.232 263.915 366.216C264.1 366.198 264.864 372.996 265.622 381.401C266.38 389.8 266.845 396.626 266.661 396.645Z" fill="#4F4F4F"/>
<path d="M206.136 414.795C206.033 414.845 205.472 413.746 204.334 412.134C203.202 410.52 201.417 408.438 199.053 406.585C196.681 404.739 194.23 403.51 192.39 402.802C190.551 402.089 189.348 401.811 189.371 401.699C189.383 401.628 190.629 401.742 192.55 402.356C194.467 402.961 197.029 404.158 199.467 406.056C201.896 407.96 203.678 410.156 204.73 411.869C205.788 413.585 206.202 414.768 206.136 414.795Z" fill="#4F4F4F"/>
<path d="M228.412 390.116C228.348 390.219 226.806 389.23 224.135 388.015C221.472 386.795 217.617 385.459 213.192 384.816C208.762 384.188 204.687 384.388 201.788 384.809C198.883 385.223 197.128 385.739 197.094 385.621C197.081 385.577 197.509 385.416 198.299 385.164C199.086 384.898 200.253 384.611 201.714 384.34C204.628 383.792 208.78 383.513 213.287 384.151C217.791 384.805 221.695 386.241 224.339 387.587C225.664 388.256 226.704 388.862 227.385 389.337C228.071 389.802 228.438 390.077 228.412 390.116Z" fill="#4F4F4F"/>
<path d="M315.485 407.331C315.479 407.354 315.167 407.301 314.579 407.181C313.927 407.039 313.074 406.855 312.013 406.624C309.712 406.107 306.511 405.388 302.589 404.508C294.634 402.725 283.627 400.336 271.424 397.918C259.219 395.504 248.131 393.519 240.096 392.136C236.133 391.457 232.901 390.901 230.578 390.503C229.508 390.312 228.65 390.157 227.992 390.04C227.403 389.927 227.095 389.856 227.098 389.834C227.102 389.809 227.416 389.836 228.013 389.906C228.674 389.992 229.54 390.104 230.618 390.245C232.879 390.549 236.144 391.034 240.172 391.668C248.232 392.931 259.34 394.844 271.556 397.26C283.766 399.678 294.765 402.144 302.696 404.044C306.664 404.995 309.867 405.792 312.073 406.37C313.123 406.651 313.966 406.876 314.61 407.048C315.19 407.212 315.49 407.307 315.485 407.331Z" fill="#4F4F4F"/>
<path d="M242.217 392.243C242.088 392.282 241.817 390.716 240.616 388.551C240.009 387.477 239.13 386.287 237.972 385.129C236.825 383.964 235.42 382.802 233.924 381.631C230.908 379.318 227.842 377.685 225.645 376.488C223.433 375.303 222.064 374.564 222.106 374.476C222.145 374.396 223.585 374.984 225.859 376.064C228.12 377.158 231.254 378.738 234.334 381.098C235.852 382.288 237.257 383.472 238.417 384.7C239.584 385.915 240.46 387.185 241.035 388.325C241.606 389.471 241.912 390.461 242.068 391.152C242.221 391.844 242.257 392.234 242.217 392.243Z" fill="#4F4F4F"/>
<path d="M370.969 409.721C371.117 409.864 369.182 411.818 367.677 414.79C366.14 417.746 365.679 420.455 365.476 420.418C365.31 420.419 365.484 417.561 367.08 414.482C368.651 411.393 370.872 409.587 370.969 409.721Z" fill="#303030"/>
<g opacity="0.300003">
<g opacity="0.300003">
<path opacity="0.300003" d="M288.227 277.636L296.501 335.92L296.913 336.852C298.868 316.799 295.859 296.281 288.227 277.636Z" fill="#303030"/>
</g>
</g>
<path d="M332.79 311.129L305.884 358.184L239.591 359.625L239.426 362.627L303.616 362.15L305.651 362.08L373.434 362.215L387.132 338.593L404.63 313.516C405.777 311.871 404.597 309.617 402.591 309.625L334.929 309.883C334.046 309.887 333.23 310.361 332.79 311.129Z" fill="#E0E0E0"/>
<path d="M387.132 338.592C387.132 338.592 390.615 341.785 390.065 344.496C389.516 347.208 389.699 349.224 387.132 349.408C387.132 349.408 387.317 352.891 383.649 353.441C383.649 353.441 384.434 357.692 379.485 358.427C379.485 358.427 377.966 362.973 374.85 361.873C371.733 360.774 369.716 359.49 369.716 359.49L368.799 357.842C368.799 357.842 364.208 356.115 365.34 353.521C366.025 351.948 368.401 351.539 368.401 351.539C368.401 351.539 367.412 349.231 368.694 347.507C369.796 346.029 373.38 347.251 373.38 347.251C373.38 347.251 373.168 345.341 374.516 343.742C375.735 342.295 381.443 346.229 381.443 346.229L384.556 342.51L387.132 338.592Z" fill="#FFBE9D"/>
<path d="M379.487 358.428C379.389 358.585 376.827 357.17 373.767 355.268C370.706 353.366 368.303 351.697 368.401 351.54C368.499 351.382 371.059 352.796 374.122 354.697C377.182 356.6 379.583 358.27 379.487 358.428Z" fill="#EB996E"/>
<path d="M383.647 353.442C383.552 353.6 381.175 352.342 378.339 350.634C375.503 348.924 373.283 347.409 373.378 347.251C373.473 347.092 375.849 348.35 378.686 350.059C381.522 351.769 383.743 353.283 383.647 353.442Z" fill="#EB996E"/>
<path d="M377.975 344.111C378.078 343.922 380.205 345.043 382.681 346.609C385.158 348.19 387.156 349.42 387.107 349.546C387.014 349.765 384.801 348.76 382.325 347.179C379.839 345.605 377.901 344.248 377.975 344.111Z" fill="#EB996E"/>
<path d="M404.636 311.409C404.636 311.42 404.526 311.432 404.312 311.442C404.058 311.451 403.745 311.463 403.361 311.477C402.469 311.491 401.247 311.513 399.7 311.54C396.465 311.565 391.88 311.601 386.239 311.647C374.824 311.672 359.146 311.705 341.829 311.745C340.745 311.744 339.667 311.744 338.597 311.744C337.58 311.665 336.659 312.114 336.132 312.908C335.111 314.747 334.105 316.559 333.118 318.342C331.137 321.916 329.225 325.366 327.404 328.654C323.755 335.211 320.465 341.118 317.694 346.098C314.929 351.015 312.683 355.01 311.097 357.831C310.326 359.171 309.718 360.231 309.275 361.003C309.076 361.333 308.915 361.601 308.786 361.819C308.673 362.002 308.609 362.092 308.599 362.086C308.589 362.08 308.633 361.979 308.725 361.785C308.841 361.558 308.982 361.28 309.157 360.937C309.574 360.148 310.145 359.07 310.87 357.702C312.411 354.856 314.594 350.826 317.28 345.865C320.018 340.865 323.263 334.932 326.865 328.351C328.675 325.057 330.576 321.6 332.544 318.018C333.538 316.221 334.549 314.394 335.575 312.54C336.2 311.54 337.471 310.975 338.597 311.073C339.667 311.073 340.745 311.072 341.829 311.072C359.146 311.112 374.824 311.146 386.239 311.17C391.88 311.217 396.465 311.253 399.7 311.277C401.247 311.304 402.469 311.326 403.361 311.34C403.746 311.354 404.058 311.366 404.312 311.375C404.526 311.385 404.636 311.397 404.636 311.409Z" fill="#303030"/>
<path d="M356.941 335.063C355.742 336.389 355.715 338.315 356.877 339.364C358.041 340.412 359.953 340.187 361.151 338.859C362.347 337.532 362.377 335.607 361.213 334.558C360.051 333.51 358.138 333.735 356.941 335.063Z" fill="white"/>
<g opacity="0.300003">
<g opacity="0.300003">
<path opacity="0.300003" d="M168.762 316.864C168.187 317.096 167.533 317.481 167.527 318.098C167.521 318.601 167.989 319.004 168.479 319.11C168.97 319.215 170.742 318.481 171.232 318.372C178.199 316.835 183.944 318.308 190.585 320.918L190.8 320.698C188.151 315.106 176.258 313.846 168.762 316.864Z" fill="#303030"/>
</g>
</g>
<path d="M527.902 578.493C527.902 578.679 411.308 578.828 267.515 578.828C123.671 578.828 7.10156 578.679 7.10156 578.493C7.10156 578.307 123.671 578.157 267.515 578.157C411.308 578.157 527.902 578.307 527.902 578.493Z" fill="#303030"/>
<path d="M132.698 167.658C132.921 167.881 175.723 153.169 175.723 153.169L159.265 115.402L121.164 129.968L142.123 142.01L132.698 167.658Z" fill="#4F4F4F"/>
<path d="M152.773 126.781V75.3567C152.773 75.3567 211.82 64.5635 254.36 65.1989C296.898 65.8331 340.709 72.8163 340.709 72.8163V122.186C340.709 122.186 207.376 110.274 152.773 126.781Z" fill="#4F4F4F"/>
<path d="M152.469 126.825L175.723 153.391V122.186C175.723 122.186 156.273 124.513 152.469 126.825Z" fill="#303030"/>
<path d="M152.776 75.3559C152.962 75.3572 153.043 86.8799 152.959 101.09C152.874 115.307 152.655 126.826 152.469 126.824C152.284 126.823 152.203 115.303 152.288 101.086C152.373 86.8761 152.591 75.3546 152.776 75.3559Z" fill="#303030"/>
<path d="M360.724 163.712C360.501 163.935 317.699 149.223 317.699 149.223L334.157 111.456L372.256 126.022L351.299 138.065L360.724 163.712Z" fill="#4F4F4F"/>
<path d="M340.952 122.881L317.699 149.447V120.499C325.451 120.759 333.202 121.552 340.952 122.881Z" fill="#303030"/>
<path d="M340.709 72.8194C340.895 72.8181 341.099 84.0251 341.166 97.8472C341.233 111.675 341.137 122.882 340.95 122.883C340.766 122.883 340.562 111.678 340.494 97.8511C340.427 84.029 340.522 72.8194 340.709 72.8194Z" fill="#303030"/>
<path d="M186.07 97.9066C185.502 93.8066 188.244 90.4361 192.479 89.8484C194.83 89.5223 196.912 90.1049 198.41 91.4827L196.648 93.6274C195.588 92.7046 194.366 92.3205 193.006 92.5087C190.461 92.8618 188.901 94.8996 189.257 97.4645C189.613 100.029 191.669 101.567 194.213 101.214C195.574 101.024 196.645 100.322 197.41 99.1272L199.69 100.711C198.625 102.464 196.782 103.591 194.41 103.919C190.194 104.504 186.639 102.007 186.07 97.9066Z" fill="white"/>
<path d="M211.887 94.7613C211.62 92.1667 209.604 90.5788 207.164 90.8302C204.726 91.0815 203.074 93.0445 203.341 95.6403C203.608 98.2349 205.625 99.8215 208.064 99.5702C210.503 99.3201 212.154 97.3559 211.887 94.7613ZM200.142 95.969C199.724 91.9115 202.576 88.581 206.889 88.1377C211.181 87.6968 214.668 90.3546 215.087 94.4326C215.507 98.5094 212.634 101.822 208.341 102.263C204.028 102.706 200.558 100.026 200.142 95.969" fill="white"/>
<path d="M230.522 100.263L229.974 92.046L226.378 99.0757L224.95 99.1672L220.513 92.8297L221.031 100.874L218.056 101.064L217.176 87.366L219.798 87.1972L225.473 95.3804L229.974 86.5424L232.576 86.3761L233.497 100.072L230.522 100.263Z" fill="white"/>
<path d="M245.05 90.976C245.007 89.4667 244.002 88.6122 242.06 88.6663L239.472 88.7385L239.606 93.5036L242.194 93.4301C244.136 93.376 245.091 92.466 245.05 90.976ZM248.266 90.8858C248.352 93.9444 246.11 95.9112 242.443 96.0144L239.678 96.0917L239.785 99.8759L236.608 99.9648L236.223 86.2393L242.165 86.0731C245.831 85.97 248.179 87.8079 248.266 90.8858Z" fill="white"/>
<path d="M250.68 85.8976H253.856V97.0349H260.739V99.623H250.68V85.8976Z" fill="white"/>
<path d="M273.116 97.4213L273.043 99.9707L262.414 99.6614L262.814 85.9359L273.187 86.2375L273.113 88.7869L265.897 88.5768L265.811 91.5568L272.183 91.7424L272.112 94.2132L265.738 94.0276L265.646 97.2047L273.116 97.4213Z" fill="white"/>
<path d="M278.984 89.1567L274.602 88.8924L274.758 86.3095L286.695 87.03L286.539 89.6129L282.155 89.3474L281.485 100.463L278.314 100.272L278.984 89.1567Z" fill="white"/>
<path d="M298.255 99.3046L298.019 101.844L287.434 100.863L288.701 87.1929L299.033 88.1492L298.797 90.6884L291.61 90.022L291.335 92.9903L297.682 93.5793L297.454 96.0398L291.107 95.4508L290.815 98.6151L298.255 99.3046Z" fill="white"/>
<path d="M306.775 100.313C309.477 100.674 311.46 99.2977 311.807 96.6941C312.157 94.0893 310.603 92.241 307.902 91.8801L305.027 91.496L303.901 99.9293L306.775 100.313ZM302.224 88.4916L308.403 89.3165C312.853 89.9107 315.545 93.0002 314.995 97.1195C314.444 101.239 311.036 103.512 306.586 102.918L300.406 102.092L302.224 88.4916Z" fill="white"/>
<path d="M367.125 77.4969L370.494 81.459L380.004 77.4969L377.232 73.335L367.125 77.4969Z" fill="#4F4F4F"/>
<path d="M362.766 58.6737C362.766 61.4101 360.549 63.627 357.813 63.627C355.078 63.627 352.859 61.4101 352.859 58.6737C352.859 55.9387 355.078 53.7205 357.813 53.7205C360.549 53.7205 362.766 55.9387 362.766 58.6737Z" fill="url(#paint9_linear_1236_2105)"/>
<path d="M251.883 132.497C251.883 133.864 250.775 134.973 249.407 134.973C248.038 134.973 246.93 133.864 246.93 132.497C246.93 131.129 248.038 130.021 249.407 130.021C250.775 130.021 251.883 131.129 251.883 132.497Z" fill="url(#paint10_linear_1236_2105)"/>
<path d="M136.583 95.3005C136.583 96.338 135.741 97.1797 134.704 97.1797C133.666 97.1797 132.824 96.338 132.824 95.3005C132.824 94.2629 133.666 93.4213 134.704 93.4213C135.741 93.4213 136.583 94.2629 136.583 95.3005Z" fill="url(#paint11_linear_1236_2105)"/>
<path d="M129.598 74.5842L135.145 74.9219L137.779 64.0255L132.598 64.2369L129.598 74.5842Z" fill="#4F4F4F"/>
<path d="M302.84 161.624L304.705 166.859L315.762 165.007L313.537 160.326L302.84 161.624Z" fill="url(#paint12_linear_1236_2105)"/>
<path d="M190.982 131.43L187.566 135.813L195.063 144.148L197.819 139.757L190.982 131.43Z" fill="#4F4F4F"/>
<path d="M177.742 28.478L190.837 41.8272L209.259 34.8658L209.987 39.435L202.008 55.773L209.362 67.9686L208.746 71.6072L190.92 68.6079L180.383 80.1758L177.908 78.2953L175.725 63.5889L159.095 54.9301L158.367 51.5751L175.11 46.9905L177.742 28.478Z" fill="url(#paint13_linear_1236_2105)"/>
<g opacity="0.300003">
<g opacity="0.300003">
<path opacity="0.300003" d="M177.742 28.478L190.837 41.8272L209.259 34.8658L209.987 39.435L202.008 55.773L209.362 67.9686L208.746 71.6072L190.92 68.6079L180.383 80.1758L177.908 78.2953L175.725 63.5889L159.095 54.9301L158.367 51.5751L175.11 46.9905L177.742 28.478Z" fill="#303030"/>
</g>
</g>
<path d="M177.742 24.7334L190.837 38.0826L209.259 34.8642L200.608 51.4433L209.362 67.967L190.92 64.8633L177.908 78.2949L175.163 59.7979L158.367 51.5748L175.11 43.2459L177.742 24.7334Z" fill="url(#paint14_linear_1236_2105)"/>
<path d="M313.409 28.478L300.314 41.8272L281.892 34.8658L281.164 39.435L289.143 55.773L281.789 67.9686L282.405 71.6072L300.229 68.6079L310.768 80.1758L313.242 78.2953L315.425 63.5889L332.057 54.9301L332.784 51.5751L316.04 46.9905L313.409 28.478Z" fill="url(#paint15_linear_1236_2105)"/>
<g opacity="0.300003">
<g opacity="0.300003">
<path opacity="0.300003" d="M313.409 28.478L300.314 41.8272L281.892 34.8658L281.164 39.435L289.143 55.773L281.789 67.9686L282.405 71.6072L300.229 68.6079L310.768 80.1758L313.242 78.2953L315.425 63.5889L332.057 54.9301L332.784 51.5751L316.04 46.9905L313.409 28.478Z" fill="#303030"/>
</g>
</g>
<path d="M313.409 24.7334L300.314 38.0826L281.892 34.8642L290.542 51.4433L281.789 67.967L300.229 64.8633L313.241 78.2949L315.988 59.7979L332.783 51.5748L316.04 43.2459L313.409 24.7334Z" fill="url(#paint16_linear_1236_2105)"/>
<path d="M245.148 5.06533L256.04 26.3399L281.167 24.8628L280.315 30.7144L264.358 47.6093L268.683 65.2891L266.545 69.4961L245.941 59.0457L228.677 69.1455L226.375 65.9104L229.313 47.135L212.32 30.2375L212.711 25.8669L234.885 26.6505L245.148 5.06533Z" fill="url(#paint17_linear_1236_2105)"/>
<g opacity="0.300003">
<g opacity="0.300003">
<path opacity="0.300003" d="M245.148 5.06533L256.04 26.3399L281.167 24.8628L280.315 30.7144L264.358 47.6093L268.683 65.2891L266.545 69.4961L245.941 59.0457L228.677 69.1455L226.375 65.9104L229.313 47.135L212.32 30.2375L212.711 25.8669L234.885 26.6505L245.148 5.06533Z" fill="#303030"/>
</g>
</g>
<path d="M246.57 0.496582L257.462 21.7711L281.162 24.8606L264.293 41.7929L268.678 65.2882L247.361 54.477L226.37 65.9082L230.066 42.2956L212.707 25.8647L236.307 22.0818L246.57 0.496582Z" fill="url(#paint18_linear_1236_2105)"/>
<path d="M289.965 191.403L308.17 193.409C312.552 187.171 318.657 182.027 326.173 178.793C347.788 169.491 372.852 179.472 382.154 201.086C391.456 222.699 381.476 247.762 359.861 257.064C338.245 266.366 313.182 256.384 303.878 234.77C299.994 225.746 299.484 216.122 301.767 207.293L301.754 207.313L289.965 191.403Z" fill="#FAFAFA"/>
<path d="M289.965 191.403C290.68 192.35 294.359 197.23 301.889 207.214L301.608 207.232L301.621 207.211C301.665 207.13 301.767 207.101 301.848 207.145C301.915 207.184 301.947 207.263 301.928 207.335C300.422 213.221 299.842 220.975 302.21 229.339C302.815 231.413 303.545 233.535 304.566 235.6C305.083 236.626 305.574 237.688 306.135 238.731C306.764 239.735 307.402 240.752 308.048 241.783C310.814 245.785 314.415 249.537 318.812 252.588C323.197 255.64 328.371 257.983 334.012 259.217C339.641 260.448 345.743 260.589 351.747 259.298C357.738 257.999 363.622 255.354 368.724 251.434C373.802 247.514 378.206 242.385 381.035 236.325C383.944 230.173 385.501 223.45 385.26 216.88C385.076 210.313 383.355 203.967 380.486 198.421C377.618 192.875 373.627 188.099 368.966 184.53C364.321 180.938 359.109 178.46 353.874 177.061C348.634 175.654 343.377 175.327 338.488 175.82C333.583 176.33 329.128 177.801 325.146 179.51C317.213 183.151 311.746 188.639 308.303 193.5C308.268 193.55 308.208 193.573 308.152 193.568C296.634 192.197 291.091 191.537 289.965 191.403C291.093 191.516 296.647 192.079 308.188 193.248L308.039 193.315C311.468 188.389 316.948 182.808 324.95 179.088C328.965 177.341 333.468 175.834 338.432 175.299C343.379 174.782 348.706 175.094 354.022 176.506C359.331 177.908 364.622 180.408 369.344 184.044C374.081 187.656 378.14 192.496 381.058 198.123C383.98 203.748 385.735 210.194 385.924 216.864C386.174 223.537 384.595 230.367 381.639 236.616C378.765 242.772 374.291 247.983 369.129 251.962C363.942 255.94 357.967 258.62 351.881 259.931C345.784 261.235 339.588 261.081 333.879 259.82C328.16 258.558 322.919 256.169 318.481 253.062C314.033 249.959 310.396 246.143 307.61 242.081C306.961 241.034 306.319 240.002 305.685 238.984C305.123 237.927 304.63 236.851 304.11 235.809C303.088 233.717 302.357 231.566 301.755 229.466C299.401 220.998 300.038 213.17 301.604 207.25L301.912 207.375L301.901 207.395C301.857 207.475 301.755 207.505 301.675 207.46C301.653 207.449 301.634 207.431 301.62 207.412C294.261 197.303 290.663 192.362 289.965 191.403Z" fill="#303030"/>
<path d="M327.308 202.76C327.32 202.772 327.33 202.971 327.34 203.349C327.349 203.772 327.361 204.317 327.375 205.001C327.392 206.49 327.419 208.573 327.45 211.196C327.487 216.54 327.538 224.075 327.6 233.092L327.308 232.802C336.139 232.789 346.541 232.773 357.639 232.757C357.717 232.684 357.006 233.389 357.307 233.087V233.079V233.063V233.03V232.965V232.835V232.575V232.055V231.02V228.965C357.308 227.598 357.308 226.248 357.309 224.91C357.313 222.233 357.316 219.615 357.318 217.068C357.331 211.978 357.343 207.173 357.353 202.76L357.642 203.051C348.623 202.989 341.087 202.939 335.745 202.903C333.12 202.87 331.039 202.845 329.548 202.827C328.865 202.813 328.32 202.801 327.897 202.792C327.52 202.782 327.32 202.772 327.308 202.76C327.297 202.75 327.477 202.738 327.833 202.728C328.243 202.719 328.769 202.707 329.43 202.694C330.902 202.676 332.963 202.65 335.559 202.618C340.948 202.582 348.547 202.531 357.642 202.47L357.932 202.467L357.933 202.76C357.943 207.173 357.954 211.978 357.967 217.068C357.969 219.615 357.972 222.233 357.976 224.91C357.976 226.248 357.977 227.598 357.977 228.965C357.978 229.646 357.978 230.332 357.978 231.02V232.055V232.575V232.835V232.965V233.03V233.063V233.079V233.087C358.277 232.79 357.571 233.503 357.639 233.428C346.541 233.411 336.139 233.396 327.308 233.383L327.016 233.382L327.018 233.092C327.079 223.998 327.129 216.4 327.166 211.012C327.199 208.416 327.224 206.353 327.241 204.882C327.257 204.22 327.267 203.693 327.276 203.286C327.286 202.928 327.297 202.75 327.308 202.76Z" fill="#303030"/>
<path d="M354.37 207.776C354.806 208.121 350.724 213.997 345.255 220.901C344.162 222.277 343.097 223.592 342.109 224.787L341.46 225.57L340.735 224.917C335.996 220.649 332.782 217.374 333.073 217.038C333.363 216.7 337.073 219.404 341.985 223.469L340.61 223.6C341.548 222.364 342.583 221.027 343.676 219.649C349.145 212.747 353.934 207.43 354.37 207.776Z" fill="url(#paint19_linear_1236_2105)"/>
<defs>
<linearGradient id="paint0_linear_1236_2105" x1="443.633" y1="498.142" x2="473.48" y2="498.142" gradientUnits="userSpaceOnUse">
<stop stop-color="#F34242"/>
<stop offset="1" stop-color="#F1408B"/>
</linearGradient>
<linearGradient id="paint1_linear_1236_2105" x1="435.906" y1="450.989" x2="457.486" y2="450.989" gradientUnits="userSpaceOnUse">
<stop stop-color="#F34242"/>
<stop offset="1" stop-color="#F1408B"/>
</linearGradient>
<linearGradient id="paint2_linear_1236_2105" x1="398.203" y1="460.101" x2="433.791" y2="460.101" gradientUnits="userSpaceOnUse">
<stop stop-color="#F34242"/>
<stop offset="1" stop-color="#F1408B"/>
</linearGradient>
<linearGradient id="paint3_linear_1236_2105" x1="59.9375" y1="531.657" x2="140.178" y2="531.657" gradientUnits="userSpaceOnUse">
<stop stop-color="#F34242"/>
<stop offset="1" stop-color="#F1408B"/>
</linearGradient>
<linearGradient id="paint4_linear_1236_2105" x1="65.9336" y1="557.297" x2="134.19" y2="557.297" gradientUnits="userSpaceOnUse">
<stop stop-color="#F34242"/>
<stop offset="1" stop-color="#F1408B"/>
</linearGradient>
<linearGradient id="paint5_linear_1236_2105" x1="175.719" y1="304.057" x2="371.225" y2="304.057" gradientUnits="userSpaceOnUse">
<stop stop-color="#F34242"/>
<stop offset="1" stop-color="#F1408B"/>
</linearGradient>
<linearGradient id="paint6_linear_1236_2105" x1="155.754" y1="300.988" x2="222.416" y2="300.988" gradientUnits="userSpaceOnUse">
<stop stop-color="#F34242"/>
<stop offset="1" stop-color="#F1408B"/>
</linearGradient>
<linearGradient id="paint7_linear_1236_2105" x1="357.988" y1="415.81" x2="386.416" y2="415.81" gradientUnits="userSpaceOnUse">
<stop stop-color="#F34242"/>
<stop offset="1" stop-color="#F1408B"/>
</linearGradient>
<linearGradient id="paint8_linear_1236_2105" x1="267.184" y1="542.651" x2="333.201" y2="542.651" gradientUnits="userSpaceOnUse">
<stop stop-color="#F34242"/>
<stop offset="1" stop-color="#F1408B"/>
</linearGradient>
<linearGradient id="paint9_linear_1236_2105" x1="352.859" y1="58.7094" x2="362.766" y2="58.7094" gradientUnits="userSpaceOnUse">
<stop stop-color="#F34242"/>
<stop offset="1" stop-color="#F1408B"/>
</linearGradient>
<linearGradient id="paint10_linear_1236_2105" x1="246.93" y1="132.514" x2="251.883" y2="132.514" gradientUnits="userSpaceOnUse">
<stop stop-color="#F34242"/>
<stop offset="1" stop-color="#F1408B"/>
</linearGradient>
<linearGradient id="paint11_linear_1236_2105" x1="132.824" y1="95.314" x2="136.583" y2="95.314" gradientUnits="userSpaceOnUse">
<stop stop-color="#F34242"/>
<stop offset="1" stop-color="#F1408B"/>
</linearGradient>
<linearGradient id="paint12_linear_1236_2105" x1="302.84" y1="163.616" x2="315.762" y2="163.616" gradientUnits="userSpaceOnUse">
<stop stop-color="#F34242"/>
<stop offset="1" stop-color="#F1408B"/>
</linearGradient>
<linearGradient id="paint13_linear_1236_2105" x1="158.367" y1="54.5129" x2="209.987" y2="54.5129" gradientUnits="userSpaceOnUse">
<stop stop-color="#F34242"/>
<stop offset="1" stop-color="#F1408B"/>
</linearGradient>
<linearGradient id="paint14_linear_1236_2105" x1="158.367" y1="51.7068" x2="209.362" y2="51.7068" gradientUnits="userSpaceOnUse">
<stop stop-color="#F34242"/>
<stop offset="1" stop-color="#F1408B"/>
</linearGradient>
<linearGradient id="paint15_linear_1236_2105" x1="281.164" y1="54.5129" x2="332.784" y2="54.5129" gradientUnits="userSpaceOnUse">
<stop stop-color="#F34242"/>
<stop offset="1" stop-color="#F1408B"/>
</linearGradient>
<linearGradient id="paint16_linear_1236_2105" x1="281.789" y1="51.7068" x2="332.783" y2="51.7068" gradientUnits="userSpaceOnUse">
<stop stop-color="#F34242"/>
<stop offset="1" stop-color="#F1408B"/>
</linearGradient>
<linearGradient id="paint17_linear_1236_2105" x1="212.32" y1="37.5125" x2="281.167" y2="37.5125" gradientUnits="userSpaceOnUse">
<stop stop-color="#F34242"/>
<stop offset="1" stop-color="#F1408B"/>
</linearGradient>
<linearGradient id="paint18_linear_1236_2105" x1="212.707" y1="33.4377" x2="281.162" y2="33.4377" gradientUnits="userSpaceOnUse">
<stop stop-color="#F34242"/>
<stop offset="1" stop-color="#F1408B"/>
</linearGradient>
<linearGradient id="paint19_linear_1236_2105" x1="333.055" y1="216.729" x2="354.402" y2="216.729" gradientUnits="userSpaceOnUse">
<stop stop-color="#F34242"/>
<stop offset="1" stop-color="#F1408B"/>
</linearGradient>
</defs>
</svg>
