<svg width="24" height="24" viewBox="0 0 24 24" fill="none" xmlns="http://www.w3.org/2000/svg">
<path d="M11.9994 12.8653H16.7247C16.9353 13.6811 17.4362 14.392 18.1336 14.8649C18.8309 15.3377 19.6767 15.54 20.5125 15.4339C21.3483 15.3277 22.1167 14.9204 22.6736 14.2882C23.2306 13.656 23.5379 12.8424 23.5379 11.9999C23.5379 11.1574 23.2306 10.3438 22.6736 9.71164C22.1167 9.07947 21.3483 8.67212 20.5125 8.56596C19.6767 8.4598 18.8309 8.66211 18.1336 9.13497C17.4362 9.60783 16.9353 10.3188 16.7247 11.1345H11.9994V4.78836H16.7247C16.9353 5.60412 17.4362 6.31506 18.1336 6.78792C18.8309 7.26077 19.6767 7.46308 20.5125 7.35692C21.3483 7.25076 22.1167 6.84342 22.6736 6.21125C23.2306 5.57908 23.5379 4.76549 23.5379 3.92297C23.5379 3.08046 23.2306 2.26686 22.6736 1.63469C22.1167 1.00253 21.3483 0.595184 20.5125 0.489024C19.6767 0.382863 18.8309 0.585172 18.1336 1.05803C17.4362 1.53089 16.9353 2.24183 16.7247 3.05759H11.9994C11.5405 3.05805 11.1005 3.24054 10.7761 3.56502C10.4516 3.88951 10.2691 4.32947 10.2686 4.78836V11.1345L7.2741 11.1345C7.06347 10.3187 6.56255 9.60778 5.86524 9.13492C5.16793 8.66207 4.32211 8.45976 3.48631 8.56592C2.65051 8.67208 1.88212 9.07942 1.32516 9.71159C0.768212 10.3438 0.460938 11.1574 0.460938 11.9999C0.460938 12.8424 0.768212 13.656 1.32516 14.2881C1.88212 14.9203 2.65051 15.3277 3.48631 15.4338C4.32211 15.54 5.16793 15.3377 5.86524 14.8648C6.56255 14.392 7.06347 13.681 7.2741 12.8653L10.2686 12.8653V19.2114C10.2691 19.6703 10.4516 20.1103 10.7761 20.4348C11.1005 20.7592 11.5405 20.9417 11.9994 20.9422H16.7247C16.9353 21.758 17.4362 22.4689 18.1336 22.9418C18.8309 23.4146 19.6767 23.6169 20.5125 23.5108C21.3483 23.4046 22.1167 22.9973 22.6736 22.3651C23.2306 21.7329 23.5379 20.9193 23.5379 20.0768C23.5379 19.2343 23.2306 18.4207 22.6736 17.7885C22.1167 17.1564 21.3483 16.749 20.5125 16.6429C19.6767 16.5367 18.8309 16.739 18.1336 17.2119C17.4362 17.6847 16.9353 18.3957 16.7247 19.2114H11.9994V12.8653ZM20.0634 10.2691C20.4057 10.2691 20.7403 10.3707 21.0249 10.5608C21.3095 10.751 21.5314 11.0213 21.6624 11.3376C21.7934 11.6538 21.8277 12.0018 21.7609 12.3376C21.6941 12.6733 21.5292 12.9817 21.2872 13.2238C21.0451 13.4658 20.7367 13.6306 20.401 13.6974C20.0653 13.7642 19.7173 13.7299 19.401 13.5989C19.0848 13.4679 18.8145 13.2461 18.6243 12.9615C18.4341 12.6769 18.3326 12.3422 18.3326 11.9999C18.333 11.541 18.5155 11.1011 18.84 10.7766C19.1645 10.4521 19.6045 10.2696 20.0634 10.2691ZM20.0634 2.1922C20.4057 2.1922 20.7403 2.29371 21.0249 2.48389C21.3095 2.67407 21.5314 2.94438 21.6624 3.26064C21.7934 3.57689 21.8277 3.92489 21.7609 4.26063C21.6941 4.59637 21.5292 4.90476 21.2872 5.14681C21.0451 5.38886 20.7367 5.5537 20.401 5.62049C20.0653 5.68727 19.7173 5.65299 19.401 5.522C19.0848 5.391 18.8145 5.16916 18.6243 4.88454C18.4341 4.59991 18.3326 4.26529 18.3326 3.92297C18.333 3.46408 18.5155 3.02412 18.84 2.69964C19.1645 2.37516 19.6045 2.19266 20.0634 2.1922ZM3.93544 13.7306C3.59313 13.7306 3.2585 13.6291 2.97388 13.439C2.68925 13.2488 2.46742 12.9785 2.33642 12.6622C2.20542 12.346 2.17115 11.998 2.23793 11.6622C2.30471 11.3265 2.46955 11.0181 2.7116 10.776C2.95366 10.534 3.26205 10.3691 3.59779 10.3024C3.93352 10.2356 4.28152 10.2698 4.59778 10.4008C4.91404 10.5318 5.18434 10.7537 5.37452 11.0383C5.5647 11.3229 5.66621 11.6576 5.66621 11.9999C5.66575 12.4588 5.48326 12.8987 5.15877 13.2232C4.83429 13.5477 4.39433 13.7302 3.93544 13.7306ZM20.0634 18.346C20.4057 18.346 20.7403 18.4475 21.0249 18.6377C21.3095 18.8279 21.5314 19.0982 21.6624 19.4145C21.7934 19.7307 21.8277 20.0787 21.7609 20.4145C21.6941 20.7502 21.5292 21.0586 21.2872 21.3006C21.0451 21.5427 20.7367 21.7075 20.401 21.7743C20.0653 21.8411 19.7173 21.8068 19.401 21.6758C19.0848 21.5448 18.8145 21.323 18.6243 21.0384C18.4341 20.7537 18.3326 20.4191 18.3326 20.0768C18.333 19.6179 18.5155 19.178 18.84 18.8535C19.1645 18.529 19.6045 18.3465 20.0634 18.346Z" fill="#E14A48"/>
</svg>
