<svg width="13" height="12" viewBox="0 0 13 12" fill="none" xmlns="http://www.w3.org/2000/svg">
<path d="M11.7786 0.716247C12.1203 1.05796 12.1203 1.61198 11.7786 1.95368L7.73731 5.99492L11.7786 10.0361C12.1203 10.3779 12.1203 10.9319 11.7786 11.2736C11.4369 11.6153 10.8829 11.6153 10.5412 11.2736L6.49986 7.23235L2.45856 11.2736C2.11685 11.6153 1.56283 11.6153 1.22112 11.2736C0.879415 10.9319 0.879418 10.3779 1.22113 10.0361L5.26242 5.99492L1.22113 1.95368C0.879418 1.61198 0.879415 1.05796 1.22112 0.716247C1.56283 0.374536 2.11685 0.374532 2.45856 0.716238L6.49986 4.75749L10.5412 0.716238C10.8829 0.374532 11.4369 0.374536 11.7786 0.716247Z" fill="#050000"/>
</svg>
