<svg width="8" height="8" viewBox="0 0 8 8" fill="none" xmlns="http://www.w3.org/2000/svg">
<path fill-rule="evenodd" clip-rule="evenodd" d="M3.99962 7.46153C5.91138 7.46153 7.46116 5.91175 7.46116 3.99999C7.46116 2.08824 5.91138 0.538452 3.99962 0.538452C2.08787 0.538452 0.538086 2.08824 0.538086 3.99999C0.538086 5.91175 2.08787 7.46153 3.99962 7.46153ZM3.64862 3.54153C3.59503 3.48512 3.56823 3.41602 3.56823 3.33422C3.56823 3.24396 3.60772 3.17345 3.6867 3.12268C3.76567 3.07191 3.87285 3.04653 4.00823 3.04653C4.12952 3.04653 4.26913 3.07191 4.42708 3.12268C4.58785 3.17345 4.74439 3.24537 4.8967 3.33845L5.12516 2.84345C5.00388 2.76448 4.86708 2.6982 4.71477 2.64461C4.56247 2.59102 4.40593 2.55576 4.24516 2.53884V1.98884L3.82631 1.99307V2.54307C3.55554 2.57973 3.34118 2.67281 3.18323 2.8223C3.02529 2.97179 2.94631 3.15935 2.94631 3.38499C2.94631 3.57114 2.99144 3.72204 3.0817 3.83768C3.17195 3.9505 3.28054 4.03512 3.40747 4.09153C3.53439 4.14794 3.69798 4.20576 3.89823 4.26499C4.0449 4.3073 4.16054 4.34537 4.24516 4.37922C4.32977 4.41307 4.39888 4.4582 4.45247 4.51461C4.50888 4.5682 4.53708 4.6373 4.53708 4.72191C4.53708 4.82627 4.49195 4.90948 4.4017 4.97153C4.31144 5.03076 4.18734 5.06037 4.02939 5.06037C3.86862 5.06037 3.69516 5.02089 3.509 4.94191C3.32285 4.86294 3.15503 4.75435 3.00554 4.61614L2.76862 5.09845C2.90682 5.22255 3.06759 5.3255 3.25093 5.4073C3.43708 5.48909 3.62888 5.54127 3.82631 5.56384V6.15191H4.24516V5.55961C4.51875 5.52576 4.73875 5.43268 4.90516 5.28037C5.07157 5.12525 5.15477 4.92781 5.15477 4.68807C5.15477 4.49909 5.10964 4.34679 5.01939 4.23114C4.92913 4.1155 4.81913 4.02807 4.68939 3.96884C4.56247 3.90961 4.39888 3.85037 4.19862 3.79114C4.05477 3.74884 3.94054 3.71076 3.85593 3.67691C3.77413 3.64025 3.70503 3.59512 3.64862 3.54153Z" fill="#F9F8F7"/>
</svg>
