<svg width="10" height="10" viewBox="0 0 10 10" fill="none" xmlns="http://www.w3.org/2000/svg">
<path fill-rule="evenodd" clip-rule="evenodd" d="M5.0013 0.417969C2.47005 0.417969 0.417969 2.47005 0.417969 5.0013C0.417969 7.53255 2.47005 9.58463 5.0013 9.58463C7.53255 9.58463 9.58463 7.53255 9.58463 5.0013C9.58463 2.47005 7.53255 0.417969 5.0013 0.417969ZM5.41797 2.91797C5.41797 2.80746 5.37407 2.70148 5.29593 2.62334C5.21779 2.5452 5.11181 2.5013 5.0013 2.5013C4.89079 2.5013 4.78481 2.5452 4.70667 2.62334C4.62853 2.70148 4.58463 2.80746 4.58463 2.91797V5.41797C4.58463 5.52848 4.62853 5.63446 4.70667 5.7126C4.78481 5.79074 4.89079 5.83463 5.0013 5.83463C5.11181 5.83463 5.21779 5.79074 5.29593 5.7126C5.37407 5.63446 5.41797 5.52848 5.41797 5.41797V2.91797ZM5.41797 6.8763C5.41797 6.76579 5.37407 6.65981 5.29593 6.58167C5.21779 6.50353 5.11181 6.45963 5.0013 6.45963C4.89079 6.45963 4.78481 6.50353 4.70667 6.58167C4.62853 6.65981 4.58463 6.76579 4.58463 6.8763V7.08463C4.58463 7.19514 4.62853 7.30112 4.70667 7.37926C4.78481 7.4574 4.89079 7.5013 5.0013 7.5013C5.11181 7.5013 5.21779 7.4574 5.29593 7.37926C5.37407 7.30112 5.41797 7.19514 5.41797 7.08463V6.8763Z" fill="#FF4848"/>
</svg>
