<svg width="26" height="18" viewBox="0 0 26 18" fill="none" xmlns="http://www.w3.org/2000/svg">
<path fill-rule="evenodd" clip-rule="evenodd" d="M12.9972 4.62276C12.1319 4.62276 11.286 4.87935 10.5665 5.36008C9.84707 5.84081 9.28631 6.5241 8.95518 7.32352C8.62405 8.12295 8.53741 9.00262 8.70622 9.85128C8.87503 10.7 9.29171 11.4795 9.90356 12.0914C10.5154 12.7032 11.295 13.1199 12.1436 13.2887C12.9923 13.4575 13.872 13.3709 14.6714 13.0397C15.4708 12.7086 16.1541 12.1478 16.6348 11.4284C17.1156 10.7089 17.3722 9.86306 17.3722 8.99776C17.3722 7.83744 16.9112 6.72464 16.0907 5.90417C15.2703 5.0837 14.1575 4.62276 12.9972 4.62276ZM11.9555 10.5568C12.2638 10.7628 12.6263 10.8728 12.9972 10.8728C13.4944 10.8728 13.9713 10.6752 14.323 10.3236C14.6746 9.97196 14.8722 9.49504 14.8722 8.99776C14.8722 8.62692 14.7622 8.26441 14.5562 7.95607C14.3501 7.64773 14.0573 7.4074 13.7147 7.26549C13.3721 7.12357 12.9951 7.08644 12.6314 7.15879C12.2676 7.23114 11.9336 7.40971 11.6713 7.67194C11.4091 7.93416 11.2305 8.26825 11.1582 8.63197C11.0858 8.99568 11.123 9.37268 11.2649 9.71529C11.4068 10.0579 11.6471 10.3507 11.9555 10.5568Z" fill="#E14A48"/>
<path fill-rule="evenodd" clip-rule="evenodd" d="M25.3347 8.37276C24.5347 6.98526 20.1347 0.0227643 12.6597 0.247764C5.74716 0.422764 1.74716 6.49776 0.659656 8.37276C0.549945 8.56279 0.492187 8.77834 0.492188 8.99776C0.492187 9.21718 0.549945 9.43274 0.659656 9.62276C1.44716 10.9853 5.65966 17.7478 13.0222 17.7478H13.3347C20.2472 17.5728 24.2597 11.4978 25.3347 9.62276C25.4444 9.43274 25.5021 9.21718 25.5021 8.99776C25.5021 8.77834 25.4444 8.56279 25.3347 8.37276ZM3.27216 8.99776C4.37216 10.7603 7.88466 15.3728 13.2722 15.2478C18.2722 15.1228 21.4972 11.0103 22.7847 8.99776C21.6722 7.23526 18.1472 2.61026 12.7847 2.74776C7.78466 2.87276 4.52216 6.98526 3.27216 8.99776Z" fill="#E14A48"/>
</svg>
