<svg width="11" height="19" viewBox="0 0 11 19" fill="none" xmlns="http://www.w3.org/2000/svg">
<path d="M11 1.44537C11 1.31276 10.9473 1.18558 10.8536 1.09181C10.7598 0.998044 10.6326 0.945366 10.5 0.945366H8C6.74112 0.882657 5.5086 1.32076 4.57172 2.16395C3.63485 3.00713 3.06978 4.18686 3 5.44537V8.14537H0.5C0.367392 8.14537 0.240215 8.19804 0.146447 8.29181C0.0526785 8.38558 0 8.51276 0 8.64537V11.2454C0 11.378 0.0526785 11.5052 0.146447 11.5989C0.240215 11.6927 0.367392 11.7454 0.5 11.7454H3V18.4454C3 18.578 3.05268 18.7052 3.14645 18.7989C3.24021 18.8927 3.36739 18.9454 3.5 18.9454H6.5C6.63261 18.9454 6.75979 18.8927 6.85355 18.7989C6.94732 18.7052 7 18.578 7 18.4454V11.7454H9.62C9.73119 11.747 9.83974 11.7114 9.92848 11.6444C10.0172 11.5774 10.0811 11.4827 10.11 11.3754L10.83 8.77537C10.8499 8.70149 10.8526 8.62403 10.8378 8.54896C10.8231 8.47388 10.7913 8.40319 10.7449 8.34234C10.6985 8.28148 10.6388 8.23207 10.5704 8.19792C10.5019 8.16378 10.4265 8.14579 10.35 8.14537H7V5.44537C7.02487 5.19784 7.14111 4.96848 7.32602 4.80206C7.51093 4.63564 7.75123 4.54412 8 4.54537H10.5C10.6326 4.54537 10.7598 4.49269 10.8536 4.39892C10.9473 4.30515 11 4.17797 11 4.04537V1.44537Z" fill="black"/>
</svg>
