<svg width="24" height="22" viewBox="0 0 24 22" fill="none" xmlns="http://www.w3.org/2000/svg">
<path d="M9.12747 21.3847C9.58324 20.9093 9.91555 20.3139 10.0713 19.6539H12.5752V17.0578C12.5752 15.9432 13.4786 15.0386 14.5944 15.0386H16.9021C18.0167 15.0386 18.9213 15.9432 18.9213 17.0578V19.6539H20.9406C21.1701 19.6539 21.3902 19.5628 21.5525 19.4005C21.7148 19.2382 21.8059 19.0181 21.8059 18.7886V7.2074L15.7586 12.7897C15.6351 12.9043 15.4808 12.9803 15.3147 13.0084C15.1485 13.0366 14.9778 13.0156 14.8234 12.9481C14.6691 12.8806 14.5377 12.7695 14.4456 12.6284C14.3535 12.4873 14.3045 12.3224 14.3048 12.1539V7.2074L9.65824 11.4974L9.53709 9.25432L14.584 4.59509C14.7076 4.48052 14.8619 4.4045 15.028 4.37637C15.1941 4.34823 15.3648 4.36921 15.5192 4.43672C15.6736 4.50423 15.8049 4.61533 15.897 4.7564C15.9892 4.89747 16.0381 5.06237 16.0379 5.23086V10.1774L22.0852 4.59509C22.2087 4.4809 22.3629 4.40521 22.5289 4.37728C22.6948 4.34936 22.8653 4.37042 23.0194 4.43789C23.1736 4.50535 23.3047 4.61629 23.3968 4.75713C23.4889 4.89797 23.5379 5.0626 23.5379 5.23086V18.7886C23.5379 19.4771 23.2643 20.1374 22.7775 20.6243C22.2906 21.1112 21.6302 21.3847 20.9417 21.3847H9.12747ZM14.3059 17.0578V19.6539H17.1906V17.0578C17.1906 16.9813 17.1602 16.9079 17.1061 16.8538C17.052 16.7997 16.9786 16.7693 16.9021 16.7693H14.5944C14.5179 16.7693 14.4445 16.7997 14.3904 16.8538C14.3363 16.9079 14.3059 16.9813 14.3059 17.0578Z" fill="#E14A48"/>
<path fill-rule="evenodd" clip-rule="evenodd" d="M8.97636 18.946C8.98498 19.0977 8.97879 19.2466 8.95908 19.3914C8.89352 19.873 8.6784 20.3092 8.36103 20.6499C7.95299 21.0879 7.37594 21.3681 6.73045 21.384C6.71115 21.3845 6.6918 21.3847 6.67239 21.3847H2.76871C1.44272 21.3847 0.389481 20.2699 0.464733 18.9461L1.38298 2.7922C1.45243 1.57055 2.46333 0.615479 3.68696 0.615479H5.75414C6.97776 0.615479 7.98867 1.57055 8.05811 2.7922L8.97636 18.946ZM10.0713 19.6539C9.91555 20.3139 9.58324 20.9093 9.12747 21.3847H20.9417C21.6302 21.3847 22.2906 21.1112 22.7775 20.6243C23.2643 20.1374 23.5379 19.4771 23.5379 18.7886V5.23086C23.5379 5.21588 23.5375 5.20092 23.5367 5.186C23.5288 5.03346 23.4807 4.88543 23.3968 4.75713C23.3047 4.61629 23.1736 4.50535 23.0194 4.43789C22.8653 4.37042 22.6948 4.34936 22.5289 4.37728C22.3629 4.40521 22.2087 4.4809 22.0852 4.59509L16.0379 10.1774V5.23086C16.0379 5.20931 16.0371 5.18782 16.0356 5.16643C16.0249 5.02058 15.9774 4.87943 15.897 4.7564C15.8049 4.61533 15.6736 4.50423 15.5192 4.43672C15.3648 4.36921 15.1941 4.34823 15.028 4.37637C14.8619 4.4045 14.7076 4.48052 14.584 4.59509L9.53709 9.25432L9.65824 11.4974L14.3048 7.2074V12.1539C14.3048 12.1755 14.3055 12.197 14.3071 12.2184C14.3178 12.3642 14.3653 12.5054 14.4456 12.6284C14.5377 12.7695 14.6691 12.8806 14.8234 12.9481C14.9778 13.0156 15.1485 13.0366 15.3147 13.0084C15.4808 12.9803 15.6351 12.9043 15.7586 12.7897L21.8059 7.2074V18.7886C21.8059 19.0181 21.7148 19.2382 21.5525 19.4005C21.3902 19.5628 21.1701 19.6539 20.9406 19.6539H18.9213V17.0578C18.9213 16.6636 18.8082 16.2956 18.6126 15.9847C18.5317 15.856 18.4366 15.7372 18.3297 15.6302C18.2227 15.5232 18.1038 15.4282 17.9752 15.3473C17.6642 15.1517 17.2963 15.0386 16.9021 15.0386H14.5944C13.4786 15.0386 12.5752 15.9432 12.5752 17.0578V19.6539H10.0713ZM14.3904 16.8538C14.3415 16.9027 14.3101 16.9692 14.3063 17.0429C14.3061 17.0479 14.3059 17.0528 14.3059 17.0578V19.6539H17.1906V17.0578C17.1906 17.0344 17.1877 17.0116 17.1824 16.9898C17.17 16.9387 17.1438 16.8916 17.1061 16.8538C17.0658 16.8136 17.015 16.7865 16.9601 16.7752C16.9413 16.7714 16.9219 16.7693 16.9021 16.7693H14.5944C14.5886 16.7693 14.5829 16.7695 14.5772 16.7698C14.5142 16.7735 14.4567 16.7974 14.4109 16.8352C14.4038 16.8411 14.397 16.8473 14.3904 16.8538ZM3.68696 2.34625H5.75414C6.06004 2.34625 6.31277 2.58502 6.33013 2.89043L6.39758 4.07702H3.04351L3.11096 2.89043C3.12832 2.58502 3.38105 2.34625 3.68696 2.34625ZM2.19271 19.0443C2.1739 19.3752 2.43721 19.6539 2.76871 19.6539H6.67239C7.00388 19.6539 7.26719 19.3752 7.24838 19.0443L6.49596 5.80779H2.94513L2.19271 19.0443Z" fill="#E14A48"/>
</svg>
