<svg width="20" height="20" viewBox="0 0 20 20" fill="none" xmlns="http://www.w3.org/2000/svg">
<path d="M9.99914 6.82111C8.27883 6.82111 6.87492 8.22501 6.87492 9.94532C6.87492 11.6656 8.27883 13.0695 9.99914 13.0695C11.7195 13.0695 13.1234 11.6656 13.1234 9.94532C13.1234 8.22501 11.7195 6.82111 9.99914 6.82111ZM19.3695 9.94532C19.3695 8.65157 19.3812 7.36954 19.3085 6.07814C19.2359 4.57814 18.8937 3.24689 17.7968 2.15001C16.6976 1.05079 15.3687 0.710951 13.8687 0.638295C12.5749 0.565639 11.2929 0.577357 10.0015 0.577357C8.70773 0.577357 7.4257 0.565639 6.13429 0.638295C4.63429 0.710951 3.30304 1.05314 2.20617 2.15001C1.10695 3.24923 0.767103 4.57814 0.694447 6.07814C0.621791 7.37189 0.63351 8.65392 0.63351 9.94532C0.63351 11.2367 0.621791 12.5211 0.694447 13.8125C0.767103 15.3125 1.10929 16.6438 2.20617 17.7406C3.30539 18.8398 4.63429 19.1797 6.13429 19.2523C7.42805 19.325 8.71008 19.3133 10.0015 19.3133C11.2952 19.3133 12.5773 19.325 13.8687 19.2523C15.3687 19.1797 16.6999 18.8375 17.7968 17.7406C18.896 16.6414 19.2359 15.3125 19.3085 13.8125C19.3835 12.5211 19.3695 11.2391 19.3695 9.94532ZM9.99914 14.7524C7.33898 14.7524 5.19211 12.6055 5.19211 9.94532C5.19211 7.28517 7.33898 5.13829 9.99914 5.13829C12.6593 5.13829 14.8062 7.28517 14.8062 9.94532C14.8062 12.6055 12.6593 14.7524 9.99914 14.7524ZM15.0031 6.06407C14.382 6.06407 13.8804 5.56251 13.8804 4.94142C13.8804 4.32032 14.382 3.81876 15.0031 3.81876C15.6241 3.81876 16.1257 4.32032 16.1257 4.94142C16.1259 5.0889 16.097 5.23497 16.0406 5.37126C15.9843 5.50755 15.9016 5.63138 15.7973 5.73567C15.693 5.83995 15.5692 5.92264 15.4329 5.97899C15.2966 6.03535 15.1505 6.06426 15.0031 6.06407Z" fill="black"/>
</svg>
