<svg width="16" height="16" viewBox="0 0 16 16" fill="none" xmlns="http://www.w3.org/2000/svg">
<path d="M8.19307 11.8868L7.27177 12.8015C6.75456 13.3348 6.05927 13.6589 5.31852 13.712C4.57777 13.7651 3.84339 13.5436 3.25546 13.0896C2.94471 12.8334 2.69114 12.5148 2.5111 12.1544C2.33107 11.794 2.22859 11.3998 2.21027 10.9973C2.19196 10.5948 2.25822 10.193 2.40478 9.81772C2.55134 9.44246 2.77493 9.10212 3.06112 8.8187L4.08319 7.7888C4.15066 7.72184 4.2042 7.64219 4.24074 7.55442C4.27729 7.46666 4.2961 7.37252 4.2961 7.27744C4.2961 7.18237 4.27729 7.08823 4.24074 7.00046C4.2042 6.9127 4.15066 6.83304 4.08319 6.76609C4.01628 6.69859 3.93667 6.64501 3.84896 6.60844C3.76125 6.57188 3.66718 6.55305 3.57216 6.55305C3.47714 6.55305 3.38306 6.57188 3.29535 6.60844C3.20764 6.64501 3.12803 6.69859 3.06112 6.76609L2.14702 7.68797C1.37698 8.43411 0.903679 9.4345 0.81499 10.5034C0.7263 11.5723 1.02825 12.6371 1.66477 13.5001C2.04256 13.9905 2.52032 14.3949 3.0663 14.6863C3.61228 14.9778 4.21398 15.1497 4.83145 15.1905C5.44892 15.2314 6.06801 15.1403 6.6476 14.9234C7.22719 14.7064 7.75401 14.3686 8.19307 13.9322L9.21514 12.9095C9.35067 12.7739 9.42682 12.59 9.42682 12.3982C9.42682 12.2064 9.35067 12.0224 9.21514 11.8868C9.0796 11.7512 8.89578 11.675 8.7041 11.675C8.51243 11.675 8.3286 11.7512 8.19307 11.8868Z" fill="#050000"/>
<path d="M8.92003 6.04587L6.04096 8.92674C5.9735 8.99369 5.91995 9.07335 5.88341 9.16111C5.84687 9.24888 5.82806 9.34301 5.82806 9.43809C5.82806 9.53317 5.84687 9.6273 5.88341 9.71507C5.91995 9.80283 5.9735 9.88249 6.04096 9.94944C6.10787 10.0169 6.18748 10.0705 6.27519 10.1071C6.3629 10.1437 6.45698 10.1625 6.552 10.1625C6.64702 10.1625 6.74109 10.1437 6.8288 10.1071C6.91651 10.0705 6.99612 10.0169 7.06303 9.94944L9.94211 7.06858C10.0776 6.93296 10.1538 6.74902 10.1538 6.55723C10.1538 6.36543 10.0776 6.18149 9.94211 6.04587C9.80657 5.91026 9.62275 5.83407 9.43107 5.83407C9.23939 5.83407 9.05557 5.91026 8.92003 6.04587Z" fill="#050000"/>
<path d="M13.505 1.67417C12.6366 1.03063 11.5637 0.725418 10.4869 0.815544C9.41 0.90567 8.40274 1.38497 7.65324 2.16391L6.87589 2.95615C6.78704 3.02078 6.71275 3.10336 6.65782 3.19854C6.60288 3.29373 6.56854 3.39939 6.557 3.5087C6.54547 3.618 6.557 3.72851 6.59086 3.83308C6.62471 3.93764 6.68013 4.03392 6.75353 4.1157C6.82044 4.1832 6.90005 4.23678 6.98776 4.27335C7.07547 4.30991 7.16955 4.32874 7.26457 4.32874C7.35959 4.32874 7.45366 4.30991 7.54137 4.27335C7.62908 4.23678 7.70869 4.1832 7.7756 4.1157L8.7113 3.17221C9.22565 2.6366 9.92011 2.31072 10.6605 2.25751C11.401 2.20431 12.1349 2.42755 12.7204 2.88413C13.0335 3.14038 13.2891 3.45976 13.4705 3.82146C13.652 4.18316 13.7552 4.57906 13.7736 4.98336C13.7919 5.38766 13.7249 5.79129 13.5769 6.16795C13.429 6.54461 13.2033 6.88584 12.9147 7.16941L11.8927 8.19932C11.8252 8.26627 11.7717 8.34593 11.7351 8.43369C11.6986 8.52146 11.6798 8.61559 11.6798 8.71067C11.6798 8.80575 11.6986 8.89988 11.7351 8.98765C11.7717 9.07541 11.8252 9.15507 11.8927 9.22202C11.9596 9.28953 12.0392 9.34311 12.1269 9.37967C12.2146 9.41624 12.3087 9.43506 12.4037 9.43506C12.4987 9.43506 12.5928 9.41624 12.6805 9.37967C12.7682 9.34311 12.8478 9.28953 12.9147 9.22202L13.9368 8.19932C14.3717 7.76006 14.7083 7.23337 14.9244 6.65412C15.1405 6.07488 15.2311 5.45631 15.1903 4.83937C15.1494 4.22244 14.9781 3.62122 14.6875 3.07555C14.397 2.52988 13.9939 2.05221 13.505 1.67417Z" fill="#050000"/>
</svg>
