

<svg width="184.13" height="72.58" viewBox="0 0 99 44" fill="none" xmlns="http://www.w3.org/2000/svg">
<path d="M61.6346 29.6563V4.25806C60.8926 4.42983 60.0787 4.5648 59.1931 4.66296C58.3075 4.73657 57.374 4.77338 56.3926 4.77338C55.6746 4.77338 54.9325 4.73657 54.1666 4.66296V5.43594C55.0522 5.43594 55.6506 5.70588 55.9618 6.24574C56.2969 6.76107 56.4644 7.57087 56.4644 8.67514V29.6563C56.4644 30.6869 56.2849 31.3863 55.9259 31.7544C55.5908 32.1225 55.0044 32.3065 54.1666 32.3065V33.0795C54.6453 33.055 55.3514 33.0304 56.2849 33.0059C57.2423 32.9568 58.1878 32.9323 59.1213 32.9323C60.0548 32.9323 60.9763 32.9568 61.8859 33.0059C62.7955 33.0304 63.4776 33.055 63.9324 33.0795V32.3065C63.0947 32.3065 62.4963 32.1225 62.1372 31.7544C61.8021 31.3863 61.6346 30.6869 61.6346 29.6563Z" fill="#E14A48"/>
<path d="M72.4971 5.32552C71.9227 4.81019 71.1328 4.55253 70.1275 4.55253C69.1222 4.55253 68.3203 4.81019 67.7219 5.32552C67.1475 5.81631 66.8602 6.50341 66.8602 7.38682C66.8602 8.27024 67.1475 8.96961 67.7219 9.48493C68.3203 9.97572 69.1222 10.2211 70.1275 10.2211C71.1328 10.2211 71.9227 9.97572 72.4971 9.48493C73.0955 8.96961 73.3947 8.27024 73.3947 7.38682C73.3947 6.50341 73.0955 5.81631 72.4971 5.32552Z" fill="#E14A48"/>
<path d="M72.928 29.6563V13.6444C72.186 13.8161 71.3721 13.9511 70.4865 14.0492C69.6248 14.1229 68.6913 14.1597 67.686 14.1597C66.968 14.1597 66.2259 14.1229 65.46 14.0492V14.8222C66.3456 14.8222 66.944 15.0922 67.2552 15.632C67.5903 16.1474 67.7578 16.9572 67.7578 18.0614V29.6563C67.7578 30.6869 67.5783 31.3863 67.2193 31.7544C66.8842 32.1225 66.2977 32.3065 65.46 32.3065V33.0795C65.9387 33.055 66.6568 33.0304 67.6142 33.0059C68.5716 32.9568 69.5171 32.9323 70.4506 32.9323C71.3841 32.9323 72.3056 32.9568 73.2152 33.0059C74.1248 33.0304 74.795 33.055 75.2258 33.0795V32.3065C74.388 32.3065 73.7896 32.1225 73.4306 31.7544C73.0955 31.3863 72.928 30.6869 72.928 29.6563Z" fill="#E14A48"/>
<path fill-rule="evenodd" clip-rule="evenodd" d="M86.0482 13.5339C87.7956 13.5339 89.3274 13.8652 90.6439 14.5278C91.9604 15.1903 92.9896 16.2578 93.7316 17.7301C94.4736 19.2025 94.8446 21.1534 94.8446 23.5828C94.8446 26.0122 94.4736 27.963 93.7316 29.4354C92.9896 30.8832 91.9604 31.9384 90.6439 32.601C89.3274 33.2635 87.7956 33.5948 86.0482 33.5948C84.3488 33.5948 82.8289 33.2635 81.4885 32.601C80.172 31.9384 79.1308 30.8832 78.3649 29.4354C77.6228 27.963 77.2518 26.0122 77.2518 23.5828C77.2518 21.1534 77.6228 19.2025 78.3649 17.7301C79.1308 16.2578 80.172 15.1903 81.4885 14.5278C82.8289 13.8652 84.3488 13.5339 86.0482 13.5339ZM86.0482 14.2701C85.0908 14.2701 84.289 15.0063 83.6427 16.4786C82.9964 17.9265 82.6733 20.2945 82.6733 23.5828C82.6733 26.871 82.9964 29.2391 83.6427 30.6869C84.289 32.1347 85.0908 32.8586 86.0482 32.8586C87.0296 32.8586 87.8314 32.1347 88.4538 30.6869C89.1 29.2391 89.4232 26.871 89.4232 23.5828C89.4232 20.2945 89.1 17.9265 88.4538 16.4786C87.8314 15.0063 87.0296 14.2701 86.0482 14.2701Z" fill="#E14A48"/>
<path fill-rule="evenodd" clip-rule="evenodd" d="M40.1064 13.6444V17.0223C40.5471 16.0053 41.1814 15.2106 42.0093 14.6382C43.0624 13.902 44.2832 13.5339 45.6714 13.5339C46.8922 13.5339 47.9813 13.8775 48.9387 14.5646C49.8961 15.2271 50.6621 16.2455 51.2365 17.6197C51.811 18.9694 52.0982 20.6626 52.0982 22.6994C52.0982 24.4907 51.8948 26.0613 51.4879 27.4109C51.1049 28.7606 50.5424 29.9017 49.8004 30.8342C49.0823 31.7421 48.2086 32.4292 47.1794 32.8955C46.1741 33.3617 45.0372 33.5948 43.7686 33.5948C42.8351 33.5948 41.9853 33.423 41.2194 33.0795C40.7927 32.9018 40.4217 32.6783 40.1064 32.4092V36.0978C40.1064 37.2512 40.3936 38.0119 40.9681 38.38C41.5425 38.7726 42.3324 38.9689 43.3377 38.9689V39.7419C42.7154 39.7174 41.8537 39.6806 40.7526 39.6315C39.6755 39.607 38.5266 39.5947 37.3059 39.5947C36.4203 39.5947 35.5466 39.607 34.6849 39.6315C33.8472 39.6806 33.2129 39.7174 32.782 39.7419V38.9689C33.5719 38.9689 34.1224 38.7972 34.4336 38.4536C34.7687 38.1101 34.9362 37.4475 34.9362 36.4659V18.0614C34.9362 16.9572 34.7687 16.1474 34.4336 15.632C34.0985 15.0922 33.5001 14.8222 32.6384 14.8222V14.0492C33.4044 14.1229 34.1464 14.1597 34.8644 14.1597C35.8458 14.1597 36.7793 14.1229 37.6649 14.0492C38.5505 13.9511 39.3644 13.8161 40.1064 13.6444ZM41.1835 16.1474C40.6432 16.6822 40.2841 17.3955 40.1064 18.2872V31.6308C40.3054 31.8729 40.5447 32.0736 40.8245 32.2329C41.2792 32.4783 41.7939 32.601 42.3683 32.601C43.4454 32.601 44.2951 32.2329 44.9175 31.4967C45.5398 30.736 45.9826 29.6808 46.2459 28.3311C46.5331 26.9569 46.6768 25.3251 46.6768 23.4355C46.6768 21.3252 46.5451 19.6688 46.2818 18.4663C46.0185 17.2639 45.6595 16.405 45.2047 15.8897C44.7499 15.3744 44.1994 15.1167 43.5531 15.1167C42.6914 15.1167 41.9016 15.4603 41.1835 16.1474Z" fill="#E14A48"/>
<path d="M31.8447 5.0387C29.7677 8.58709 26.9985 11.4258 23.537 13.5548H29.7677C30.1501 13.5548 30.46 13.8726 30.46 14.2645V19.2323C30.46 23.1518 27.3606 26.329 23.537 26.329C19.7133 26.329 16.6139 23.1518 16.6139 19.2323V14.2645C16.6139 13.8726 16.3039 13.5548 15.9216 13.5548H8.30619C11.7677 11.4258 14.537 8.58709 16.6139 5.0387H4.15234V19.2323C4.15234 27.0713 10.3513 33.4258 17.9985 33.4258C25.6457 33.4258 31.8447 27.0713 31.8447 19.2323V5.0387Z" fill="#E14A48"/>
</svg>
