<svg width="112" height="48" viewBox="0 0 112 48" fill="none" xmlns="http://www.w3.org/2000/svg">
<path d="M94.6278 17.9767C95.3589 16.3705 96.266 15.5674 97.3492 15.5674C98.4594 15.5674 99.3666 16.3705 100.071 17.9767C100.802 19.5562 101.167 22.1395 101.167 25.7267C101.167 29.3139 100.802 31.8972 100.071 33.4766C99.3666 35.0561 98.4594 35.8458 97.3492 35.8458C96.266 35.8458 95.3589 35.0561 94.6278 33.4766C93.8966 31.8972 93.5311 29.3139 93.5311 25.7267C93.5311 22.1395 93.8966 19.5562 94.6278 17.9767Z" fill="#303030"/>
<path d="M46.5931 17.6153C45.9818 18.1988 45.5756 18.9769 45.3746 19.9497V34.5064C45.5997 34.7704 45.8705 34.9894 46.1869 35.1632C46.7014 35.4309 47.2836 35.5647 47.9335 35.5647C49.1521 35.5647 50.1134 35.1632 50.8174 34.3601C51.5215 33.5302 52.0224 32.3791 52.3203 30.9067C52.6453 29.4076 52.8077 27.6274 52.8077 25.5661C52.8077 23.2638 52.6588 21.4568 52.3609 20.1451C52.063 18.8334 51.6569 17.8964 51.1424 17.3342C50.6279 16.7721 50.0051 16.491 49.2739 16.491C48.2991 16.491 47.4055 16.8657 46.5931 17.6153Z" fill="#303030"/>
<path fill-rule="evenodd" clip-rule="evenodd" d="M112 0H0V48H112V0ZM69.7297 4.64516V32.3523C69.7297 33.4766 69.9193 34.2396 70.2984 34.6411C70.7045 35.0427 71.3815 35.2435 72.3293 35.2435V36.0867C71.8148 36.06 71.043 36.0332 70.014 36.0064C68.985 35.9529 67.9425 35.9261 66.8864 35.9261C65.8303 35.9261 64.7607 35.9529 63.6776 36.0064C62.6215 36.0332 61.8227 36.06 61.2811 36.0867V35.2435C62.2288 35.2435 62.8923 35.0427 63.2714 34.6411C63.6776 34.2396 63.8807 33.4766 63.8807 32.3523V9.46379C63.8807 8.25914 63.6911 7.37572 63.312 6.81355C62.96 6.2246 62.283 5.93013 61.2811 5.93013V5.08687C62.1476 5.16718 62.9871 5.20734 63.7994 5.20734C64.9097 5.20734 65.9657 5.16718 66.9676 5.08687C67.9696 4.97979 68.8903 4.83255 69.7297 4.64516ZM79.3378 4.9664C80.4751 4.9664 81.3688 5.24749 82.0186 5.80967C82.6956 6.34507 83.0341 7.09463 83.0341 8.05836C83.0341 9.02209 82.6956 9.78504 82.0186 10.3472C81.3688 10.8826 80.4751 11.1503 79.3378 11.1503C78.2005 11.1503 77.2934 10.8826 76.6164 10.3472C75.9665 9.78504 75.6416 9.02209 75.6416 8.05836C75.6416 7.09463 75.9665 6.34507 76.6164 5.80967C77.2934 5.24749 78.2005 4.9664 79.3378 4.9664ZM82.5061 32.3523V14.8848C81.6666 15.0721 80.7459 15.2194 79.744 15.3265C78.7692 15.4068 77.7131 15.4469 76.5758 15.4469C75.7634 15.4469 74.924 15.4068 74.0574 15.3265V16.1697C75.0594 16.1697 75.7363 16.4642 76.0884 17.0531C76.4675 17.6153 76.657 18.4987 76.657 19.7034V32.3523C76.657 33.4766 76.4539 34.2396 76.0478 34.6411C75.6686 35.0427 75.0052 35.2435 74.0574 35.2435V36.0867C74.599 36.06 75.4114 36.0332 76.4946 36.0064C77.5777 35.9529 78.6473 35.9261 79.7034 35.9261C80.7595 35.9261 81.802 35.9529 82.831 36.0064C83.86 36.0332 84.6182 36.06 85.1056 36.0867V35.2435C84.1579 35.2435 83.4809 35.0427 83.0747 34.6411C82.6956 34.2396 82.5061 33.4766 82.5061 32.3523ZM102.548 15.8485C101.059 15.1257 99.326 14.7643 97.3492 14.7643C95.4266 14.7643 93.7071 15.1257 92.1907 15.8485C90.7013 16.5713 89.5234 17.7358 88.6569 19.342C87.8174 20.9482 87.3977 23.0764 87.3977 25.7267C87.3977 28.3769 87.8174 30.5052 88.6569 32.1114C89.5234 33.6908 90.7013 34.8419 92.1907 35.5647C93.7071 36.2875 95.4266 36.6489 97.3492 36.6489C99.326 36.6489 101.059 36.2875 102.548 35.5647C104.038 34.8419 105.202 33.6908 106.042 32.1114C106.881 30.5052 107.301 28.3769 107.301 25.7267C107.301 23.0764 106.881 20.9482 106.042 19.342C105.202 17.7358 104.038 16.5713 102.548 15.8485ZM45.3746 14.8848V18.5697C45.8732 17.4603 46.5907 16.5934 47.5273 15.9689C48.7188 15.1658 50.0998 14.7643 51.6704 14.7643C53.0514 14.7643 54.2835 15.1391 55.3667 15.8886C56.4498 16.6114 57.3164 17.7224 57.9663 19.2215C58.6161 20.6939 58.9411 22.541 58.9411 24.7629C58.9411 26.7172 58.7109 28.4305 58.2506 29.9028C57.8173 31.3752 57.181 32.62 56.3415 33.6373C55.5291 34.6278 54.5408 35.3773 53.3764 35.886C52.2391 36.3946 50.9528 36.6489 49.5176 36.6489C48.4616 36.6489 47.5003 36.4615 46.6337 36.0867C46.151 35.8929 45.7313 35.6491 45.3746 35.3555V39.3795C45.3746 40.6377 45.6995 41.4675 46.3494 41.8691C46.9993 42.2974 47.8929 42.5116 49.0302 42.5116V43.3548C48.3262 43.3281 47.3513 43.2879 46.1057 43.2344C44.8872 43.2076 43.5874 43.1942 42.2063 43.1942C41.2044 43.1942 40.216 43.2076 39.2412 43.2344C38.2934 43.2879 37.5759 43.3281 37.0884 43.3548V42.5116C37.982 42.5116 38.6049 42.3242 38.9569 41.9494C39.336 41.5746 39.5255 40.8518 39.5255 39.781V19.7034C39.5255 18.4987 39.336 17.6153 38.9569 17.0531C38.5778 16.4642 37.9008 16.1697 36.926 16.1697V15.3265C37.7925 15.4068 38.6319 15.4469 39.4443 15.4469C40.5545 15.4469 41.6106 15.4068 42.6125 15.3265C43.6144 15.2194 44.5351 15.0721 45.3746 14.8848ZM26.6294 14.7871C30.5455 12.4645 33.6783 9.36774 36.028 5.49677V20.9806C36.028 29.5324 29.015 36.4645 20.3636 36.4645C11.7122 36.4645 4.6993 29.5324 4.6993 20.9806V5.49677H18.7972C16.4476 9.36774 13.3147 12.4645 9.3986 14.7871H18.014C18.4465 14.7871 18.7972 15.1337 18.7972 15.5613V20.9806C18.7972 25.2565 22.3037 28.7226 26.6294 28.7226C30.9551 28.7226 34.4615 25.2565 34.4615 20.9806V15.5613C34.4615 15.1337 34.1109 14.7871 33.6783 14.7871H26.6294Z" fill="#303030"/>
</svg>
