<svg width="166" height="64" viewBox="0 0 166 64" fill="none" xmlns="http://www.w3.org/2000/svg">
<path d="M105.006 45.5724V0.54834C103.657 0.852852 102.179 1.09211 100.569 1.26612C98.9598 1.39662 97.2635 1.46187 95.4801 1.46187C94.1752 1.46187 92.8268 1.39662 91.435 1.26612V2.63641C93.0443 2.63641 94.1317 3.11493 94.6972 4.07197C95.3061 4.9855 95.6106 6.42105 95.6106 8.37862V45.5724C95.6106 47.3995 95.2844 48.6393 94.6319 49.2918C94.023 49.9443 92.9573 50.2706 91.435 50.2706V51.6409C92.3049 51.5974 93.588 51.5539 95.2844 51.5104C97.0242 51.4234 98.7423 51.3799 100.439 51.3799C102.135 51.3799 103.81 51.4234 105.463 51.5104C107.115 51.5539 108.355 51.5974 109.181 51.6409V50.2706C107.659 50.2706 106.572 49.9443 105.919 49.2918C105.31 48.6393 105.006 47.3995 105.006 45.5724Z" fill="#F9F8F7"/>
<path d="M124.745 2.44066C123.701 1.52713 122.266 1.07036 120.439 1.07036C118.612 1.07036 117.155 1.52713 116.068 2.44066C115.024 3.31069 114.502 4.52873 114.502 6.09479C114.502 7.66084 115.024 8.90063 116.068 9.81417C117.155 10.6842 118.612 11.1192 120.439 11.1192C122.266 11.1192 123.701 10.6842 124.745 9.81417C125.833 8.90063 126.376 7.66084 126.376 6.09479C126.376 4.52873 125.833 3.31069 124.745 2.44066Z" fill="#F9F8F7"/>
<path d="M125.528 45.5724V17.1877C124.18 17.4922 122.701 17.7314 121.092 17.9055C119.526 18.036 117.829 18.1012 116.003 18.1012C114.698 18.1012 113.349 18.036 111.957 17.9055V19.2758C113.567 19.2758 114.654 19.7543 115.22 20.7113C115.829 21.6248 116.133 23.0604 116.133 25.018V45.5724C116.133 47.3995 115.807 48.6393 115.154 49.2918C114.545 49.9443 113.48 50.2706 111.957 50.2706V51.6409C112.827 51.5974 114.132 51.5539 115.872 51.5104C117.612 51.4234 119.33 51.3799 121.026 51.3799C122.723 51.3799 124.397 51.4234 126.05 51.5104C127.703 51.5539 128.921 51.5974 129.704 51.6409V50.2706C128.181 50.2706 127.094 49.9443 126.442 49.2918C125.833 48.6393 125.528 47.3995 125.528 45.5724Z" fill="#F9F8F7"/>
<path fill-rule="evenodd" clip-rule="evenodd" d="M149.37 16.9919C152.546 16.9919 155.329 17.5792 157.722 18.7537C160.114 19.9283 161.984 21.8206 163.333 24.4307C164.681 27.0408 165.355 30.4992 165.355 34.8058C165.355 39.1125 164.681 42.5708 163.333 45.1809C161.984 47.7475 160.114 49.6181 157.722 50.7926C155.329 51.9672 152.546 52.5544 149.37 52.5544C146.282 52.5544 143.52 51.9672 141.084 50.7926C138.692 49.6181 136.8 47.7475 135.408 45.1809C134.06 42.5708 133.386 39.1125 133.386 34.8058C133.386 30.4992 134.06 27.0408 135.408 24.4307C136.8 21.8206 138.692 19.9283 141.084 18.7537C143.52 17.5792 146.282 16.9919 149.37 16.9919ZM149.37 18.297C147.631 18.297 146.173 19.602 144.999 22.2121C143.825 24.7787 143.237 28.9766 143.237 34.8058C143.237 40.635 143.825 44.8329 144.999 47.3995C146.173 49.9661 147.631 51.2494 149.37 51.2494C151.154 51.2494 152.611 49.9661 153.742 47.3995C154.916 44.8329 155.503 40.635 155.503 34.8058C155.503 28.9766 154.916 24.7787 153.742 22.2121C152.611 19.602 151.154 18.297 149.37 18.297Z" fill="#F9F8F7"/>
<path fill-rule="evenodd" clip-rule="evenodd" d="M65.8847 17.1877V23.1758C66.6855 21.373 67.8382 19.9642 69.3426 18.9495C71.2564 17.6444 73.4747 16.9919 75.9975 16.9919C78.2158 16.9919 80.1949 17.6009 81.9348 18.819C83.6746 19.9935 85.0665 21.7988 86.1104 24.2349C87.1543 26.6275 87.6763 29.6291 87.6763 33.2397C87.6763 36.4154 87.3066 39.1995 86.5671 41.592C85.8712 43.9846 84.849 46.0075 83.5006 47.6605C82.1957 49.2701 80.6081 50.4881 78.7378 51.3146C76.911 52.1412 74.8449 52.5544 72.5396 52.5544C70.8432 52.5544 69.2991 52.2499 67.9072 51.6409C67.1318 51.3258 66.4576 50.9298 65.8847 50.4527V56.9916C65.8847 59.0362 66.4066 60.3847 67.4505 61.0372C68.4944 61.7333 69.9298 62.0813 71.7566 62.0813V63.4516C70.6257 63.4081 69.0599 63.3428 67.0591 63.2558C65.1017 63.2123 63.0139 63.1906 60.7956 63.1906C59.1862 63.1906 57.5986 63.2123 56.0328 63.2558C54.5104 63.3428 53.3577 63.4081 52.5748 63.4516V62.0813C54.0102 62.0813 55.0106 61.7768 55.576 61.1677C56.185 60.5587 56.4895 59.3842 56.4895 57.6441V25.018C56.4895 23.0604 56.185 21.6248 55.576 20.7113C54.9671 19.7543 53.8797 19.2758 52.3138 19.2758V17.9055C53.7057 18.036 55.0541 18.1012 56.359 18.1012C58.1423 18.1012 59.8387 18.036 61.448 17.9055C63.0574 17.7314 64.5363 17.4922 65.8847 17.1877ZM67.842 21.6248C66.8601 22.573 66.2076 23.8375 65.8847 25.4183V49.0728C66.2463 49.5019 66.6813 49.8577 67.1895 50.1401C68.016 50.5751 68.9511 50.7926 69.995 50.7926C71.9524 50.7926 73.4965 50.1401 74.6274 48.835C75.7583 47.4865 76.563 45.6159 77.0415 43.2234C77.5634 40.7873 77.8244 37.8944 77.8244 34.5448C77.8244 30.8037 77.5851 27.8673 77.1067 25.7357C76.6282 23.6042 75.9758 22.0816 75.1494 21.1681C74.3229 20.2545 73.3225 19.7978 72.1481 19.7978C70.5822 19.7978 69.1469 20.4068 67.842 21.6248Z" fill="#F9F8F7"/>
<path d="M50.8714 1.93221C47.0972 8.22253 42.065 13.2548 35.7746 17.029H47.0972C47.792 17.029 48.3553 17.5922 48.3553 18.2871V27.0935C48.3553 34.0418 42.7229 39.6741 35.7746 39.6741C28.8263 39.6741 23.194 34.0418 23.194 27.0935V18.2871C23.194 17.5922 22.6307 17.029 21.9359 17.029H8.09722C14.3875 13.2548 19.4198 8.22253 23.194 1.93221H0.548828V27.0935C0.548828 40.9901 11.8135 52.2548 25.7101 52.2548C39.6067 52.2548 50.8714 40.9901 50.8714 27.0935V1.93221Z" fill="#F9F8F7"/>
</svg>
