<svg width="131" height="50" viewBox="0 0 77 30" fill="none" xmlns="http://www.w3.org/2000/svg">
<path d="M48.6934 21.2642V0.483887C48.0711 0.624431 47.3885 0.734858 46.6457 0.815169C45.903 0.875401 45.1201 0.905517 44.297 0.905517C43.6948 0.905517 43.0725 0.875401 42.4301 0.815169V1.44761C43.1728 1.44761 43.6747 1.66847 43.9357 2.11018C44.2167 2.53181 44.3572 3.19437 44.3572 4.09786V21.2642C44.3572 22.1075 44.2067 22.6797 43.9056 22.9809C43.6245 23.282 43.1327 23.4326 42.4301 23.4326V24.0651C42.8316 24.045 43.4238 24.0249 44.2067 24.0048C45.0097 23.9647 45.8026 23.9446 46.5855 23.9446C47.3684 23.9446 48.1413 23.9647 48.9042 24.0048C49.667 24.0249 50.2391 24.045 50.6205 24.0651V23.4326C49.9179 23.4326 49.416 23.282 49.1149 22.9809C48.8339 22.6797 48.6934 22.1075 48.6934 21.2642Z" fill="#050000"/>
<path d="M57.8036 1.35726C57.3219 0.935634 56.6594 0.724819 55.8163 0.724819C54.9731 0.724819 54.3006 0.935634 53.7988 1.35726C53.317 1.75882 53.0761 2.32099 53.0761 3.04379C53.0761 3.76658 53.317 4.33879 53.7988 4.76042C54.3006 5.16197 54.9731 5.36275 55.8163 5.36275C56.6594 5.36275 57.3219 5.16197 57.8036 4.76042C58.3055 4.33879 58.5564 3.76658 58.5564 3.04379C58.5564 2.32099 58.3055 1.75882 57.8036 1.35726Z" fill="#050000"/>
<path d="M58.165 21.2642V8.16358C57.5427 8.30412 56.8601 8.41455 56.1174 8.49486C55.3947 8.5551 54.6118 8.58521 53.7686 8.58521C53.1664 8.58521 52.5441 8.5551 51.9017 8.49486V9.12731C52.6445 9.12731 53.1463 9.34816 53.4073 9.78987C53.6883 10.2115 53.8289 10.8741 53.8289 11.7776V21.2642C53.8289 22.1075 53.6783 22.6797 53.3772 22.9809C53.0961 23.282 52.6043 23.4326 51.9017 23.4326V24.0651C52.3032 24.045 52.9054 24.0249 53.7084 24.0048C54.5114 23.9647 55.3044 23.9446 56.0873 23.9446C56.8702 23.9446 57.643 23.9647 58.4059 24.0048C59.1687 24.0249 59.7308 24.045 60.0922 24.0651V23.4326C59.3895 23.4326 58.8877 23.282 58.5866 22.9809C58.3055 22.6797 58.165 22.1075 58.165 21.2642Z" fill="#050000"/>
<path fill-rule="evenodd" clip-rule="evenodd" d="M69.1688 8.07323C70.6342 8.07323 71.919 8.34428 73.0231 8.88638C74.1272 9.42847 74.9904 10.3018 75.6128 11.5065C76.2351 12.7112 76.5462 14.3073 76.5462 16.295C76.5462 18.2827 76.2351 19.8789 75.6128 21.0835C74.9904 22.2681 74.1272 23.1315 73.0231 23.6736C71.919 24.2156 70.6342 24.4867 69.1688 24.4867C67.7435 24.4867 66.4688 24.2156 65.3446 23.6736C64.2405 23.1315 63.3672 22.2681 62.7248 21.0835C62.1025 19.8789 61.7914 18.2827 61.7914 16.295C61.7914 14.3073 62.1025 12.7112 62.7248 11.5065C63.3672 10.3018 64.2405 9.42847 65.3446 8.88638C66.4688 8.34428 67.7435 8.07323 69.1688 8.07323ZM69.1688 8.67556C68.3658 8.67556 67.6933 9.27789 67.1513 10.4825C66.6093 11.6671 66.3383 13.6046 66.3383 16.295C66.3383 18.9854 66.6093 20.9229 67.1513 22.1075C67.6933 23.2921 68.3658 23.8844 69.1688 23.8844C69.9918 23.8844 70.6643 23.2921 71.1863 22.1075C71.7283 20.9229 71.9993 18.9854 71.9993 16.295C71.9993 13.6046 71.7283 11.6671 71.1863 10.4825C70.6643 9.27789 69.9918 8.67556 69.1688 8.67556Z" fill="#050000"/>
<path fill-rule="evenodd" clip-rule="evenodd" d="M30.638 8.16358V10.9273C31.0076 10.0953 31.5396 9.44506 32.2339 8.97673C33.1172 8.3744 34.141 8.07323 35.3053 8.07323C36.3291 8.07323 37.2425 8.35432 38.0455 8.91649C38.8485 9.45859 39.4909 10.2918 39.9727 11.4162C40.4545 12.5204 40.6953 13.9058 40.6953 15.5722C40.6953 17.0379 40.5247 18.3229 40.1834 19.4271C39.8623 20.5314 39.3905 21.465 38.7682 22.228C38.1659 22.9708 37.4332 23.533 36.57 23.9145C35.7269 24.296 34.7733 24.4867 33.7094 24.4867C32.9265 24.4867 32.2138 24.3462 31.5714 24.0651C31.2135 23.9197 30.9024 23.7368 30.638 23.5167V26.5346C30.638 27.4783 30.8788 28.1007 31.3606 28.4018C31.8424 28.7231 32.5049 28.8837 33.348 28.8837V29.5161C32.8261 29.4961 32.1034 29.4659 31.18 29.4258C30.2766 29.4057 29.313 29.3957 28.2892 29.3957C27.5465 29.3957 26.8137 29.4057 26.091 29.4258C25.3884 29.4659 24.8565 29.4961 24.4951 29.5161V28.8837C25.1576 28.8837 25.6193 28.7432 25.8803 28.4621C26.1613 28.181 26.3018 27.6389 26.3018 26.8358V11.7776C26.3018 10.8741 26.1613 10.2115 25.8803 9.78987C25.5992 9.34816 25.0974 9.12731 24.3747 9.12731V8.49486C25.0171 8.5551 25.6394 8.58521 26.2416 8.58521C27.0647 8.58521 27.8476 8.5551 28.5903 8.49486C29.3331 8.41455 30.0156 8.30412 30.638 8.16358ZM31.5413 10.2115C31.0881 10.6491 30.787 11.2327 30.638 11.9623V22.8798C30.8049 23.0778 31.0056 23.242 31.2402 23.3724C31.6216 23.5732 32.0532 23.6736 32.535 23.6736C33.4384 23.6736 34.151 23.3724 34.673 22.7701C35.1949 22.1476 35.5663 21.2843 35.7871 20.18C36.028 19.0557 36.1484 17.7205 36.1484 16.1746C36.1484 14.4479 36.038 13.0926 35.8172 12.1088C35.5964 11.125 35.2953 10.4223 34.9139 10.0007C34.5324 9.57905 34.0707 9.36824 33.5287 9.36824C32.806 9.36824 32.1436 9.64933 31.5413 10.2115Z" fill="#050000"/>
<path d="M23.709 1.1226C21.9671 4.02582 19.6445 6.3484 16.7414 8.09034H21.9671C22.2877 8.09034 22.5477 8.3503 22.5477 8.67098V12.7355C22.5477 15.9424 19.9482 18.542 16.7414 18.542C13.5346 18.542 10.9351 15.9424 10.9351 12.7355V8.67098C10.9351 8.3503 10.6751 8.09034 10.3545 8.09034H3.96755C6.8707 6.3484 9.19322 4.02582 10.9351 1.1226H0.483776V12.7355C0.483776 19.1493 5.68273 24.3484 12.0964 24.3484C18.51 24.3484 23.709 19.1493 23.709 12.7355V1.1226Z" fill="#050000"/>
</svg>
