<svg width="20" height="18" viewBox="0 0 20 18" fill="none" xmlns="http://www.w3.org/2000/svg">
<path fill-rule="evenodd" clip-rule="evenodd" d="M17 4C17.7956 4 18.5587 4.31607 19.1213 4.87868C19.6839 5.44129 20 6.20435 20 7V17C19.9997 17.1772 19.9523 17.3511 19.8627 17.504C19.7731 17.6569 19.6445 17.7832 19.49 17.87C19.3405 17.9547 19.1718 17.9995 19 18C18.8205 17.9999 18.6444 17.9516 18.49 17.86L14 15.14C13.834 15.0412 13.643 14.9926 13.45 15H8C7.20435 15 6.44129 14.6839 5.87868 14.1213C5.31607 13.5587 5 12.7956 5 12V11.7458L1.51 13.86C1.35564 13.9516 1.17948 13.9999 1 14C0.828212 13.9995 0.659456 13.9547 0.51 13.87C0.355534 13.7832 0.226912 13.6569 0.1373 13.504C0.0476888 13.3511 0.000305357 13.1772 0 13V3C0 2.20435 0.316071 1.44129 0.87868 0.87868C1.44129 0.316071 2.20435 0 3 0H13C13.7956 0 14.5587 0.316071 15.1213 0.87868C15.6839 1.44129 16 2.20435 16 3V4H17ZM7.29289 12.7071C7.10536 12.5196 7 12.2652 7 12V11H13C13.7956 11 14.5587 10.6839 15.1213 10.1213C15.6839 9.55871 16 8.79565 16 8V6H17C17.2652 6 17.5196 6.10536 17.7071 6.29289C17.8946 6.48043 18 6.73478 18 7V15.23L15 13.43C14.5321 13.1482 13.9962 12.9996 13.45 13H8C7.73478 13 7.48043 12.8946 7.29289 12.7071ZM13.7071 8.70711C13.8946 8.51957 14 8.26522 14 8V3C14 2.73478 13.8946 2.48043 13.7071 2.29289C13.5196 2.10536 13.2652 2 13 2H3C2.73478 2 2.48043 2.10536 2.29289 2.29289C2.10536 2.48043 2 2.73478 2 3V11.23L5 9.43C5.46789 9.14824 6.00382 8.99957 6.55 9H13C13.2652 9 13.5196 8.89464 13.7071 8.70711Z" fill="#F9F8F7"/>
</svg>
