<svg width="22" height="22" viewBox="0 0 22 22" fill="none" xmlns="http://www.w3.org/2000/svg">
<path fill-rule="evenodd" clip-rule="evenodd" d="M8.76484 7.45595C8.39066 7.30004 7.95938 7.38536 7.67275 7.67199C7.38611 7.95862 7.3008 8.3899 7.4567 8.76408L12.4584 20.7681C12.6184 21.1523 12.9996 21.3972 13.4155 21.3831C13.8315 21.3691 14.1952 21.099 14.329 20.7049L15.5865 17.0005L18.9905 20.4045C19.3812 20.7951 20.0146 20.7951 20.4052 20.4045C20.7959 20.0138 20.7959 19.3804 20.4052 18.9898L17.0012 15.5858L20.7057 14.3283C21.0998 14.1945 21.3698 13.8307 21.3839 13.4148C21.3979 12.9989 21.153 12.6177 20.7689 12.4576L8.76484 7.45595ZM10.2379 10.2371L13.2862 17.553L14.2091 14.8341C14.3091 14.5396 14.5403 14.3083 14.8348 14.2084L17.5538 13.2854L10.2379 10.2371Z" fill="#E14A48"/>
<path d="M6.25782 11.9153C6.64829 11.5245 6.64799 10.8911 6.25715 10.5006C5.86631 10.1101 5.23293 10.1104 4.84246 10.5013L2.72175 12.624C2.33128 13.0148 2.33158 13.6482 2.72242 14.0387C3.11326 14.4291 3.74663 14.4288 4.13711 14.038L6.25782 11.9153Z" fill="#E14A48"/>
<path d="M1.87487 5.60052C1.34125 5.45744 0.792681 5.77405 0.649609 6.30767C0.506536 6.84129 0.82314 7.38986 1.35676 7.53294L4.25574 8.3102C4.78936 8.45327 5.33793 8.13667 5.481 7.60304C5.62408 7.06942 5.30747 6.52085 4.77385 6.37778L1.87487 5.60052Z" fill="#E14A48"/>
<path d="M7.53367 1.35692C7.39055 0.823312 6.84195 0.506756 6.30834 0.649875C5.77473 0.792994 5.45818 1.34159 5.6013 1.8752L6.37856 4.77318C6.52167 5.30679 7.07027 5.62334 7.60388 5.48022C8.13749 5.33711 8.45405 4.78851 8.31093 4.2549L7.53367 1.35692Z" fill="#E14A48"/>
<path d="M14.0391 4.13502C14.4298 3.74436 14.4298 3.11098 14.0391 2.72033C13.6484 2.32967 13.0151 2.32967 12.6244 2.72033L10.5017 4.84304C10.111 5.2337 10.111 5.86707 10.5017 6.25773C10.8924 6.64839 11.5257 6.64839 11.9164 6.25773L14.0391 4.13502Z" fill="#E14A48"/>
</svg>
