<svg width="16" height="16" viewBox="0 0 16 16" fill="none" xmlns="http://www.w3.org/2000/svg">
<path fill-rule="evenodd" clip-rule="evenodd" d="M16 0H0V16H16V0ZM12.9271 3.64431C12.188 4.87609 11.2026 5.86152 9.97085 6.60058H12.188C12.3241 6.60058 12.4344 6.71088 12.4344 6.84694V8.57143C12.4344 9.93205 11.3315 11.035 9.97085 11.035C8.61022 11.035 7.50729 9.93205 7.50729 8.57143V6.84694C7.50729 6.71088 7.39699 6.60058 7.26093 6.60058H4.55102C5.7828 5.86152 6.76822 4.87609 7.50729 3.64431H3.07289V8.57143C3.07289 11.2927 5.27876 13.4985 8 13.4985C10.7212 13.4985 12.9271 11.2927 12.9271 8.57143V3.64431Z" fill="black"/>
</svg>
