<svg width="554" height="266" viewBox="0 0 554 266" fill="none" xmlns="http://www.w3.org/2000/svg">
<path d="M139.508 72.352V75.352H142.508V72.352H139.508ZM56.564 72.352V69.352H53.564V72.352H56.564ZM56.564 116.128H53.564V124.617L58.8978 118.013L56.564 116.128ZM71.924 105.376L73.0627 108.151L73.0929 108.139L73.1228 108.126L71.924 105.376ZM126.708 109.984L125.01 112.458L126.708 109.984ZM145.652 133.024L142.884 134.181L142.888 134.191L142.892 134.2L145.652 133.024ZM134.644 210.08L132.461 208.022L132.453 208.03L132.446 208.039L134.644 210.08ZM40.436 213.408L38.5088 215.707L38.5088 215.707L40.436 213.408ZM20.724 175.264V172.264H17.4162L17.7383 175.556L20.724 175.264ZM55.54 175.264L58.4668 174.605L57.94 172.264H55.54V175.264ZM65.78 191.648L63.9435 194.02L63.9616 194.034L63.98 194.048L65.78 191.648ZM109.3 188.32L111.63 190.209L111.63 190.209L109.3 188.32ZM109.044 139.168L106.824 141.186L106.856 141.221L106.889 141.255L109.044 139.168ZM68.34 136.096L66.54 133.696L68.34 136.096ZM58.1 150.432V153.432H60.2429L60.9378 151.405L58.1 150.432ZM23.796 150.432H20.796V153.432H23.796V150.432ZM23.796 40.864V37.864H20.796V40.864H23.796ZM139.508 40.864H142.508V37.864H139.508V40.864ZM139.508 69.352H56.564V75.352H139.508V69.352ZM53.564 72.352V116.128H59.564V72.352H53.564ZM58.8978 118.013C62.0923 114.058 66.7539 110.74 73.0627 108.151L70.7853 102.6C63.7821 105.474 58.2037 109.323 54.2302 114.243L58.8978 118.013ZM73.1228 108.126C79.3876 105.395 86.0607 104.024 93.172 104.024V98.024C85.2646 98.024 77.7724 99.5541 70.7252 102.626L73.1228 108.126ZM93.172 104.024C106.396 104.024 116.934 106.915 125.01 112.458L128.406 107.51C119.074 101.106 107.255 98.024 93.172 98.024V104.024ZM125.01 112.458C133.257 118.117 139.19 125.348 142.884 134.181L148.42 131.867C144.263 121.927 137.567 113.797 128.406 107.51L125.01 112.458ZM142.892 134.2C146.65 143.023 148.54 152.52 148.54 162.72H154.54C154.54 151.758 152.505 141.457 148.412 131.848L142.892 134.2ZM148.54 162.72C148.54 181.74 143.101 196.738 132.461 208.022L136.827 212.138C148.715 199.529 154.54 182.953 154.54 162.72H148.54ZM132.446 208.039C122.063 219.22 107.081 225 87.028 225V231C108.276 231 125.038 224.834 136.842 212.121L132.446 208.039ZM87.028 225C68.072 225 53.2899 220.268 42.3632 211.109L38.5088 215.707C50.7928 226.004 67.072 231 87.028 231V225ZM42.3632 211.109C31.3873 201.908 25.1728 189.928 23.7097 174.972L17.7383 175.556C19.3472 192.003 26.2741 205.452 38.5088 215.707L42.3632 211.109ZM20.724 178.264H55.54V172.264H20.724V178.264ZM52.6132 175.923C54.2947 183.396 58.0744 189.476 63.9435 194.02L67.6165 189.276C62.9042 185.628 59.8573 180.785 58.4668 174.605L52.6132 175.923ZM63.98 194.048C70.0685 198.614 77.6534 200.792 86.516 200.792V194.792C78.6532 194.792 72.4142 192.874 67.58 189.248L63.98 194.048ZM86.516 200.792C97.253 200.792 105.807 197.392 111.63 190.209L106.97 186.431C102.553 191.877 95.9177 194.792 86.516 194.792V200.792ZM111.63 190.209C117.293 183.226 119.98 174.134 119.98 163.232H113.98C113.98 173.151 111.547 180.785 106.97 186.431L111.63 190.209ZM119.98 163.232C119.98 152.18 117.214 143.29 111.199 137.081L106.889 141.255C111.455 145.969 113.98 153.121 113.98 163.232H119.98ZM111.264 137.15C105.407 130.708 96.8875 127.72 86.26 127.72V133.72C95.7712 133.72 102.441 136.364 106.824 141.186L111.264 137.15ZM86.26 127.72C78.5764 127.72 71.9355 129.649 66.54 133.696L70.14 138.496C74.3019 135.375 79.6076 133.72 86.26 133.72V127.72ZM66.54 133.696C61.2519 137.662 57.4935 142.951 55.2622 149.459L60.9378 151.405C62.8025 145.966 65.8707 141.698 70.14 138.496L66.54 133.696ZM58.1 147.432H23.796V153.432H58.1V147.432ZM26.796 150.432V40.864H20.796V150.432H26.796ZM23.796 43.864H139.508V37.864H23.796V43.864ZM136.508 40.864V72.352H142.508V40.864H136.508ZM199.81 62.88L197.286 61.2577L197.281 61.2669L197.275 61.2761L199.81 62.88ZM306.05 62.88L303.515 64.4839L303.521 64.4931L303.526 64.5023L306.05 62.88ZM306.05 202.144L303.519 200.533L303.513 200.543L303.507 200.552L306.05 202.144ZM199.81 202.144L197.267 203.736L197.273 203.745L197.279 203.755L199.81 202.144ZM284.29 100.512L281.336 101.033L281.342 101.067L281.348 101.1L284.29 100.512ZM274.562 79.264L272.304 81.2395L272.321 81.2592L272.339 81.2786L274.562 79.264ZM231.298 79.264L229.075 77.2494L229.057 77.2688L229.04 77.2885L231.298 79.264ZM221.57 100.512L218.626 99.9347L218.622 99.9576L218.617 99.9805L221.57 100.512ZM221.57 165.024L218.614 165.536L218.616 165.545L221.57 165.024ZM231.298 186.272L229.075 188.287L229.091 188.304L229.107 188.321L231.298 186.272ZM274.818 186.272L277.009 188.321L277.025 188.304L277.041 188.287L274.818 186.272ZM284.546 165.024L287.5 165.545L287.502 165.536L284.546 165.024ZM186.938 132.256C186.938 103.037 192.182 80.5482 202.345 64.4839L197.275 61.2761C186.275 78.6624 180.938 102.424 180.938 132.256H186.938ZM202.334 64.5023C212.395 48.8509 229.047 40.792 253.058 40.792V34.792C227.576 34.792 208.729 43.4584 197.286 61.2577L202.334 64.5023ZM253.058 40.792C277.071 40.792 293.624 48.8506 303.515 64.4839L308.585 61.2761C297.313 43.4587 278.538 34.792 253.058 34.792V40.792ZM303.526 64.5023C313.851 80.5626 319.178 103.044 319.178 132.256H325.178C325.178 102.417 319.753 78.648 308.574 61.2577L303.526 64.5023ZM319.178 132.256C319.178 161.64 313.851 184.298 303.519 200.533L308.581 203.755C319.753 186.198 325.178 162.264 325.178 132.256H319.178ZM303.507 200.552C293.611 216.354 277.058 224.488 253.058 224.488V230.488C278.551 230.488 297.326 221.726 308.593 203.736L303.507 200.552ZM253.058 224.488C229.06 224.488 212.408 216.353 202.341 200.533L197.279 203.755C208.716 221.727 227.563 230.488 253.058 230.488V224.488ZM202.353 200.552C192.182 184.312 186.938 161.647 186.938 132.256H180.938C180.938 162.257 186.275 186.184 197.267 203.736L202.353 200.552ZM289.85 132.256C289.85 119.509 288.99 108.716 287.232 99.9236L281.348 101.1C283.003 109.375 283.85 119.744 283.85 132.256H289.85ZM287.244 99.9906C285.63 90.8418 282.184 83.2066 276.785 77.2494L272.339 81.2786C276.839 86.2441 279.878 92.7741 281.336 101.033L287.244 99.9906ZM276.82 77.2885C271.304 70.9853 263.19 68.072 253.058 68.072V74.072C262.041 74.072 268.262 76.6201 272.304 81.2395L276.82 77.2885ZM253.058 68.072C242.92 68.072 234.75 70.9872 229.075 77.2494L233.521 81.2786C237.744 76.6181 244.081 74.072 253.058 74.072V68.072ZM229.04 77.2885C223.844 83.2269 220.412 90.8271 218.626 99.9347L224.514 101.089C226.141 92.7889 229.195 86.2237 233.556 81.2395L229.04 77.2885ZM218.617 99.9805C217.039 108.749 216.266 119.521 216.266 132.256H222.266C222.266 119.732 223.029 109.342 224.523 101.043L218.617 99.9805ZM216.266 132.256C216.266 145.33 217.039 156.436 218.614 165.536L224.526 164.512C223.029 155.862 222.266 145.123 222.266 132.256H216.266ZM218.616 165.545C220.23 174.694 223.676 182.329 229.075 188.287L233.521 184.257C229.021 179.292 225.982 172.762 224.524 164.503L218.616 165.545ZM229.107 188.321C234.789 194.395 242.948 197.208 253.058 197.208V191.208C244.053 191.208 237.706 188.73 233.489 184.223L229.107 188.321ZM253.058 197.208C263.168 197.208 271.327 194.395 277.009 188.321L272.627 184.223C268.41 188.73 262.063 191.208 253.058 191.208V197.208ZM277.041 188.287C282.44 182.329 285.886 174.694 287.5 165.545L281.592 164.503C280.134 172.762 277.095 179.292 272.595 184.257L277.041 188.287ZM287.502 165.536C289.077 156.436 289.85 145.33 289.85 132.256H283.85C283.85 145.123 283.087 155.862 281.59 164.512L287.502 165.536ZM361.726 56.736L359.653 54.567L359.641 54.5787L359.629 54.5904L361.726 56.736ZM420.35 56.736L418.253 58.8816L418.265 58.8933L418.277 58.905L420.35 56.736ZM420.35 117.92L418.277 115.751L418.265 115.763L418.253 115.774L420.35 117.92ZM361.726 117.92L359.629 120.066L359.641 120.077L359.653 120.089L361.726 117.92ZM514.814 48.8L517.43 50.2686L519.939 45.8H514.814V48.8ZM414.206 228V231H415.962L416.822 229.469L414.206 228ZM379.39 228L376.772 226.534L374.272 231H379.39V228ZM479.742 48.8V45.8H477.984L477.124 47.3342L479.742 48.8ZM401.662 102.56L404.017 104.419L404.04 104.39L404.062 104.36L401.662 102.56ZM474.11 158.88L476.181 161.05L476.183 161.049L474.11 158.88ZM532.478 158.88L530.357 161.001L530.381 161.026L530.407 161.05L532.478 158.88ZM532.478 220.064L530.381 217.918L530.369 217.93L530.357 217.943L532.478 220.064ZM474.11 220.064L476.207 217.918L476.207 217.918L474.11 220.064ZM353.462 87.2C353.462 74.8347 357.021 65.5285 363.823 58.8816L359.629 54.5904C351.412 62.6208 347.462 73.624 347.462 87.2H353.462ZM363.799 58.905C370.849 52.1676 379.887 48.728 391.166 48.728V42.728C378.552 42.728 367.963 46.627 359.653 54.567L363.799 58.905ZM391.166 48.728C402.446 48.728 411.383 52.1674 418.253 58.8816L422.447 54.5904C414.298 46.6273 403.779 42.728 391.166 42.728V48.728ZM418.277 58.905C425.238 65.5562 428.87 74.8545 428.87 87.2H434.87C434.87 73.6042 430.822 62.5931 422.423 54.567L418.277 58.905ZM428.87 87.2C428.87 99.7294 425.23 109.107 418.277 115.751L422.423 120.089C430.83 112.055 434.87 100.953 434.87 87.2H428.87ZM418.253 115.774C411.383 122.489 402.446 125.928 391.166 125.928V131.928C403.779 131.928 414.298 128.029 422.447 120.066L418.253 115.774ZM391.166 125.928C379.887 125.928 370.849 122.488 363.799 115.751L359.653 120.089C367.963 128.029 378.552 131.928 391.166 131.928V125.928ZM363.823 115.774C357.029 109.135 353.462 99.749 353.462 87.2H347.462C347.462 100.934 351.405 112.028 359.629 120.066L363.823 115.774ZM512.198 47.3313L411.59 226.531L416.822 229.469L517.43 50.2686L512.198 47.3313ZM414.206 225H379.39V231H414.206V225ZM382.008 229.466L482.36 50.2658L477.124 47.3342L376.772 226.534L382.008 229.466ZM479.742 51.8H514.814V45.8H479.742V51.8ZM390.91 64.232C385.413 64.232 380.899 66.2397 377.898 70.4952C375.033 74.5588 373.83 80.283 373.83 87.2H379.83C379.83 80.805 380.974 76.5451 382.802 73.9528C384.494 71.5523 387.021 70.232 390.91 70.232V64.232ZM373.83 87.2C373.83 94.1971 375.031 99.9787 377.888 104.082C380.882 108.383 385.397 110.424 390.91 110.424V104.424C387.036 104.424 384.511 103.094 382.812 100.654C380.976 98.016 379.83 93.6856 379.83 87.2H373.83ZM390.91 110.424C396.316 110.424 400.817 108.472 404.017 104.419L399.307 100.701C397.387 103.133 394.72 104.424 390.91 104.424V110.424ZM404.062 104.36C407.183 100.198 408.502 94.3151 408.502 87.2H402.502C402.502 93.7382 401.261 98.0948 399.262 100.76L404.062 104.36ZM408.502 87.2C408.502 80.2674 407.251 74.5252 404.276 70.4539C401.173 66.2075 396.536 64.232 390.91 64.232V70.232C395.012 70.232 397.671 71.5845 399.432 73.994C401.321 76.5788 402.502 80.8206 402.502 87.2H408.502ZM465.846 189.344C465.846 176.792 469.414 167.51 476.181 161.05L472.039 156.71C463.788 164.586 459.846 175.614 459.846 189.344H465.846ZM476.183 161.049C483.233 154.312 492.271 150.872 503.55 150.872V144.872C490.936 144.872 480.347 148.771 472.037 156.711L476.183 161.049ZM503.55 150.872C514.831 150.872 523.667 154.311 530.357 161.001L534.599 156.759C526.612 148.771 516.162 144.872 503.55 144.872V150.872ZM530.407 161.05C537.174 167.51 540.742 176.792 540.742 189.344H546.742C546.742 175.614 542.8 164.586 534.549 156.71L530.407 161.05ZM540.742 189.344C540.742 201.893 537.175 211.279 530.381 217.918L534.575 222.21C542.799 214.172 546.742 203.078 546.742 189.344H540.742ZM530.357 217.943C523.667 224.633 514.831 228.072 503.55 228.072V234.072C516.162 234.072 526.612 230.173 534.599 222.185L530.357 217.943ZM503.55 228.072C492.086 228.072 483.069 224.625 476.207 217.918L472.013 222.21C480.17 230.181 490.779 234.072 503.55 234.072V228.072ZM476.207 217.918C469.413 211.279 465.846 201.893 465.846 189.344H459.846C459.846 203.078 463.789 214.172 472.013 222.21L476.207 217.918ZM503.294 166.376C497.668 166.376 493.031 168.351 489.928 172.598C486.953 176.669 485.702 182.411 485.702 189.344H491.702C491.702 182.965 492.883 178.723 494.772 176.138C496.533 173.729 499.192 172.376 503.294 172.376V166.376ZM485.702 189.344C485.702 196.356 486.951 202.156 489.917 206.267C493.014 210.56 497.653 212.568 503.294 212.568V206.568C499.207 206.568 496.55 205.205 494.783 202.757C492.885 200.127 491.702 195.814 491.702 189.344H485.702ZM503.294 212.568C508.87 212.568 513.448 210.544 516.493 206.247C519.405 202.139 520.63 196.349 520.63 189.344H514.63C514.63 195.822 513.466 200.143 511.599 202.777C509.866 205.221 507.275 206.568 503.294 206.568V212.568ZM520.63 189.344C520.63 182.419 519.403 176.686 516.483 172.618C513.431 168.367 508.855 166.376 503.294 166.376V172.376C507.29 172.376 509.883 173.713 511.609 176.118C513.467 178.706 514.63 182.957 514.63 189.344H520.63Z" fill="white"/>
<path d="M27.796 24.668C26.676 24.668 25.668 24.476 24.772 24.092C23.876 23.692 23.172 23.132 22.66 22.412C22.148 21.692 21.892 20.852 21.892 19.892H24.82C24.884 20.612 25.164 21.204 25.66 21.668C26.172 22.132 26.884 22.364 27.796 22.364C28.74 22.364 29.476 22.14 30.004 21.692C30.532 21.228 30.796 20.636 30.796 19.916C30.796 19.356 30.628 18.9 30.292 18.548C29.972 18.196 29.564 17.924 29.068 17.732C28.588 17.54 27.916 17.332 27.052 17.108C25.964 16.82 25.076 16.532 24.388 16.244C23.716 15.94 23.14 15.476 22.66 14.852C22.18 14.228 21.94 13.396 21.94 12.356C21.94 11.396 22.18 10.556 22.66 9.836C23.14 9.116 23.812 8.564 24.676 8.18C25.54 7.796 26.54 7.604 27.676 7.604C29.292 7.604 30.612 8.012 31.636 8.828C32.676 9.628 33.252 10.732 33.364 12.14H30.34C30.292 11.532 30.004 11.012 29.476 10.58C28.948 10.148 28.252 9.932 27.388 9.932C26.604 9.932 25.964 10.132 25.468 10.532C24.972 10.932 24.724 11.508 24.724 12.26C24.724 12.772 24.876 13.196 25.18 13.532C25.5 13.852 25.9 14.108 26.38 14.3C26.86 14.492 27.516 14.7 28.348 14.924C29.452 15.228 30.348 15.532 31.036 15.836C31.74 16.14 32.332 16.612 32.812 17.252C33.308 17.876 33.556 18.716 33.556 19.772C33.556 20.62 33.324 21.42 32.86 22.172C32.412 22.924 31.748 23.532 30.868 23.996C30.004 24.444 28.98 24.668 27.796 24.668ZM47.3204 21.092H40.3364L39.1364 24.5H36.2804L42.2564 7.796H45.4244L51.4004 24.5H48.5204L47.3204 21.092ZM46.5524 18.86L43.8404 11.108L41.1044 18.86H46.5524ZM68.8547 7.82L62.5907 24.5H59.4227L53.1347 7.82H56.0627L61.0067 21.692L65.9747 7.82H68.8547ZM74.3588 10.028V14.924H80.1188V17.156H74.3588V22.268H80.8388V24.5H71.6228V7.796H80.8388V10.028H74.3588ZM94.1151 7.82V18.452C94.1151 19.716 94.4431 20.668 95.0991 21.308C95.7711 21.948 96.6991 22.268 97.8831 22.268C99.0831 22.268 100.011 21.948 100.667 21.308C101.339 20.668 101.675 19.716 101.675 18.452V7.82H104.411V18.404C104.411 19.764 104.115 20.916 103.523 21.86C102.931 22.804 102.139 23.508 101.147 23.972C100.155 24.436 99.0591 24.668 97.8591 24.668C96.6591 24.668 95.5631 24.436 94.5711 23.972C93.5951 23.508 92.8191 22.804 92.2431 21.86C91.6671 20.916 91.3791 19.764 91.3791 18.404V7.82H94.1151ZM120.117 12.788C120.117 13.636 119.917 14.436 119.517 15.188C119.117 15.94 118.477 16.556 117.597 17.036C116.717 17.5 115.589 17.732 114.213 17.732H111.189V24.5H108.453V7.82H114.213C115.493 7.82 116.573 8.044 117.453 8.492C118.349 8.924 119.013 9.516 119.445 10.268C119.893 11.02 120.117 11.86 120.117 12.788ZM114.213 15.5C115.253 15.5 116.029 15.268 116.541 14.804C117.053 14.324 117.309 13.652 117.309 12.788C117.309 10.964 116.277 10.052 114.213 10.052H111.189V15.5H114.213ZM140.697 7.82V10.052H136.257V24.5H133.521V10.052H129.057V7.82H140.697Z" fill="white"/>
<path d="M147.159 31.7106C146.061 30.6131 145.303 29.346 144.885 27.9092C144.489 26.4723 144.477 25.0242 144.851 23.5647C145.247 22.1052 146.022 20.7985 147.176 19.6445C148.33 18.4905 149.631 17.7212 151.079 17.3365C152.538 16.9631 153.981 16.9801 155.407 17.3874C156.855 17.7947 158.127 18.5471 159.225 19.6445C160.334 20.7532 161.086 22.026 161.482 23.4629C161.901 24.8997 161.918 26.3422 161.533 27.7904C161.148 29.2385 160.379 30.5396 159.225 31.6936C158.071 32.8476 156.764 33.6226 155.305 34.0186C153.857 34.4032 152.408 34.3919 150.96 33.9846C149.535 33.5773 148.268 32.8193 147.159 31.7106ZM148.839 30.0305C149.62 30.8111 150.491 31.3316 151.452 31.5918C152.425 31.8407 153.41 31.8067 154.405 31.4899C155.423 31.1732 156.368 30.5792 157.239 29.708C158.11 28.8369 158.699 27.8978 159.004 26.8909C159.321 25.8953 159.349 24.9167 159.089 23.955C158.829 22.9934 158.308 22.1222 157.528 21.3416C156.747 20.5609 155.876 20.0405 154.914 19.7803C153.953 19.52 152.968 19.5427 151.961 19.8481C150.966 20.1649 150.032 20.7589 149.161 21.6301C148.29 22.5012 147.691 23.4402 147.362 24.4472C147.057 25.4541 147.029 26.444 147.278 27.417C147.538 28.3787 148.058 29.2498 148.839 30.0305Z" fill="white"/>
</svg>
