<svg width="22" height="24" viewBox="0 0 22 24" fill="none" xmlns="http://www.w3.org/2000/svg">
<path d="M10.9999 23.3745C10.5967 23.3808 10.1989 23.2814 9.8461 23.0861L9.49994 22.8899C6.80372 21.3645 4.56063 19.1508 2.99972 16.475C1.43881 13.7991 0.616008 10.757 0.615327 7.65914V7.4976C0.611669 7.08901 0.716564 6.68678 0.919289 6.33201C1.12201 5.97724 1.4153 5.68266 1.76917 5.47837L9.8461 0.932219C10.1969 0.729677 10.5949 0.623047 10.9999 0.623047C11.405 0.623047 11.803 0.729677 12.1538 0.932219L20.2307 5.47837C20.5846 5.68266 20.8779 5.97724 21.0806 6.33201C21.2833 6.68678 21.3882 7.08901 21.3846 7.4976V7.65914C21.3816 10.7593 20.5553 13.803 18.9902 16.479C17.4251 19.1551 15.1774 21.3674 12.4769 22.8899L12.1307 23.0861C11.7847 23.2775 11.3954 23.3768 10.9999 23.3745ZM10.9999 2.95145L2.92302 7.4976V7.65914C2.92496 10.3489 3.64186 12.9897 5.00029 15.3112C6.35872 17.6327 8.30984 19.5514 10.6538 20.8707L10.9999 21.0668L11.3461 20.8707C13.69 19.5514 15.6412 17.6327 16.9996 15.3112C18.358 12.9897 19.0749 10.3489 19.0769 7.65914V7.4976L10.9999 2.95145Z" fill="#E14A48"/>
<path d="M6.63802 12.0442C6.30007 11.7062 6.30007 11.1583 6.63802 10.8203C6.97598 10.4824 7.52391 10.4824 7.86186 10.8203L9.69762 12.6561L14.389 7.9647C14.727 7.62675 15.2749 7.62675 15.6128 7.9647C15.9508 8.30265 15.9508 8.85058 15.6128 9.18854L10.5135 14.2879C10.0629 14.7385 9.33233 14.7385 8.88173 14.2879L6.63802 12.0442Z" fill="#E14A48"/>
</svg>
