<svg width="441" height="392" viewBox="0 0 441 392" fill="none" xmlns="http://www.w3.org/2000/svg">
<path d="M96.5374 304.433L95.4476 365.199L0.143627 365.422L0 303.841L96.5374 304.433Z" fill="#ECECEC"/>
<path d="M40.3884 365.25C40.2643 365.248 40.4079 351.684 40.7081 334.957C41.0076 318.224 41.3516 304.666 41.475 304.668C41.5983 304.671 41.4547 318.232 41.1553 334.965C40.855 351.692 40.5118 365.252 40.3884 365.25Z" fill="#E1E1E1"/>
<path d="M0.145393 365.42C0.13241 365.411 0.266304 365.191 0.531657 364.781C0.822978 364.341 1.21654 363.746 1.71155 362.999C2.77945 361.428 4.28393 359.218 6.13248 356.501C9.91883 351.006 15.1099 343.473 20.8438 335.151C26.5907 326.811 31.759 319.24 35.4455 313.725C37.2892 310.967 38.7531 308.717 39.7609 307.161C40.2413 306.404 40.6227 305.802 40.9051 305.357C41.1713 304.947 41.3165 304.736 41.3303 304.744C41.3433 304.751 41.224 304.978 40.983 305.404C40.7177 305.861 40.3598 306.476 39.9086 307.252C38.9446 308.84 37.5213 311.118 35.7092 313.899C32.0892 319.463 26.9599 327.065 21.2122 335.405C15.4677 343.743 10.211 351.254 6.39215 356.681C4.49492 359.365 2.95148 361.547 1.85437 363.098C1.33096 363.826 0.914675 364.404 0.606313 364.832C0.316615 365.226 0.158377 365.429 0.145393 365.42Z" fill="#E1E1E1"/>
<path d="M40.3889 365.25C40.3759 365.259 40.2249 365.052 39.9507 364.653C39.6585 364.218 39.2641 363.631 38.7683 362.894C37.728 361.323 36.2641 359.112 34.4643 356.396C30.7818 350.896 25.7344 343.357 20.1587 335.029C14.5522 326.693 9.52429 319.114 5.95704 313.581C4.1726 310.816 2.74196 308.571 1.77062 307.006C1.30484 306.249 0.934802 305.648 0.659711 305.2C0.409776 304.786 0.284809 304.564 0.297793 304.555C0.310777 304.546 0.460898 304.752 0.735177 305.153C1.02812 305.588 1.42169 306.173 1.9175 306.912C2.95782 308.481 4.42253 310.692 6.22239 313.408C9.90407 318.908 14.9523 326.448 20.5296 334.779C26.1344 343.112 31.1607 350.69 34.7288 356.223C36.5132 358.988 37.9447 361.235 38.9152 362.799C39.381 363.556 39.7518 364.157 40.0269 364.604C40.2769 365.02 40.4018 365.242 40.3889 365.25Z" fill="#E1E1E1"/>
<path d="M50.2148 358.368L65.5144 358.643L65.5704 355.508L50.2708 355.233L50.2148 358.368Z" fill="#E1E1E1"/>
<path d="M51.0078 352.69C51.007 352.566 54.3584 352.446 58.4921 352.423C62.6274 352.399 65.9796 352.479 65.9804 352.603C65.9812 352.726 62.6306 352.846 58.4953 352.871C54.3608 352.894 51.0078 352.813 51.0078 352.69Z" fill="#E1E1E1"/>
<path d="M71.3482 304.085L70.9278 327.543L67.6275 324.919L63.3438 327.407L63.7641 303.95L71.3482 304.085Z" fill="#E1E1E1"/>
<path d="M85.1116 258.412L84.2798 304.787L11.5479 304.957L11.4375 257.961L85.1116 258.412Z" fill="#F5F5F5"/>
<path d="M42.2526 304.826C42.1585 304.825 42.2672 294.472 42.4961 281.707C42.7257 268.937 42.987 258.59 43.0812 258.593C43.1761 258.594 43.0665 268.944 42.8377 281.713C42.6089 294.478 42.3468 304.828 42.2526 304.826Z" fill="#E1E1E1"/>
<path d="M11.5436 304.957C11.5339 304.95 11.6353 304.782 11.8382 304.469C12.0605 304.133 12.3608 303.68 12.7389 303.109C13.5536 301.911 14.7019 300.224 16.1122 298.149C19.0019 293.956 22.9635 288.207 27.3398 281.857C31.7259 275.492 35.6697 269.714 38.4831 265.504C39.8902 263.4 41.0076 261.683 41.7768 260.495C42.1428 259.918 42.4341 259.459 42.65 259.119C42.8529 258.806 42.964 258.645 42.9738 258.65C42.9843 258.657 42.8926 258.83 42.7092 259.154C42.5064 259.503 42.2337 259.974 41.8888 260.565C41.1536 261.776 40.0671 263.515 38.6843 265.637C35.9212 269.884 32.0075 275.685 27.6206 282.05C23.237 288.414 19.2251 294.146 16.311 298.287C14.8626 300.336 13.6851 302.001 12.8477 303.185C12.4484 303.74 12.1303 304.181 11.895 304.508C11.6743 304.808 11.5533 304.963 11.5436 304.957Z" fill="#E1E1E1"/>
<path d="M42.2568 304.826C42.2471 304.832 42.1318 304.675 41.9225 304.37C41.6993 304.038 41.3991 303.591 41.0209 303.027C40.2265 301.829 39.1091 300.141 37.7352 298.069C34.9251 293.871 31.073 288.118 26.8176 281.762C22.5395 275.401 18.7028 269.617 15.9795 265.395C14.6179 263.284 13.5256 261.569 12.7847 260.376C12.4293 259.798 12.1469 259.339 11.9367 258.999C11.746 258.682 11.6511 258.512 11.6608 258.505C11.6706 258.499 11.7858 258.656 11.9952 258.962C12.2175 259.294 12.5186 259.741 12.8967 260.304C13.6903 261.503 14.8086 263.189 16.1816 265.263C18.9917 269.459 22.8446 275.213 27.1016 281.572C31.3781 287.93 35.2148 293.714 37.9373 297.936C39.299 300.046 40.3912 301.762 41.1321 302.955C41.4883 303.533 41.7707 303.992 41.9809 304.333C42.1716 304.65 42.2665 304.819 42.2568 304.826Z" fill="#E1E1E1"/>
<path d="M49.7578 299.574L61.4341 299.783L61.4771 297.391L49.8008 297.181L49.7578 299.574Z" fill="#E1E1E1"/>
<path d="M50.3594 295.24C50.3594 295.146 52.9163 295.054 56.0714 295.036C59.2272 295.018 61.7858 295.08 61.7858 295.174C61.7866 295.268 59.2296 295.359 56.0738 295.378C52.9188 295.396 50.3594 295.334 50.3594 295.24Z" fill="#ECECEC"/>
<path d="M70.3979 258.148L70.0765 276.049L67.5585 274.047L64.2891 275.945L64.6096 258.043L70.3979 258.148Z" fill="#E1E1E1"/>
<path d="M92.9942 361.042C91.2008 355.715 86.3514 352.293 81.059 352.043L78.8266 229.169H89.5673V231.003H91.5903V226.605H78.7795H78.5036H74.8974C74.8974 226.605 76.8847 317.272 78.3324 352.202C77.6232 352.317 76.914 352.476 76.2112 352.713C70.5958 354.605 67.0861 359.896 67.1941 365.525L29.1406 365.016L30.228 370.019L67.7394 368.987C67.7905 369.159 67.8278 369.332 67.8854 369.505C70.2209 376.441 77.7352 380.171 84.6684 377.834C91.6025 375.497 95.3296 367.979 92.9942 361.042Z" fill="#E1E1E1"/>
<path d="M36.4258 377.307H38.4415L42.3195 369.686L39.1118 369.775L36.4258 377.307Z" fill="#E1E1E1"/>
<path d="M348.529 66.5371H310.422V55.9998H348.529V66.5371Z" fill="#ECECEC"/>
<path d="M99.8375 136.035H61.7305V125.498H99.8375V136.035Z" fill="#ECECEC"/>
<path d="M381.107 289.607H343V279.07H381.107V289.607Z" fill="#ECECEC"/>
<path d="M338.857 77.0742H300.75V66.537H338.857V77.0742Z" fill="#F5F5F5"/>
<path d="M83.7867 148.264H45.6797V137.726H83.7867V148.264Z" fill="#F5F5F5"/>
<path d="M356.853 300.48H329.477V289.943H356.853V300.48Z" fill="#F5F5F5"/>
<path d="M196.085 259.021H113.992V91.0672H196.085V259.021Z" fill="#ECECEC"/>
<path d="M155.038 91.0673C155.038 91.0673 138.207 167.257 113.992 172.462C113.992 172.462 123.775 225.903 124.662 259.021H113.992V91.0673H155.038Z" fill="#E1E1E1"/>
<path d="M155.32 91.0673C155.32 91.0673 172.151 167.257 196.366 172.462C196.366 172.462 186.583 225.903 185.696 259.021H196.366V91.0673H155.32Z" fill="#E1E1E1"/>
<path d="M156.536 259.021H153.543V90.7482H156.536V259.021Z" fill="#FAFAFA"/>
<path d="M133.717 259.021H132.98V90.7482H133.717V259.021Z" fill="#FAFAFA"/>
<path d="M178.03 259.021H177.293V90.7482H178.03V259.021Z" fill="#FAFAFA"/>
<path d="M196.084 132.473V133.147L113.992 133.484V132.811L196.084 132.473Z" fill="#FAFAFA"/>
<path d="M196.084 216.033V216.693L113.992 217.023V216.363L196.084 216.033Z" fill="#FAFAFA"/>
<path d="M196.085 176.158H113.992V173.357H196.085V176.158Z" fill="#FAFAFA"/>
<path d="M115.208 257.803H194.866V92.2841H115.208V257.803ZM197.3 260.238H112.773V89.8485H197.3V260.238Z" fill="#F5F5F5"/>
<path d="M436.303 259.021H354.211V91.0672H436.303V259.021Z" fill="#ECECEC"/>
<path d="M395.257 91.0673C395.257 91.0673 378.425 167.257 354.211 172.462C354.211 172.462 363.994 225.903 364.88 259.021H354.211V91.0673H395.257Z" fill="#E1E1E1"/>
<path d="M395.535 91.0673C395.535 91.0673 412.366 167.257 436.581 172.462C436.581 172.462 426.798 225.903 425.912 259.021H436.581V91.0673H395.535Z" fill="#E1E1E1"/>
<path d="M396.758 259.021H393.766V90.7482H396.758V259.021Z" fill="#FAFAFA"/>
<path d="M373.932 259.021H373.195V90.7482H373.932V259.021Z" fill="#FAFAFA"/>
<path d="M418.252 259.021H417.516V90.7482H418.252V259.021Z" fill="#FAFAFA"/>
<path d="M436.303 132.473V133.147L354.211 133.484V132.811L436.303 132.473Z" fill="#FAFAFA"/>
<path d="M436.303 216.033V216.693L354.211 217.023V216.363L436.303 216.033Z" fill="#FAFAFA"/>
<path d="M436.303 176.158H354.211V173.357H436.303V176.158Z" fill="#FAFAFA"/>
<path d="M355.431 257.803H435.088V92.2841H355.431V257.803ZM437.522 260.238H352.996V89.8485H437.522V260.238Z" fill="#F5F5F5"/>
<path d="M181.049 353.241C178.182 351.76 174.805 351.567 171.622 352.094C169.911 352.378 168.128 352.888 166.965 354.174C165.8 355.459 165.58 357.722 166.916 358.826C167.712 359.483 168.821 359.583 169.853 359.572C172.345 359.542 175.11 359.103 177.102 360.603C178.237 361.459 178.993 362.882 180.352 363.304C181.68 363.715 183.18 362.931 183.884 361.73C184.588 360.53 184.613 359.031 184.284 357.679C184.284 357.679 183.938 354.731 181.049 353.241Z" fill="#ECECEC"/>
<path d="M187.618 340.552C185.864 343.057 182.457 342.227 180.876 340.698C179.296 339.169 178.628 336.952 178.02 334.838C176.631 330.009 175.23 324.942 176.263 320.024C176.572 318.553 177.122 317.088 178.154 315.996C179.187 314.905 180.775 314.257 182.227 314.641C183.946 315.095 185.013 316.778 185.785 318.38C188.054 323.088 189.256 328.308 189.274 333.535C189.282 335.976 188.994 338.536 187.618 340.552Z" fill="#ECECEC"/>
<path d="M192.436 344.146C190.533 341.886 190.171 338.588 191.018 335.756C191.865 332.925 193.779 330.516 195.985 328.549C198.571 326.242 201.611 324.448 204.879 323.298C206.165 322.846 207.522 322.489 208.879 322.618C210.236 322.749 211.603 323.442 212.235 324.65C213.172 326.437 212.274 328.602 211.303 330.37C209.593 333.484 207.638 336.463 205.462 339.27C203.711 341.528 201.705 343.757 199.037 344.776C196.369 345.797 193.597 345.678 192.182 343.826" fill="#ECECEC"/>
<path d="M187.736 378.348C187.703 378.35 187.65 377.944 187.578 377.209C187.497 376.38 187.396 375.34 187.275 374.102C187.131 372.794 186.94 371.239 186.576 369.544C186.214 367.854 185.648 366.023 184.921 364.166C184.168 362.319 183.249 360.641 182.175 359.299C181.109 357.95 179.869 356.974 178.704 356.412C177.543 355.838 176.501 355.605 175.781 355.501C175.056 355.427 174.648 355.369 174.648 355.337C174.648 355.304 175.056 355.299 175.801 355.319C176.541 355.368 177.625 355.556 178.849 356.112C180.077 356.658 181.393 357.649 182.511 359.024C183.638 360.395 184.59 362.11 185.357 363.99C186.096 365.88 186.654 367.731 187.001 369.457C187.346 371.18 187.502 372.753 187.606 374.072C187.704 375.391 187.742 376.46 187.76 377.198C187.777 377.937 187.768 378.346 187.736 378.348Z" fill="#E1E1E1"/>
<path d="M187.517 375.957C187.501 375.956 187.491 375.774 187.486 375.428C187.487 375.031 187.489 374.531 187.49 373.918C187.494 372.606 187.494 370.709 187.423 368.366C187.308 363.682 186.905 357.213 186.126 350.103C185.341 342.992 184.301 336.595 183.354 332.005C183.129 330.854 182.903 329.819 182.691 328.913C182.488 328.005 182.316 327.221 182.148 326.586C182.006 325.99 181.888 325.504 181.795 325.118C181.72 324.781 181.688 324.601 181.703 324.597C181.719 324.592 181.782 324.763 181.887 325.093C182.002 325.472 182.147 325.951 182.325 326.54C182.52 327.168 182.719 327.946 182.946 328.851C183.184 329.754 183.432 330.787 183.678 331.935C184.711 336.52 185.806 342.924 186.592 350.052C187.373 357.176 187.724 363.663 187.755 368.361C187.783 370.709 187.734 372.61 187.673 373.922C187.636 374.536 187.606 375.036 187.581 375.433C187.555 375.777 187.533 375.958 187.517 375.957Z" fill="#E1E1E1"/>
<path d="M187.486 363.445C187.454 363.444 187.459 362.884 187.497 361.868C187.555 360.854 187.695 359.388 187.98 357.592C188.282 355.801 188.706 353.674 189.37 351.362C190.002 349.044 190.87 346.539 191.973 343.991C194.133 338.866 197.067 334.675 199.62 332.079C200.218 331.391 200.885 330.893 201.418 330.407C201.694 330.174 201.938 329.94 202.187 329.757C202.437 329.584 202.669 329.424 202.885 329.275C203.724 328.7 204.195 328.397 204.213 328.424C204.288 328.527 202.331 329.679 199.86 332.309C197.399 334.934 194.547 339.096 192.404 344.179C191.311 346.704 190.437 349.185 189.786 351.482C189.103 353.77 188.65 355.875 188.307 357.649C187.982 359.427 187.793 360.877 187.679 361.882C187.586 362.888 187.518 363.447 187.486 363.445Z" fill="#E1E1E1"/>
<path d="M49.3764 109.817C117.327 52.0391 203.819 173.458 320.761 171.973C376.31 171.267 453.975 189.351 439.151 253.278C422.693 324.253 231.976 325.033 148.644 300.6C65.3114 276.169 -14.7149 164.314 49.3764 109.817Z" fill="#ECECEC"/>
<path d="M424.827 378.965C424.827 379.082 333.08 379.176 219.931 379.176C106.743 379.176 15.0156 379.082 15.0156 378.965C15.0156 378.848 106.743 378.753 219.931 378.753C333.08 378.753 424.827 378.848 424.827 378.965Z" fill="#303030"/>
<path d="M98.3861 376.149L99.708 367.882L84.9196 365.414L82.8203 377.755L83.7275 377.969C87.7687 378.887 104.385 382.072 107.256 381.663C110.459 381.206 98.3861 376.149 98.3861 376.149Z" fill="url(#paint0_linear_1236_4077)"/>
<path d="M107.723 380.962C107.701 381.101 102.145 380.328 95.3155 379.234C88.4845 378.14 82.9656 377.141 82.9884 377.002C83.0103 376.863 88.5648 377.636 95.3967 378.731C102.226 379.824 107.745 380.824 107.723 380.962Z" fill="#303030"/>
<path d="M98.3768 377.878C98.2657 377.794 98.4393 377.375 98.8264 376.995C99.2127 376.613 99.6363 376.446 99.7174 376.559C99.801 376.675 99.5397 377.006 99.1843 377.358C98.8264 377.708 98.4896 377.963 98.3768 377.878Z" fill="#303030"/>
<path d="M99.2293 378.574C99.1083 378.506 99.2528 378.026 99.6269 377.559C99.9985 377.088 100.434 376.839 100.528 376.941C100.624 377.046 100.371 377.438 100.025 377.876C99.6772 378.31 99.3518 378.646 99.2293 378.574Z" fill="#303030"/>
<path d="M87.4583 377.662C87.3942 377.692 87.2084 377.441 86.9463 377.025C86.6817 376.613 86.3417 376.035 85.8556 375.516C85.3752 374.999 84.8048 374.687 84.3658 374.559C83.9259 374.427 83.6192 374.45 83.6062 374.373C83.5884 374.315 83.8967 374.153 84.4347 374.205C84.9663 374.254 85.6779 374.572 86.2265 375.166C86.7742 375.754 87.0794 376.399 87.2676 376.862C87.4518 377.328 87.5208 377.631 87.4583 377.662Z" fill="#303030"/>
<path d="M98.6664 376.331C98.72 376.459 98.4205 376.706 97.9734 376.793C97.5255 376.882 97.1546 376.766 97.1563 376.627C97.1571 376.484 97.4825 376.372 97.8744 376.294C98.2672 376.216 98.6129 376.199 98.6664 376.331Z" fill="#303030"/>
<path d="M98.5639 375.495C98.555 375.636 98.1419 375.691 97.6404 375.618C97.1397 375.545 96.76 375.374 96.7908 375.237C96.8233 375.099 97.2363 375.044 97.7151 375.114C98.1922 375.184 98.5728 375.355 98.5639 375.495Z" fill="#303030"/>
<path d="M150.713 374.365L150.404 366L135.418 366.454L135.756 378.967L136.687 379.002C140.83 379.116 157.747 379.01 160.485 378.05C163.538 376.98 150.713 374.365 150.713 374.365Z" fill="url(#paint1_linear_1236_4077)"/>
<path d="M160.811 377.27C160.816 377.41 155.216 377.731 148.304 377.987C141.39 378.242 135.783 378.335 135.777 378.194C135.772 378.054 141.371 377.732 148.285 377.477C155.198 377.222 160.805 377.129 160.811 377.27Z" fill="#303030"/>
<path d="M151.04 376.062C150.914 376.002 151.003 375.557 151.309 375.109C151.614 374.659 151.997 374.414 152.098 374.508C152.203 374.605 152.011 374.981 151.73 375.396C151.448 375.809 151.167 376.125 151.04 376.062Z" fill="#303030"/>
<path d="M152.016 376.578C151.883 376.534 151.932 376.036 152.208 375.504C152.481 374.97 152.86 374.642 152.972 374.724C153.088 374.808 152.915 375.242 152.661 375.738C152.404 376.232 152.15 376.625 152.016 376.578Z" fill="#303030"/>
<path d="M140.287 377.973C140.23 378.016 139.999 377.805 139.661 377.449C139.322 377.095 138.875 376.594 138.299 376.18C137.727 375.765 137.107 375.571 136.651 375.531C136.194 375.487 135.898 375.569 135.869 375.496C135.841 375.443 136.111 375.223 136.65 375.171C137.181 375.114 137.94 375.289 138.594 375.765C139.245 376.235 139.67 376.809 139.944 377.225C140.215 377.647 140.342 377.932 140.287 377.973Z" fill="#303030"/>
<path d="M151.027 374.488C151.104 374.604 150.858 374.904 150.436 375.076C150.014 375.25 149.628 375.209 149.603 375.073C149.576 374.933 149.873 374.759 150.243 374.605C150.613 374.453 150.948 374.37 151.027 374.488Z" fill="#303030"/>
<path d="M150.762 373.689C150.781 373.828 150.386 373.963 149.881 373.988C149.375 374.013 148.969 373.92 148.973 373.779C148.978 373.638 149.373 373.504 149.855 373.48C150.338 373.456 150.743 373.549 150.762 373.689Z" fill="#303030"/>
<path d="M171.036 166.189L170.194 163.465C170.194 163.465 169.948 161.743 168.871 158.86C168.591 158.113 168.182 157.419 167.672 156.802C167.054 156.054 166.194 155.093 165.564 154.709C164.785 154.235 164.959 153.069 165.773 153.001C166.586 152.934 168.764 154.188 170.435 156.615C172.107 159.042 172.419 154.468 172.563 152.805C172.707 151.141 173.391 146.02 173.935 145.672C174.734 145.163 175.445 145.944 175.263 147.601C175.08 149.278 174.886 154.275 175.764 154.331C176.629 154.386 177.245 145.904 177.245 145.904C177.245 145.904 177.085 144.062 178.101 144.093C179.935 144.149 178.619 153.1 178.473 153.949C178.372 154.539 179.325 154.635 179.401 153.994C179.478 153.336 179.819 145.513 181.686 145.552C183.119 145.581 180.672 152.928 181.498 154.613C182.324 156.297 182.786 148.837 184.155 148.922C184.664 148.954 185.042 149.049 184.162 153.279C183.26 157.611 178.908 168.898 178.908 168.898L170.939 166.049" fill="#FFBF9D"/>
<path d="M116.215 163.949L129.7 164.947C129.881 163.386 130.143 157.321 130.143 157.321C130.143 157.321 135.774 156.797 136.187 151.221C136.6 145.646 136.424 132.773 136.424 132.773C130.139 129.598 122.628 130.075 116.796 134.02L115.93 134.605L116.215 163.949Z" fill="#FFBF9D"/>
<path d="M134.55 142.286C134.238 141.965 134.244 141.451 134.566 141.138C134.886 140.825 135.4 140.831 135.712 141.153C136.026 141.474 136.019 141.987 135.698 142.301C135.377 142.613 134.864 142.608 134.55 142.286Z" fill="#303030"/>
<path d="M135.98 141.093C135.887 141.184 135.365 140.73 134.597 140.679C133.831 140.616 133.247 140.99 133.168 140.886C133.129 140.839 133.228 140.67 133.482 140.501C133.732 140.331 134.154 140.179 134.632 140.214C135.11 140.25 135.504 140.462 135.726 140.666C135.953 140.872 136.025 141.054 135.98 141.093Z" fill="#303030"/>
<path d="M127.083 141.217C127.45 141.475 127.537 141.982 127.28 142.349C127.022 142.715 126.516 142.804 126.15 142.545C125.783 142.287 125.694 141.781 125.953 141.414C126.211 141.047 126.716 140.96 127.083 141.217Z" fill="#303030"/>
<path d="M127.593 141.256C127.5 141.347 126.978 140.892 126.211 140.841C125.444 140.778 124.86 141.152 124.782 141.049C124.743 141.001 124.841 140.833 125.096 140.663C125.346 140.493 125.767 140.341 126.245 140.376C126.724 140.412 127.117 140.625 127.339 140.829C127.567 141.034 127.639 141.216 127.593 141.256Z" fill="#303030"/>
<path d="M130.285 147.787C130.284 147.729 130.765 147.664 131.544 147.605C131.745 147.596 131.91 147.562 131.934 147.45C131.979 147.328 131.913 147.107 131.826 146.862C131.661 146.343 131.492 145.815 131.316 145.262C130.613 142.985 130.135 141.113 130.247 141.078C130.359 141.044 131.017 142.861 131.719 145.137C131.885 145.694 132.043 146.225 132.198 146.746C132.258 146.984 132.381 147.263 132.257 147.584C132.192 147.745 132.029 147.855 131.895 147.881C131.762 147.913 131.648 147.906 131.552 147.905C130.771 147.886 130.287 147.846 130.285 147.787Z" fill="#303030"/>
<path d="M127.737 148.481C126.966 147.955 129.868 149.788 131.437 149.808C131.437 149.808 130.452 151.187 128.88 150.499C127.248 149.785 127.737 148.481 127.737 148.481Z" fill="white"/>
<path d="M130.159 157.24C130.159 157.24 126.617 157.309 123.016 154.724C123.016 154.724 124.487 158.846 130.083 158.687L130.159 157.24Z" fill="#FF9A6C"/>
<path d="M116.01 140.299L116.688 144.299L119.172 144.251L119.012 135.918C119.012 135.918 128.862 136.675 129.989 132.732C129.989 132.732 132.883 137.092 136.502 137.073C136.502 137.073 139.656 136.752 136.654 132.363C132.032 125.604 115.577 131.034 115.577 131.034C115.577 131.034 115.018 132.398 114.98 134.867C114.912 139.152 116.01 140.299 116.01 140.299Z" fill="#303030"/>
<path d="M114.69 136.234L136.644 131.879C136.644 131.879 135.082 123.099 123.24 125.65C111.709 128.134 114.69 136.234 114.69 136.234Z" fill="url(#paint2_linear_1236_4077)"/>
<path d="M114.695 136.236C115.002 136.175 141.523 136.8 143.413 133.13C144.315 131.378 136.471 131.33 136.471 131.33L136.649 131.88L114.695 136.236Z" fill="url(#paint3_linear_1236_4077)"/>
<g opacity="0.199997">
<g opacity="0.199997">
<path opacity="0.199997" d="M114.703 136.236C115.01 136.175 141.531 136.8 143.421 133.13C144.323 131.378 136.478 131.33 136.478 131.33L136.657 131.88L114.703 136.236Z" fill="#303030"/>
</g>
</g>
<path d="M116.998 139.558C116.877 139.513 112.86 138.99 113.24 143.736C113.619 148.481 118.284 146.528 118.282 146.392C118.279 146.255 116.998 139.558 116.998 139.558Z" fill="#FFBF9D"/>
<path d="M116.698 144.841C116.676 144.827 116.62 144.906 116.486 144.981C116.354 145.054 116.124 145.115 115.869 145.043C115.353 144.9 114.868 144.137 114.776 143.284C114.73 142.853 114.787 142.434 114.913 142.081C115.03 141.723 115.235 141.462 115.484 141.397C115.73 141.319 115.921 141.456 115.989 141.585C116.064 141.712 116.041 141.81 116.067 141.815C116.081 141.827 116.162 141.728 116.108 141.534C116.082 141.442 116.017 141.335 115.898 141.253C115.777 141.169 115.605 141.135 115.431 141.168C115.068 141.223 114.765 141.585 114.627 141.973C114.468 142.363 114.394 142.835 114.446 143.319C114.553 144.273 115.114 145.128 115.815 145.271C116.156 145.331 116.427 145.209 116.561 145.085C116.698 144.956 116.715 144.848 116.698 144.841Z" fill="#FF9A6C"/>
<path d="M129.98 132.168L127.293 132.219L127.242 129.531L129.929 129.48L129.98 132.168Z" fill="#303030"/>
<path d="M129.931 129.335L128.588 129.361L128.562 128.018L129.905 127.992L129.931 129.335Z" fill="#303030"/>
<path d="M170.042 162.698C170.042 162.698 165.899 189.102 162.975 189.241C159.639 189.399 149.384 174.845 149.384 174.845L149.383 174.846C142.823 164.712 134.158 163.073 131.001 162.822L131.021 161.57L115.504 160.298C115.504 160.298 115.529 161.634 115.494 162.8L108.627 162.809C108.627 162.809 96.32 162.247 94.4755 178.783L103.323 185.78L106.949 199.282C108.055 203.403 106.369 208.664 104.515 217.909C103.803 217.74 103.406 217.646 103.406 217.646L102.936 226.96C102.872 227.398 102.808 227.839 102.745 228.291L102.869 228.29L99.1163 302.649L79.9492 374.67L101.526 375.477L121.423 305.207C121.423 305.207 123.147 249.026 124.899 248.992C127.849 248.935 129.733 373.968 130.858 373.688C131.985 373.407 154.151 373.632 154.151 373.632C154.151 373.632 146.812 227.965 146.865 227.961L144.962 200.387L144.239 192.416C148.451 198.342 156.402 207.597 164.917 207.433C178.769 207.165 180.715 164.203 180.715 164.203L170.042 162.698Z" fill="#4F4F4F"/>
<path d="M124.106 248.434C124.039 248.384 124.77 247.6 125.392 246.038C126.04 244.489 126.411 242.172 126.439 239.595C126.435 237.069 126.432 234.785 126.428 232.968C126.439 231.27 126.475 230.219 126.533 230.218C126.591 230.218 126.661 231.266 126.727 232.963C126.779 234.663 126.886 237 126.862 239.604C126.833 240.906 126.739 242.151 126.536 243.268C126.333 244.386 126.023 245.371 125.667 246.155C125.324 246.948 124.908 247.516 124.626 247.901C124.311 248.265 124.128 248.453 124.106 248.434Z" fill="#303030"/>
<path d="M111.375 236.634C111.404 236.634 111.443 236.905 111.488 237.397C111.531 237.89 111.58 238.604 111.597 239.491C111.613 241.237 111.55 243.811 110.245 246.273C109.595 247.486 108.693 248.503 107.669 249.142C106.646 249.784 105.564 250.056 104.662 250.09C103.754 250.121 103.029 249.932 102.57 249.73C102.109 249.528 101.896 249.343 101.907 249.327C101.932 249.236 102.9 249.928 104.644 249.792C105.497 249.722 106.51 249.434 107.458 248.815C108.406 248.199 109.252 247.232 109.873 246.073C111.122 243.723 111.239 241.224 111.299 239.49C111.332 237.732 111.308 236.636 111.375 236.634Z" fill="#303030"/>
<path d="M148.42 249.566C148.436 249.58 148.287 249.805 147.887 250.071C147.489 250.329 146.813 250.598 145.947 250.577C145.082 250.577 144.063 250.217 143.162 249.539C142.25 248.865 141.438 247.925 140.721 246.86C139.274 244.715 138.654 242.401 138.478 240.74C138.388 239.905 138.399 239.224 138.424 238.758C138.462 238.29 138.502 238.035 138.531 238.038C138.605 238.04 138.53 239.072 138.774 240.701C139.022 242.317 139.67 244.546 141.071 246.625C141.767 247.658 142.55 248.577 143.395 249.228C144.239 249.884 145.159 250.241 145.96 250.279C146.763 250.335 147.405 250.129 147.806 249.928C148.208 249.72 148.395 249.539 148.42 249.566Z" fill="#303030"/>
<path d="M102.515 370.696C102.511 370.813 97.7286 370.734 91.834 370.52C85.9387 370.306 81.1631 370.037 81.168 369.921C81.172 369.804 85.9533 369.883 91.8495 370.098C97.7432 370.311 102.519 370.579 102.515 370.696Z" fill="#303030"/>
<path d="M153.376 367.447C153.378 367.475 153.059 367.518 152.479 367.57C151.807 367.62 150.987 367.68 150.021 367.75C147.945 367.884 145.074 368.039 141.902 368.186C138.728 368.332 135.855 368.44 133.775 368.497C132.807 368.514 131.985 368.531 131.311 368.543C130.729 368.544 130.407 368.531 130.406 368.502C130.405 368.473 130.726 368.431 131.307 368.378C131.978 368.329 132.799 368.269 133.765 368.199C135.842 368.065 138.711 367.909 141.882 367.763C145.052 367.617 147.923 367.509 150.003 367.452C150.972 367.434 151.794 367.418 152.468 367.406C153.051 367.405 153.374 367.418 153.376 367.447Z" fill="#303030"/>
<path d="M113.571 250.152C113.578 250.152 113.583 250.26 113.584 250.47C113.583 250.701 113.581 251.01 113.579 251.403C113.565 252.246 113.543 253.45 113.516 254.99C113.448 258.104 113.304 262.611 113.078 268.176C112.849 273.741 112.54 280.367 112.104 287.719C111.883 291.396 111.641 295.254 111.313 299.25C111.141 301.246 110.984 303.287 110.635 305.338C110.293 307.387 109.849 309.439 109.406 311.52C105.705 328.125 101.546 342.956 98.301 353.613C96.6837 358.945 95.2181 363.21 94.1949 366.152C93.6609 367.596 93.2446 368.726 92.9517 369.517C92.8105 369.885 92.7001 370.173 92.6174 370.388C92.5395 370.584 92.4965 370.682 92.4891 370.68C92.4827 370.677 92.5127 370.573 92.5768 370.373C92.6498 370.154 92.7472 369.861 92.8722 369.488C93.1464 368.691 93.5384 367.552 94.0391 366.097C95.0145 363.141 96.4354 358.865 98.0153 353.526C101.185 342.855 105.296 328.016 108.993 311.43C109.435 309.355 109.88 307.303 110.22 305.27C110.567 303.241 110.725 301.21 110.9 299.215C111.233 295.226 111.483 291.37 111.715 287.696C112.173 280.348 112.513 273.725 112.779 268.163C113.02 262.616 113.216 258.119 113.351 254.984C113.413 253.447 113.461 252.243 113.494 251.4C113.514 251.007 113.529 250.699 113.54 250.469C113.553 250.259 113.563 250.151 113.571 250.152Z" fill="#303030"/>
<path d="M143.349 367.99C143.341 367.99 143.329 367.891 143.311 367.698C143.294 367.483 143.271 367.198 143.242 366.837C143.19 366.055 143.114 364.944 143.019 363.527C142.847 360.624 142.601 356.469 142.298 351.344C141.72 341.055 141 326.838 140.333 311.129C139.665 295.415 139.175 281.187 138.861 270.887C138.72 265.755 138.606 261.594 138.526 258.689C138.497 257.268 138.475 256.155 138.46 255.372C138.457 255.009 138.455 254.724 138.453 254.509C138.454 254.314 138.458 254.214 138.465 254.214C138.473 254.213 138.483 254.313 138.496 254.507C138.508 254.722 138.525 255.008 138.545 255.368C138.579 256.152 138.628 257.263 138.69 258.683C138.802 261.587 138.963 265.746 139.16 270.877C139.569 281.194 140.133 295.408 140.756 311.111C141.422 326.818 142.095 341.037 142.596 351.329C142.843 356.456 143.044 360.614 143.183 363.517C143.245 364.937 143.294 366.049 143.327 366.833C143.338 367.195 143.347 367.48 143.354 367.696C143.358 367.89 143.356 367.989 143.349 367.99Z" fill="#303030"/>
<path d="M125.53 161.119C125.58 161.123 125.583 161.941 125.549 163.303C125.497 164.663 125.463 166.579 125.019 168.736L124.964 169.002L124.721 168.874C124.206 168.603 123.672 168.316 123.139 168.003C120.883 166.686 118.968 165.314 117.555 164.372C116.148 163.419 115.26 162.855 115.29 162.802C115.317 162.754 116.263 163.228 117.717 164.12C119.177 165.003 121.118 166.334 123.352 167.637C123.88 167.947 124.405 168.234 124.913 168.507L124.615 168.645C125.064 166.55 125.156 164.639 125.28 163.289C125.387 161.932 125.478 161.116 125.53 161.119Z" fill="#303030"/>
<path d="M131.05 162.924C131.108 162.944 130.896 163.705 130.607 164.948C130.456 165.568 130.295 166.315 130.027 167.133C129.893 167.54 129.729 167.961 129.531 168.387C129.469 168.51 129.397 168.638 129.24 168.743C129.086 168.866 128.78 168.828 128.658 168.675C128.428 168.393 128.412 168.19 128.296 167.963C127.542 166.162 126.879 164.523 126.419 163.328C125.961 162.133 125.703 161.384 125.757 161.361C125.811 161.339 126.165 162.047 126.695 163.212C127.226 164.377 127.931 165.999 128.686 167.799C128.782 168.007 128.875 168.296 128.955 168.378C128.994 168.408 128.978 168.403 129.018 168.388C129.059 168.366 129.119 168.289 129.157 168.208C129.353 167.803 129.519 167.398 129.66 167.005C129.939 166.221 130.131 165.484 130.318 164.87C130.684 163.639 130.998 162.905 131.05 162.924Z" fill="#303030"/>
<path d="M128.135 218.398C128.12 218.399 128.098 218.2 128.068 217.818C128.04 217.396 128.004 216.842 127.959 216.151C127.881 214.655 127.771 212.572 127.637 210.018C127.404 204.796 127.085 197.661 126.733 189.778C126.428 181.891 126.154 174.753 125.953 169.529C125.874 166.974 125.81 164.889 125.765 163.392C125.752 162.701 125.742 162.145 125.735 161.722C125.733 161.34 125.738 161.14 125.753 161.139C125.768 161.138 125.79 161.338 125.819 161.718C125.847 162.141 125.884 162.695 125.929 163.384C126.007 164.881 126.117 166.964 126.251 169.517C126.484 174.74 126.803 181.876 127.155 189.762C127.459 197.646 127.734 204.783 127.935 210.008C128.014 212.564 128.077 214.648 128.124 216.145C128.136 216.837 128.146 217.392 128.153 217.816C128.155 218.197 128.15 218.398 128.135 218.398Z" fill="#303030"/>
<path d="M130.585 179.627L138.038 179.483L138.008 177.944L130.555 178.088L130.585 179.627Z" fill="white"/>
<path d="M145.111 203.133C144.994 203.141 144.523 197.498 144.057 190.532C143.591 183.563 143.308 177.91 143.425 177.902C143.541 177.895 144.013 183.535 144.479 190.504C144.944 197.47 145.228 203.125 145.111 203.133Z" fill="#303030"/>
<path d="M180.494 169.567C180.468 169.681 177.963 169.204 174.899 168.503C171.835 167.801 169.373 167.14 169.399 167.026C169.425 166.912 171.929 167.389 174.994 168.09C178.057 168.792 180.52 169.454 180.494 169.567Z" fill="#303030"/>
<path d="M171.658 164.575C172.078 164.567 172.424 164.901 172.432 165.32C172.44 165.74 172.106 166.085 171.688 166.094C171.269 166.102 170.922 165.769 170.914 165.349C170.906 164.93 171.239 164.584 171.658 164.575Z" fill="#303030"/>
<path d="M137.997 177.183L135.31 177.234L135.258 174.547L137.945 174.495L137.997 177.183Z" fill="url(#paint4_linear_1236_4077)"/>
<path d="M137.939 174.353L136.596 174.379L136.57 173.035L137.913 173.009L137.939 174.353Z" fill="url(#paint5_linear_1236_4077)"/>
<path d="M178.151 188.267L177.052 231.617L109.055 231.272L109.277 187.336L178.151 188.267Z" fill="url(#paint6_linear_1236_4077)"/>
<path d="M137.766 231.363C137.649 231.36 137.8 221.683 138.103 209.75C138.405 197.814 138.745 188.143 138.862 188.145C138.978 188.148 138.828 197.824 138.525 209.761C138.222 221.693 137.883 231.367 137.766 231.363Z" fill="#303030"/>
<path d="M109.052 231.273C109.04 231.265 109.134 231.107 109.322 230.814C109.54 230.486 109.819 230.065 110.166 229.542C110.945 228.408 112.023 226.839 113.34 224.92C116.079 221.001 119.813 215.659 123.938 209.757C128.081 203.837 131.814 198.466 134.48 194.555C135.814 192.601 136.875 191.007 137.607 189.905C137.95 189.381 138.227 188.958 138.441 188.63C138.636 188.34 138.744 188.192 138.756 188.199C138.769 188.207 138.685 188.37 138.514 188.674C138.316 189.014 138.062 189.451 137.746 189.993C137.055 191.124 136.032 192.744 134.729 194.722C132.124 198.679 128.428 204.079 124.284 209.999C120.141 215.918 116.345 221.246 113.585 225.092C112.221 226.98 111.106 228.522 110.3 229.637C109.927 230.14 109.626 230.546 109.392 230.862C109.181 231.14 109.064 231.282 109.052 231.273Z" fill="#303030"/>
<path d="M137.094 231.711C136.995 231.773 130.735 222.004 123.112 209.892C115.486 197.778 109.387 187.909 109.486 187.848C109.585 187.785 115.844 197.553 123.469 209.668C131.092 221.779 137.193 231.649 137.094 231.711Z" fill="#303030"/>
<path d="M144.812 226.506L155.727 226.783L155.784 224.547L144.869 224.27L144.812 226.506Z" fill="#303030"/>
<path d="M145.406 222.46C145.406 222.342 147.798 222.252 150.748 222.257C153.699 222.261 156.089 222.36 156.089 222.477C156.089 222.593 153.698 222.684 150.747 222.68C147.798 222.675 145.406 222.576 145.406 222.46Z" fill="#303030"/>
<path d="M164.397 187.919L163.973 204.652L161.632 202.763L158.562 204.515L158.987 187.782L164.397 187.919Z" fill="#303030"/>
<path d="M107.903 183.5C107.903 183.5 104.605 206.511 106.164 207.822C114.8 215.086 126.798 218.899 131.094 220.096C131.717 219.947 132.453 219.749 133.296 219.482C134.025 219.251 134.707 218.891 135.316 218.429C136.055 217.869 137.008 217.085 137.395 216.495C137.875 215.763 138.994 215.996 139.035 216.79C139.076 217.583 137.802 219.633 135.413 221.125C135.413 221.125 140.916 229.981 142.668 230.776C144.42 231.573 149.439 233.837 148.593 234.271C147.747 234.707 141.632 232.926 141.632 232.926L129.248 229.614C129.248 229.614 88.2844 223.189 91.0134 204.387C92.6866 192.864 94.51 182.478 95.1722 179.852L107.903 183.5Z" fill="#FFBF9D"/>
<path d="M94.4769 178.783L90.8025 203.886C89.9521 211.618 95.1269 217.755 102.093 221.209C112.694 226.463 128.429 230.21 128.297 230.185C128.083 230.146 129.361 218.981 129.361 218.981C129.361 218.981 107.301 209.419 106.61 205.313C105.918 201.206 109.415 184.031 109.415 184.031L94.4769 178.783Z" fill="#4F4F4F"/>
<path d="M128.293 230.186C128.285 230.185 128.285 230.117 128.29 229.986C128.299 229.831 128.311 229.639 128.324 229.405C128.367 228.861 128.424 228.115 128.496 227.173C128.668 225.201 128.91 222.407 129.209 218.968L129.293 219.116C126.132 217.584 122.375 215.762 118.2 213.739C117.155 213.229 116.085 212.707 114.992 212.173C113.913 211.602 112.832 210.975 111.765 210.285C110.698 209.594 109.647 208.833 108.636 207.989C108.132 207.566 107.639 207.122 107.162 206.653C106.941 206.435 106.653 206.147 106.519 205.807C106.44 205.642 106.375 205.475 106.339 205.303C106.29 205.133 106.248 204.962 106.229 204.79C105.869 202.047 106.605 199.452 106.985 196.985C107.413 194.503 107.827 192.109 108.222 189.827C109.018 185.273 109.735 181.169 110.34 177.709C110.65 175.987 110.917 174.427 110.898 173.047C110.896 171.668 110.597 170.498 110.183 169.623C109.772 168.744 109.26 168.172 108.885 167.827C108.506 167.485 108.27 167.348 108.282 167.33C108.282 167.33 108.537 167.435 108.942 167.763C109.341 168.092 109.887 168.661 110.331 169.552C110.779 170.434 111.11 171.635 111.134 173.043C111.176 174.451 110.925 176.036 110.634 177.76C110.055 181.226 109.367 185.336 108.605 189.898C108.218 192.183 107.812 194.58 107.391 197.064C107.284 197.686 107.176 198.314 107.066 198.946C106.938 199.567 106.832 200.202 106.744 200.84C106.586 202.115 106.453 203.442 106.647 204.722C106.664 204.884 106.703 205.039 106.746 205.19C106.779 205.348 106.836 205.491 106.902 205.627C107.015 205.911 107.215 206.107 107.459 206.352C107.925 206.813 108.411 207.249 108.906 207.667C109.9 208.499 110.937 209.251 111.991 209.937C113.044 210.623 114.113 211.247 115.181 211.817C116.271 212.354 117.338 212.88 118.379 213.392C122.534 215.444 126.274 217.292 129.421 218.846L129.516 218.894L129.505 218.996C129.151 222.43 128.863 225.219 128.659 227.19C128.554 228.128 128.47 228.87 128.409 229.413C128.378 229.646 128.354 229.835 128.333 229.991C128.313 230.12 128.3 230.186 128.293 230.186Z" fill="#303030"/>
<path d="M126.252 217.445C126.309 217.454 126.256 218.108 126.12 219.158C125.985 220.207 125.766 221.654 125.468 223.243C125.171 224.832 124.842 226.259 124.568 227.283C124.293 228.307 124.078 228.928 124.023 228.914C123.909 228.885 124.467 226.333 125.052 223.164C125.641 219.997 126.129 217.424 126.252 217.445Z" fill="#303030"/>
<path d="M128.299 230.186C128.296 230.199 128.162 230.177 127.912 230.121C127.615 230.05 127.255 229.964 126.822 229.859C125.815 229.595 124.468 229.245 122.832 228.817C119.474 227.906 114.804 226.72 109.801 224.882C107.302 223.957 104.974 222.926 102.941 221.826C100.906 220.728 99.1649 219.574 97.7821 218.503C96.3953 217.438 95.3696 216.458 94.6904 215.758C94.3496 215.408 94.098 215.124 93.9333 214.926C93.767 214.731 93.685 214.623 93.6964 214.613C93.7239 214.588 94.094 214.979 94.8056 215.64C95.5165 216.301 96.5641 217.239 97.9615 218.265C99.3556 219.295 101.097 220.412 103.124 221.481C105.15 222.554 107.464 223.566 109.948 224.485C114.921 226.313 119.576 227.545 122.912 228.528C124.532 229.009 125.867 229.404 126.864 229.7C127.289 229.835 127.642 229.947 127.933 230.039C128.177 230.121 128.303 230.171 128.299 230.186Z" fill="#303030"/>
<path d="M128.573 220.134C128.581 220.527 128.269 220.852 127.877 220.859C127.484 220.867 127.16 220.555 127.152 220.162C127.145 219.77 127.457 219.445 127.85 219.438C128.241 219.43 128.566 219.742 128.573 220.134Z" fill="#303030"/>
<path d="M319.8 378.965H230.242V102.203H319.8V378.965Z" fill="#E1E1E1"/>
<path d="M289.004 104.322V366.585L331.848 378.965L331.989 104.322H289.004Z" fill="#4F4F4F"/>
<path d="M294.288 231.467C294.373 233.52 293.585 235.22 292.53 235.263C291.474 235.306 290.551 233.676 290.467 231.623C290.383 229.57 291.171 227.871 292.226 227.829C293.281 227.785 294.204 229.414 294.288 231.467Z" fill="white"/>
<path d="M292.312 229.937L300.749 231.068C301.199 231.128 301.541 231.504 301.56 231.958C301.584 232.554 301.054 233.02 300.467 232.92L292.378 231.546L292.312 229.937Z" fill="white"/>
<path d="M219.793 92.4144V101.473V104.324V378.967H233.853V104.324H316.382V378.967H331.854V104.324V101.473V92.4144H219.793Z" fill="#303030"/>
<path d="M233.842 104.322H226.812V378.965H233.842V104.322Z" fill="#303030"/>
<g opacity="0.5">
<path opacity="0.5" d="M233.85 104.324H226.82V378.967H233.85V104.324Z" fill="#303030"/>
</g>
<path d="M331.99 92.4125H324.961V378.965H331.99V92.4125Z" fill="#303030"/>
<g opacity="0.5">
<path opacity="0.5" d="M331.99 92.4144H324.961V378.967H331.99V92.4144Z" fill="#303030"/>
</g>
<path d="M285.454 80.8535H262.359V75.6949H285.454V80.8535Z" fill="#4F4F4F"/>
<path d="M276.567 147.412C276.817 152.674 280.646 156.947 285.418 158.113C287.927 158.726 290.814 158.438 292.801 160.123C296.209 163.015 294.215 169.01 296.515 172.889C297.929 175.274 300.736 176.444 302.326 178.709C304.968 182.472 303.194 188.16 299.589 190.963C295.984 193.766 291.181 194.301 286.661 194.185C276.722 193.927 266.542 190.767 259.357 183.717C255.982 180.406 245.039 167.818 250.008 149.668" fill="#303030"/>
<path d="M240.672 174.105C240.672 174.105 223.28 189.237 222.83 187.392C220.387 177.376 221.076 164.597 221.469 159.701C221.741 159.28 222.055 158.817 222.425 158.307C222.853 157.717 223.381 157.206 223.981 156.787C224.707 156.28 225.697 155.645 226.345 155.461C227.146 155.234 227.277 154.166 226.578 153.908C225.878 153.65 223.657 154.223 221.595 155.949C219.534 157.677 220.372 153.578 220.652 152.079C220.931 150.581 221.577 145.91 221.181 145.471C220.605 144.828 219.788 145.341 219.544 146.843C219.297 148.363 218.251 152.807 217.464 152.642C216.69 152.479 218.215 144.867 218.215 144.867C218.215 144.867 218.805 143.286 217.902 143.065C216.276 142.667 215.253 150.863 215.174 151.644C215.121 152.189 214.258 152.04 214.348 151.459C214.44 150.861 216.046 143.896 214.394 143.475C213.127 143.152 213.489 150.211 212.352 151.491C211.215 152.772 212.625 146.097 211.401 145.838C210.945 145.742 210.59 145.733 210.334 149.668C210.197 151.783 210.428 155.813 210.679 159.168C209.596 169.971 207.485 203.052 222.421 201.913C240.046 200.568 244.104 186.666 244.104 186.666L240.672 174.105Z" fill="#C78976"/>
<path d="M254.559 169.186C254.815 167.796 254.367 161.931 254.367 161.931C254.367 161.931 249.17 161.275 248.946 155.969C248.722 150.662 249.25 138.443 249.25 138.443L258.814 133.848L269.104 142.142L267.319 169.1L254.559 169.186Z" fill="#C78976"/>
<path d="M250.133 147.37C250.126 147.745 250.418 148.054 250.783 148.06C251.147 148.066 251.448 147.768 251.455 147.393C251.461 147.018 251.17 146.71 250.806 146.703C250.441 146.697 250.139 146.996 250.133 147.37Z" fill="#303030"/>
<path d="M249.503 146.62C249.587 146.71 250.082 146.292 250.794 146.266C251.505 146.227 252.034 146.599 252.11 146.502C252.148 146.46 252.061 146.296 251.831 146.128C251.604 145.96 251.219 145.804 250.775 145.823C250.332 145.843 249.961 146.033 249.75 146.222C249.533 146.41 249.462 146.581 249.503 146.62Z" fill="#303030"/>
<path d="M257.789 147.503C257.782 147.878 258.073 148.187 258.438 148.193C258.803 148.199 259.104 147.901 259.11 147.526C259.117 147.151 258.826 146.842 258.462 146.836C258.097 146.829 257.796 147.129 257.789 147.503Z" fill="#303030"/>
<path d="M257.394 146.757C257.478 146.846 257.973 146.428 258.685 146.402C259.396 146.364 259.925 146.736 260.001 146.639C260.038 146.596 259.952 146.433 259.721 146.264C259.495 146.097 259.109 145.94 258.666 145.96C258.222 145.98 257.852 146.17 257.641 146.358C257.425 146.547 257.353 146.717 257.394 146.757Z" fill="#303030"/>
<path d="M254.722 152.882C254.724 152.839 254.28 152.774 253.561 152.705C253.379 152.692 253.207 152.661 253.174 152.528C253.129 152.39 253.202 152.176 253.285 151.946C253.45 151.468 253.621 150.966 253.801 150.441C254.515 148.299 255.028 146.54 254.947 146.512C254.868 146.484 254.224 148.197 253.51 150.34C253.339 150.868 253.175 151.371 253.018 151.852C252.953 152.077 252.839 152.333 252.936 152.621C252.987 152.765 253.122 152.865 253.24 152.894C253.357 152.927 253.459 152.925 253.549 152.927C254.271 152.94 254.72 152.925 254.722 152.882Z" fill="#303030"/>
<path d="M257.055 153.614C257.783 153.136 255.045 154.795 253.594 154.769C253.594 154.769 254.468 156.106 255.94 155.497C257.471 154.866 257.055 153.614 257.055 153.614Z" fill="white"/>
<path d="M254.367 161.93C254.367 161.93 257.843 162.03 261.248 159.676C261.248 159.676 259.63 163.542 254.456 163.232L254.367 161.93Z" fill="#B66955"/>
<path d="M276.568 147.499C276.52 147.122 276.469 146.554 276.412 145.963V145.959C276.331 145.139 276.24 144.272 276.129 143.805C273.504 132.701 264.076 130.476 262.206 130.444C260.198 130.409 256.705 129.215 251.492 134.587C246.279 139.96 248.981 145.884 248.981 145.884L249.854 145.084L257.442 143.214C256.879 141.112 257.804 138.532 258.323 137.33L258.373 137.285C259.741 145.246 268.24 146.218 268.24 146.218L267.437 167.336C275.804 165.651 276.464 152.073 276.447 147.48L276.568 147.499Z" fill="#303030"/>
<path d="M279.855 242.234C279.867 242.132 279.878 242.024 279.885 241.962C279.88 242.01 279.871 242.096 279.855 242.234Z" fill="#C78976"/>
<path d="M279.828 242.484C279.839 242.386 279.847 242.307 279.855 242.238C279.841 242.366 279.828 242.484 279.828 242.484Z" fill="#C78976"/>
<path d="M289.738 370.947C289.738 370.947 270.15 304.881 269.776 302.767C269.438 300.859 278.512 254.507 279.827 242.483L252.283 242.745C252.283 242.745 252.28 242.819 252.275 242.945L238.969 243.313L245.628 375.326L260.208 375.703L259.988 332.311C267.213 353.501 276.347 377.438 276.347 377.438L289.738 370.947Z" fill="#C78976"/>
<path d="M279.891 241.934C279.893 241.914 279.893 241.912 279.891 241.934V241.934Z" fill="#C78976"/>
<path d="M279.883 241.963C279.884 241.952 279.886 241.943 279.886 241.936C279.885 241.943 279.884 241.951 279.883 241.963Z" fill="#C78976"/>
<path d="M251.238 299.795C251.279 299.801 251.2 300.311 251.154 301.236C251.104 302.162 251.087 303.504 251.225 305.155C251.366 306.803 251.661 308.759 252.2 310.879C252.706 313.009 253.63 315.234 254.535 317.611C256.349 322.353 257.969 326.654 259.122 329.775C259.672 331.29 260.125 332.539 260.466 333.479C260.776 334.356 260.933 334.847 260.905 334.857C260.879 334.868 260.668 334.397 260.313 333.538C259.94 332.61 259.443 331.376 258.843 329.882C257.618 326.788 255.955 322.505 254.14 317.762C253.69 316.575 253.25 315.416 252.825 314.296C252.412 313.164 252.086 312.048 251.822 310.974C251.299 308.825 251.031 306.844 250.927 305.177C250.825 303.507 250.889 302.151 250.99 301.223C251.037 300.759 251.097 300.401 251.147 300.159C251.192 299.918 251.224 299.793 251.238 299.795Z" fill="#B66955"/>
<path d="M260.071 348.062C260.093 347.661 260.325 333.347 260.325 333.347C260.325 333.347 255.526 320.077 255.405 320.482C255.282 320.885 260.071 348.062 260.071 348.062Z" fill="#B66955"/>
<path d="M276.853 377.194L289.739 370.948L291.229 373.717L286.675 376.291C283.567 377.989 272.999 383.519 270.504 383.969C267.722 384.473 276.853 377.194 276.853 377.194Z" fill="url(#paint7_linear_1236_4077)"/>
<path d="M269.922 383.593C269.863 383.494 274.569 381.166 280.429 378.393C286.294 375.618 291.093 373.451 291.152 373.548C291.211 373.645 286.507 375.973 280.644 378.747C274.782 381.521 269.981 383.69 269.922 383.593Z" fill="#303030"/>
<path d="M287.875 375.203C287.814 375.196 287.789 374.956 287.815 374.57C287.847 374.186 287.928 373.638 288.229 373.08C288.532 372.517 289.031 372.118 289.454 371.954C289.881 371.782 290.178 371.821 290.182 371.868C290.193 371.929 289.937 371.995 289.612 372.201C289.287 372.402 288.901 372.767 288.635 373.256C288.369 373.749 288.241 374.251 288.13 374.616C288.026 374.983 287.937 375.212 287.875 375.203Z" fill="#303030"/>
<path d="M276.157 377.786C276.137 377.905 276.558 378.059 277.067 378.226C277.579 378.39 278.012 378.514 278.082 378.412C278.151 378.314 277.792 378.006 277.23 377.825C276.671 377.643 276.175 377.671 276.157 377.786Z" fill="#303030"/>
<path d="M275.275 378.483C275.242 378.597 275.619 378.818 276.115 378.975C276.613 379.134 277.061 379.174 277.116 379.067C277.171 378.96 276.795 378.738 276.275 378.574C275.757 378.41 275.308 378.369 275.275 378.483Z" fill="#303030"/>
<path d="M274.549 379.118C274.499 379.228 274.771 379.433 275.133 379.619C275.497 379.805 275.833 379.911 275.914 379.816C275.993 379.723 275.764 379.45 275.372 379.25C274.979 379.048 274.599 379.01 274.549 379.118Z" fill="#303030"/>
<path d="M276.211 377.894C276.267 377.887 276.286 377.37 276.075 376.543C275.963 376.133 275.772 375.641 275.404 375.162C275.22 374.923 274.991 374.689 274.707 374.488C274.567 374.392 274.416 374.29 274.213 374.22C274.011 374.15 273.751 374.123 273.509 374.231C272.983 374.498 273.079 375.061 273.267 375.334C273.458 375.629 273.662 375.838 273.867 376.058C274.279 376.483 274.698 376.823 275.065 377.087C275.802 377.611 276.315 377.857 276.351 377.813C276.394 377.763 275.952 377.431 275.29 376.862C274.961 376.576 274.581 376.226 274.208 375.809C274.029 375.603 273.82 375.365 273.684 375.14C273.541 374.929 273.581 374.672 273.728 374.612C273.896 374.529 274.172 374.64 274.419 374.817C274.664 374.984 274.871 375.182 275.044 375.389C275.392 375.804 275.602 376.246 275.75 376.626C276.033 377.395 276.137 377.906 276.211 377.894Z" fill="#303030"/>
<path d="M276.216 377.645C276.248 377.601 275.801 377.253 274.943 376.86C274.512 376.669 273.973 376.473 273.336 376.36C273.019 376.303 272.677 376.269 272.316 376.275C272.139 376.28 271.949 376.287 271.742 376.342C271.64 376.372 271.528 376.411 271.419 376.5C271.308 376.582 271.231 376.748 271.248 376.881C271.352 377.374 271.719 377.555 272.025 377.739C272.348 377.906 272.69 377.999 273.014 378.054C273.664 378.153 274.231 378.138 274.714 378.109C275.694 378.047 276.226 377.711 276.182 377.664C276.151 377.612 275.624 377.824 274.699 377.807C274.243 377.799 273.677 377.779 273.102 377.668C272.815 377.611 272.526 377.521 272.264 377.38C272.014 377.255 271.742 377.011 271.728 376.856C271.655 376.806 272.023 376.681 272.333 376.693C272.651 376.681 272.964 376.705 273.259 376.747C273.852 376.83 274.374 376.985 274.805 377.136C275.665 377.443 276.178 377.7 276.216 377.645Z" fill="#303030"/>
<path d="M277.107 377.06C277.186 377.181 280.175 376.034 283.657 374.325C287.141 372.619 289.824 371.061 289.735 370.948C289.64 370.825 286.809 372.191 283.337 373.891C279.869 375.593 277.026 376.934 277.107 377.06Z" fill="#303030"/>
<path d="M247.274 375.16L260.199 375.253L259.985 379.003L259.141 379.008C255.388 378.998 240.06 378.729 237.599 377.945C234.855 377.072 247.274 375.16 247.274 375.16Z" fill="url(#paint8_linear_1236_4077)"/>
<path d="M237.32 377.353C237.328 377.242 242.405 377.438 248.658 377.789C254.913 378.142 259.975 378.517 259.967 378.627C259.959 378.738 254.886 378.543 248.63 378.191C242.377 377.839 237.312 377.464 237.32 377.353Z" fill="#303030"/>
<path d="M255.894 378.356C255.844 378.32 255.967 378.105 256.225 377.791C256.485 377.48 256.89 377.054 257.492 376.719C258.098 376.383 258.778 376.278 259.249 376.336C259.726 376.39 259.965 376.561 259.938 376.603C259.911 376.66 259.647 376.597 259.238 376.619C258.83 376.638 258.271 376.767 257.741 377.059C257.21 377.353 256.791 377.72 256.474 377.977C256.159 378.238 255.943 378.393 255.894 378.356Z" fill="#303030"/>
<path d="M246.306 375.337C246.217 375.428 246.492 375.756 246.838 376.136C247.186 376.514 247.491 376.822 247.613 376.767C247.734 376.716 247.606 376.288 247.224 375.872C246.844 375.456 246.391 375.249 246.306 375.337Z" fill="#303030"/>
<path d="M245.111 375.516C245.013 375.598 245.209 375.961 245.549 376.328C245.889 376.694 246.257 376.937 246.371 376.872C246.483 376.807 246.288 376.444 245.932 376.061C245.577 375.679 245.209 375.435 245.111 375.516Z" fill="#303030"/>
<path d="M244.091 375.715C243.979 375.784 244.094 376.086 244.298 376.413C244.504 376.741 244.735 376.987 244.862 376.944C244.988 376.903 244.954 376.565 244.732 376.211C244.51 375.857 244.2 375.647 244.091 375.715Z" fill="#303030"/>
<path d="M246.296 375.456C246.348 375.476 246.679 375.046 246.995 374.246C247.146 373.846 247.279 373.339 247.245 372.76C247.228 372.471 247.171 372.166 247.043 371.864C246.978 371.715 246.909 371.559 246.773 371.404C246.639 371.251 246.427 371.108 246.148 371.086C245.526 371.067 245.269 371.589 245.267 371.908C245.256 372.249 245.308 372.521 245.355 372.803C245.458 373.356 245.618 373.84 245.78 374.235C246.109 375.025 246.409 375.473 246.466 375.452C246.535 375.43 246.349 374.941 246.114 374.149C245.999 373.753 245.878 373.28 245.805 372.75C245.773 372.493 245.734 372.192 245.75 371.938C245.754 371.692 245.944 371.493 246.11 371.511C246.308 371.52 246.482 371.743 246.591 372.008C246.705 372.263 246.765 372.529 246.792 372.784C246.845 373.299 246.761 373.773 246.659 374.165C246.442 374.949 246.223 375.432 246.296 375.456Z" fill="#303030"/>
<path d="M246.447 375.245C246.501 375.223 246.322 374.718 245.806 373.984C245.546 373.622 245.191 373.203 244.703 372.81C244.458 372.614 244.178 372.424 243.86 372.262C243.7 372.184 243.53 372.101 243.315 372.051C243.208 372.028 243.085 372.009 242.936 372.034C242.788 372.051 242.62 372.158 242.556 372.277C242.347 372.745 242.559 373.069 242.715 373.368C242.897 373.661 243.141 373.901 243.391 374.097C243.902 374.485 244.406 374.738 244.849 374.938C245.745 375.343 246.415 375.307 246.405 375.246C246.409 375.188 245.818 375.121 245.018 374.675C244.624 374.455 244.139 374.174 243.702 373.811C243.486 373.628 243.287 373.418 243.143 373.175C243.001 372.953 242.909 372.62 242.991 372.481C242.957 372.404 243.356 372.47 243.621 372.625C243.907 372.763 244.166 372.928 244.401 373.103C244.869 373.451 245.232 373.826 245.518 374.154C246.086 374.817 246.38 375.275 246.447 375.245Z" fill="#303030"/>
<path d="M247.578 375.163C247.568 375.28 250.347 375.539 253.784 375.574C257.222 375.612 260.002 375.467 260 375.352C259.996 375.23 257.215 375.185 253.788 375.147C250.364 375.112 247.587 375.044 247.578 375.163Z" fill="#303030"/>
<path d="M286.809 196.897C286.809 196.897 287.344 194.92 285.841 182.777C285.186 177.491 281.591 174.217 277.741 172.203L277.744 172.133L277.408 172.035C272.509 169.572 267.32 169.1 267.32 169.1L253.699 168.879C253.699 168.879 243.727 167.634 237.368 174.551C231.01 181.467 226.684 185.551 226.684 185.551L236.833 197.753L239.55 195.06C239.55 195.06 239.267 200.676 241.122 203.944C242.976 207.212 245.507 211.669 245.507 211.669L242.601 225.296C240.798 230.485 234.862 249.458 237.191 268.251C240.075 291.525 240.536 298.33 240.536 298.33L273.432 302.832C273.432 302.832 286.58 253.551 282.076 233.974C278.982 220.524 276.619 221.152 275.861 218.237L276.716 197.293L286.809 196.897Z" fill="url(#paint9_linear_1236_4077)"/>
<path d="M242.144 190.538C242.243 190.597 241.713 191.678 240.959 192.95C240.203 194.223 239.511 195.206 239.411 195.146C239.311 195.087 239.841 194.007 240.595 192.734C241.349 191.462 242.043 190.478 242.144 190.538Z" fill="#303030"/>
<path d="M271.63 215.989C271.634 216.018 271.26 216.091 270.581 216.199C269.902 216.31 268.915 216.436 267.691 216.563C265.245 216.817 261.846 217.021 258.09 216.957C254.335 216.887 250.944 216.563 248.509 216.221C247.291 216.051 246.309 215.889 245.635 215.754C244.96 215.622 244.589 215.536 244.594 215.508C244.598 215.478 244.978 215.51 245.659 215.592C246.424 215.68 247.392 215.791 248.546 215.924C250.983 216.19 254.359 216.465 258.098 216.534C261.837 216.598 265.221 216.443 267.665 216.264C268.823 216.173 269.793 216.096 270.562 216.035C271.245 215.978 271.626 215.96 271.63 215.989Z" fill="#303030"/>
<path d="M282.714 252.873C282.729 252.877 282.684 253.1 282.587 253.522C282.476 253.981 282.327 254.595 282.142 255.365C282.04 255.768 281.929 256.212 281.809 256.695C281.672 257.178 281.489 257.692 281.311 258.248C280.934 259.355 280.57 260.643 279.976 261.993C279.697 262.676 279.404 263.391 279.1 264.135C278.79 264.877 278.392 265.615 278.02 266.398C277.301 267.98 276.343 269.567 275.375 271.26C273.322 274.574 270.795 278.057 267.765 281.388C264.696 284.687 261.433 287.494 258.303 289.815C256.696 290.92 255.193 292.006 253.678 292.853C252.928 293.288 252.226 293.747 251.512 294.118C250.797 294.482 250.108 294.833 249.451 295.168C248.155 295.872 246.902 296.34 245.831 296.808C245.291 297.032 244.795 297.256 244.325 297.433C243.854 297.593 243.421 297.74 243.027 297.874C242.276 298.122 241.677 298.321 241.228 298.47C240.816 298.602 240.598 298.664 240.594 298.65C240.589 298.636 240.799 298.547 241.202 298.389C241.643 298.222 242.231 297.999 242.971 297.718C243.36 297.576 243.787 297.416 244.252 297.244C244.715 297.058 245.205 296.824 245.739 296.591C246.798 296.104 248.036 295.619 249.316 294.9C249.967 294.559 250.646 294.202 251.354 293.831C252.061 293.455 252.755 292.993 253.496 292.553C254.996 291.698 256.483 290.607 258.072 289.5C261.172 287.175 264.404 284.379 267.454 281.103C270.465 277.791 272.984 274.339 275.044 271.057C276.014 269.38 276.979 267.808 277.706 266.242C278.083 265.468 278.486 264.736 278.803 264.001C279.114 263.265 279.413 262.558 279.698 261.882C280.308 260.544 280.69 259.271 281.087 258.174C281.276 257.623 281.469 257.115 281.616 256.638C281.75 256.16 281.871 255.721 281.982 255.322C282.2 254.561 282.374 253.955 282.504 253.501C282.628 253.087 282.7 252.87 282.714 252.873Z" fill="#303030"/>
<path d="M286.294 189.795C286.3 189.808 286.123 189.91 285.779 190.092C285.435 190.273 284.925 190.535 284.259 190.855C282.926 191.47 280.963 192.424 278.312 192.822C276.993 193.001 275.497 192.994 273.968 192.582C273.205 192.376 272.437 192.061 271.723 191.603C271.003 191.151 270.37 190.537 269.798 189.859C268.666 188.482 267.853 186.811 266.886 185.196C265.933 183.602 264.702 181.96 262.828 181.333C260.964 180.691 258.978 181.178 257.186 181.686C255.374 182.205 253.597 182.809 251.802 182.848C250.005 182.916 248.327 182.304 247.034 181.401C245.73 180.496 244.789 179.287 244.263 178.049C243.726 176.807 243.605 175.565 243.661 174.508C243.727 173.444 243.982 172.553 244.268 171.866C244.862 170.489 245.494 169.923 245.494 169.923C245.538 169.953 244.955 170.561 244.42 171.927C244.164 172.609 243.939 173.485 243.897 174.519C243.865 175.547 244.004 176.746 244.536 177.929C245.058 179.109 245.974 180.257 247.232 181.112C248.481 181.965 250.085 182.534 251.791 182.459C253.505 182.413 255.247 181.818 257.071 181.287C257.986 181.026 258.934 180.774 259.93 180.66C260.921 180.546 261.975 180.591 262.965 180.933C263.955 181.272 264.822 181.882 265.51 182.612C266.203 183.341 266.749 184.164 267.241 184.983C268.217 186.624 269.014 188.277 270.1 189.611C271.166 190.955 272.583 191.858 274.062 192.244C275.529 192.656 276.984 192.682 278.274 192.526C280.869 192.176 282.842 191.274 284.19 190.705C284.833 190.419 285.349 190.189 285.742 190.015C286.098 189.858 286.288 189.782 286.294 189.795Z" fill="white"/>
<path d="M266.967 218.556C266.911 218.526 267.372 218.141 267.544 217.186C267.727 216.26 267.449 214.753 266.279 213.488C265.715 212.85 264.878 212.38 263.935 212.026C262.986 211.675 261.909 211.482 260.766 211.333C259.625 211.181 258.402 211.09 257.151 210.818C255.912 210.544 254.603 210.121 253.509 209.253C252.965 208.822 252.507 208.289 252.165 207.709C251.824 207.129 251.577 206.518 251.363 205.919C250.939 204.721 250.616 203.55 250.04 202.577C248.894 200.61 246.789 199.688 245.108 199.658C243.38 199.62 242.068 200.325 241.306 200.89C240.533 201.475 240.221 201.933 240.189 201.905C240.177 201.896 240.249 201.781 240.405 201.572C240.568 201.369 240.821 201.077 241.205 200.76C241.957 200.14 243.291 199.36 245.112 199.358C246.886 199.353 249.127 200.288 250.375 202.379C250.993 203.406 251.329 204.606 251.752 205.779C252.165 206.953 252.737 208.13 253.771 208.921C254.785 209.728 256.033 210.142 257.239 210.413C258.454 210.684 259.665 210.782 260.818 210.947C263.106 211.235 265.279 211.889 266.501 213.287C267.708 214.652 267.947 216.249 267.705 217.219C267.603 217.715 267.385 218.051 267.24 218.266C267.07 218.467 266.978 218.566 266.967 218.556Z" fill="white"/>
<path d="M279.72 276.215C279.719 276.28 278.549 275.963 276.476 276.354C275.442 276.535 274.208 276.898 272.772 277.324C271.339 277.738 269.66 278.223 267.746 278.227C265.846 278.266 263.738 277.927 261.675 277.038C259.625 276.15 257.595 274.687 256.176 272.57C254.756 270.456 254.098 267.709 254.414 264.966C254.573 263.594 254.979 262.221 255.667 260.965C256.344 259.706 257.354 258.597 258.534 257.743C259.684 256.89 260.938 256.126 261.546 254.931C261.842 254.343 261.928 253.672 261.818 253.027C261.714 252.379 261.453 251.756 261.169 251.149C260.591 249.952 259.921 248.705 259.811 247.346C259.667 246.009 259.9 244.68 260.377 243.501C261.323 241.1 263.316 239.425 265.356 238.52C267.414 237.571 269.563 237.399 271.442 237.429C273.33 237.446 275.034 237.524 276.5 237.282C277.963 237.05 279.161 236.52 280.004 235.914C280.854 235.308 281.348 234.639 281.603 234.155C281.863 233.67 281.924 233.378 281.952 233.388C281.952 233.388 281.919 233.685 281.678 234.193C281.445 234.699 280.959 235.405 280.101 236.047C279.25 236.69 278.034 237.255 276.539 237.515C275.044 237.785 273.319 237.725 271.442 237.727C269.572 237.718 267.493 237.905 265.501 238.839C263.527 239.732 261.631 241.352 260.738 243.645C260.288 244.774 260.072 246.041 260.212 247.303C260.32 248.582 260.946 249.742 261.544 250.972C261.834 251.591 262.114 252.244 262.23 252.961C262.356 253.674 262.258 254.453 261.921 255.118C261.225 256.468 259.912 257.237 258.785 258.083C256.451 259.714 255.117 262.371 254.825 265.013C254.514 267.66 255.144 270.317 256.501 272.353C257.862 274.404 259.821 275.837 261.815 276.717C263.82 277.597 265.881 277.949 267.742 277.928C269.616 277.943 271.267 277.489 272.707 277.097C274.147 276.693 275.399 276.349 276.448 276.191C277.496 276.022 278.327 276.022 278.882 276.078C279.437 276.13 279.72 276.215 279.72 276.215Z" fill="white"/>
<path d="M268.24 302.105C268.203 302.101 268.278 301.54 268.302 300.525C268.296 299.527 268.321 297.993 267.564 296.367C267.191 295.567 266.529 294.793 265.589 294.366C264.656 293.914 263.505 293.875 262.31 293.875C261.121 293.863 259.789 293.947 258.502 293.4C257.866 293.127 257.303 292.668 256.858 292.128C256.407 291.585 256.06 290.971 255.737 290.349C255.111 289.091 254.528 287.89 253.658 286.931C252.817 285.954 251.807 285.197 250.772 284.63C248.676 283.496 246.448 283.275 244.677 283.542C242.889 283.789 241.543 284.442 240.678 284.955C239.814 285.482 239.393 285.865 239.368 285.834C239.357 285.823 239.456 285.722 239.654 285.538C239.855 285.357 240.164 285.104 240.591 284.816C241.441 284.252 242.798 283.54 244.633 283.246C246.446 282.932 248.77 283.127 250.953 284.286C252.034 284.865 253.089 285.645 253.97 286.658C254.412 287.161 254.81 287.718 255.158 288.317C255.502 288.915 255.795 289.54 256.113 290.154C256.726 291.377 257.504 292.523 258.668 293.021C259.825 293.524 261.115 293.467 262.312 293.485C263.512 293.497 264.724 293.543 265.739 294.048C266.756 294.527 267.461 295.39 267.834 296.238C268.592 297.97 268.507 299.522 268.466 300.532C268.43 301.044 268.377 301.438 268.332 301.704C268.286 301.97 268.254 302.108 268.24 302.105Z" fill="white"/>
<path d="M248.77 234.97C248.799 234.986 248.538 235.471 248.104 236.361C247.694 237.247 247.017 238.564 246.893 240.305C246.839 241.169 247.011 242.121 247.483 243.025C247.941 243.939 248.648 244.798 249.332 245.761C250.757 247.66 251.623 250.374 251.165 253.13C250.747 255.908 248.849 258.157 246.701 259.208C245.624 259.744 244.482 260.011 243.411 260.01C242.336 260.007 241.351 259.75 240.532 259.37C238.868 258.614 237.882 257.433 237.387 256.572C237.137 256.134 236.993 255.77 236.917 255.519C236.842 255.265 236.81 255.132 236.823 255.127C236.866 255.112 237.004 255.655 237.527 256.486C238.051 257.299 239.04 258.406 240.652 259.096C241.447 259.445 242.391 259.67 243.408 259.658C244.424 259.645 245.505 259.38 246.525 258.862C248.563 257.835 250.35 255.703 250.748 253.061C251.182 250.429 250.377 247.839 249.014 245.985C248.35 245.032 247.637 244.148 247.169 243.182C246.685 242.225 246.517 241.19 246.595 240.286C246.766 238.462 247.502 237.156 247.957 236.285C248.197 235.848 248.397 235.518 248.537 235.296C248.677 235.075 248.757 234.963 248.77 234.97Z" fill="white"/>
<path d="M273.221 207.727C273.192 207.727 273.158 207.382 273.122 206.759C273.086 206.047 273.042 205.164 272.989 204.119C272.876 201.797 272.73 198.764 272.567 195.411C272.406 192.009 272.296 188.924 272.268 186.691C272.254 185.575 272.255 184.671 272.269 184.046C272.285 183.422 272.306 183.076 272.335 183.075C272.364 183.075 272.397 183.42 272.434 184.043C272.47 184.755 272.514 185.637 272.567 186.682C272.68 189.005 272.827 192.038 272.99 195.392C273.15 198.794 273.26 201.876 273.288 204.11C273.303 205.227 273.303 206.131 273.287 206.756C273.272 207.381 273.25 207.727 273.221 207.727Z" fill="#303030"/>
<path d="M272.937 197.437C272.937 197.437 274.305 213.822 272.738 214.918C264.061 220.983 252.526 223.423 248.404 224.139C247.831 223.934 247.163 223.676 246.391 223.335C245.727 223.043 245.119 222.631 244.586 222.131C243.941 221.523 243.114 220.681 242.799 220.079C242.41 219.334 241.343 219.446 241.239 220.198C241.137 220.951 242.161 223.03 244.274 224.69C246.387 226.351 242.227 226.44 240.712 226.499C239.197 226.56 234.521 226.971 234.177 227.462C233.674 228.181 234.345 228.876 235.857 228.781C237.386 228.683 241.924 228.723 241.93 229.541C241.936 230.35 234.217 230.547 234.217 230.547C234.217 230.547 232.556 230.317 232.531 231.263C232.487 232.97 240.667 232.142 241.444 232.043C241.984 231.975 242.02 232.865 241.437 232.907C240.836 232.95 233.731 232.923 233.669 234.659C233.622 235.992 240.405 234.041 241.89 234.884C243.374 235.726 236.59 235.827 236.596 237.102C236.599 237.577 236.665 237.932 240.544 237.3C242.426 236.993 245.764 236.035 248.755 235.112L248.763 235.153C248.763 235.153 289.099 231.693 288.091 213.495C287.408 201.182 287.629 203.455 286.877 196.983" fill="#C78976"/>
<defs>
<linearGradient id="paint0_linear_1236_4077" x1="82.8203" y1="373.615" x2="107.797" y2="373.615" gradientUnits="userSpaceOnUse">
<stop stop-color="#F34242"/>
<stop offset="1" stop-color="#F1408B"/>
</linearGradient>
<linearGradient id="paint1_linear_1236_4077" x1="135.418" y1="372.566" x2="160.955" y2="372.566" gradientUnits="userSpaceOnUse">
<stop stop-color="#F34242"/>
<stop offset="1" stop-color="#F1408B"/>
</linearGradient>
<linearGradient id="paint2_linear_1236_4077" x1="114.344" y1="130.75" x2="136.644" y2="130.75" gradientUnits="userSpaceOnUse">
<stop stop-color="#F34242"/>
<stop offset="1" stop-color="#F1408B"/>
</linearGradient>
<linearGradient id="paint3_linear_1236_4077" x1="114.695" y1="133.804" x2="143.485" y2="133.804" gradientUnits="userSpaceOnUse">
<stop stop-color="#F34242"/>
<stop offset="1" stop-color="#F1408B"/>
</linearGradient>
<linearGradient id="paint4_linear_1236_4077" x1="135.258" y1="175.875" x2="137.997" y2="175.875" gradientUnits="userSpaceOnUse">
<stop stop-color="#F34242"/>
<stop offset="1" stop-color="#F1408B"/>
</linearGradient>
<linearGradient id="paint5_linear_1236_4077" x1="136.57" y1="173.699" x2="137.939" y2="173.699" gradientUnits="userSpaceOnUse">
<stop stop-color="#F34242"/>
<stop offset="1" stop-color="#F1408B"/>
</linearGradient>
<linearGradient id="paint6_linear_1236_4077" x1="109.055" y1="209.636" x2="178.151" y2="209.636" gradientUnits="userSpaceOnUse">
<stop stop-color="#F34242"/>
<stop offset="1" stop-color="#F1408B"/>
</linearGradient>
<linearGradient id="paint7_linear_1236_4077" x1="269.977" y1="377.518" x2="291.229" y2="377.518" gradientUnits="userSpaceOnUse">
<stop stop-color="#F34242"/>
<stop offset="1" stop-color="#F1408B"/>
</linearGradient>
<linearGradient id="paint8_linear_1236_4077" x1="237.203" y1="377.098" x2="260.199" y2="377.098" gradientUnits="userSpaceOnUse">
<stop stop-color="#F34242"/>
<stop offset="1" stop-color="#F1408B"/>
</linearGradient>
<linearGradient id="paint9_linear_1236_4077" x1="226.684" y1="236.294" x2="286.902" y2="236.294" gradientUnits="userSpaceOnUse">
<stop stop-color="#F34242"/>
<stop offset="1" stop-color="#F1408B"/>
</linearGradient>
</defs>
</svg>
