<svg width="601" height="256" viewBox="0 0 601 256" fill="none" xmlns="http://www.w3.org/2000/svg">
<path d="M139.264 39.312H142.264V36.312H139.264V39.312ZM139.264 68.24V71.24H142.264V68.24H139.264ZM91.648 68.24V65.24H88.648V68.24H91.648ZM91.648 218V221H94.648V218H91.648ZM55.808 218H52.808V221H55.808V218ZM55.808 68.24H58.808V65.24H55.808V68.24ZM8.192 68.24H5.192V71.24H8.192V68.24ZM8.192 39.312V36.312H5.192V39.312H8.192ZM136.264 39.312V68.24H142.264V39.312H136.264ZM139.264 65.24H91.648V71.24H139.264V65.24ZM88.648 68.24V218H94.648V68.24H88.648ZM91.648 215H55.808V221H91.648V215ZM58.808 218V68.24H52.808V218H58.808ZM55.808 65.24H8.192V71.24H55.808V65.24ZM11.192 68.24V39.312H5.192V68.24H11.192ZM8.192 42.312H139.264V36.312H8.192V42.312ZM206.374 39.312H209.374V36.312H206.374V39.312ZM206.374 218V221H209.374V218H206.374ZM170.534 218H167.534V221H170.534V218ZM170.534 39.312V36.312H167.534V39.312H170.534ZM203.374 39.312V218H209.374V39.312H203.374ZM206.374 215H170.534V221H206.374V215ZM173.534 218V39.312H167.534V218H173.534ZM170.534 42.312H206.374V36.312H170.534V42.312ZM441.72 39.312H444.72V36.312H441.72V39.312ZM441.72 218V221H444.72V218H441.72ZM405.88 218H402.88V221H405.88V218ZM405.88 101.776H408.88L403.106 100.633L405.88 101.776ZM358.008 218V221H360.017L360.782 219.143L358.008 218ZM330.872 218L328.1 219.148L328.867 221H330.872V218ZM282.744 101.776L285.516 100.628L279.744 101.776H282.744ZM282.744 218V221H285.744V218H282.744ZM246.904 218H243.904V221H246.904V218ZM246.904 39.312V36.312H243.904V39.312H246.904ZM287.608 39.312L290.366 38.1322L289.588 36.312H287.608V39.312ZM344.44 172.176L341.682 173.356L344.44 179.804L347.198 173.356L344.44 172.176ZM401.272 39.312V36.312H399.292L398.514 38.1322L401.272 39.312ZM438.72 39.312V218H444.72V39.312H438.72ZM441.72 215H405.88V221H441.72V215ZM408.88 218V101.776H402.88V218H408.88ZM403.106 100.633L355.234 216.857L360.782 219.143L408.654 102.919L403.106 100.633ZM358.008 215H330.872V221H358.008V215ZM333.644 216.852L285.516 100.628L279.972 102.924L328.1 219.148L333.644 216.852ZM279.744 101.776V218H285.744V101.776H279.744ZM282.744 215H246.904V221H282.744V215ZM249.904 218V39.312H243.904V218H249.904ZM246.904 42.312H287.608V36.312H246.904V42.312ZM284.85 40.4918L341.682 173.356L347.198 170.996L290.366 38.1322L284.85 40.4918ZM347.198 173.356L404.03 40.4918L398.514 38.1322L341.682 170.996L347.198 173.356ZM401.272 42.312H441.72V36.312H401.272V42.312ZM518.114 68.24V65.24H515.114V68.24H518.114ZM518.114 113.04H515.114V116.04H518.114V113.04ZM578.274 113.04H581.274V110.04H578.274V113.04ZM578.274 141.456V144.456H581.274V141.456H578.274ZM518.114 141.456V138.456H515.114V141.456H518.114ZM518.114 188.816H515.114V191.816H518.114V188.816ZM585.954 188.816H588.954V185.816H585.954V188.816ZM585.954 218V221H588.954V218H585.954ZM482.274 218H479.274V221H482.274V218ZM482.274 39.056V36.056H479.274V39.056H482.274ZM585.954 39.056H588.954V36.056H585.954V39.056ZM585.954 68.24V71.24H588.954V68.24H585.954ZM515.114 68.24V113.04H521.114V68.24H515.114ZM518.114 116.04H578.274V110.04H518.114V116.04ZM575.274 113.04V141.456H581.274V113.04H575.274ZM578.274 138.456H518.114V144.456H578.274V138.456ZM515.114 141.456V188.816H521.114V141.456H515.114ZM518.114 191.816H585.954V185.816H518.114V191.816ZM582.954 188.816V218H588.954V188.816H582.954ZM585.954 215H482.274V221H585.954V215ZM485.274 218V39.056H479.274V218H485.274ZM482.274 42.056H585.954V36.056H482.274V42.056ZM582.954 39.056V68.24H588.954V39.056H582.954ZM585.954 65.24H518.114V71.24H585.954V65.24Z" fill="white"/>
<path d="M47.408 24.168C45.856 24.168 44.424 23.808 43.112 23.088C41.816 22.352 40.784 21.336 40.016 20.04C39.264 18.728 38.888 17.256 38.888 15.624C38.888 13.992 39.264 12.528 40.016 11.232C40.784 9.936 41.816 8.928 43.112 8.208C44.424 7.472 45.856 7.104 47.408 7.104C48.976 7.104 50.408 7.472 51.704 8.208C53.016 8.928 54.048 9.936 54.8 11.232C55.552 12.528 55.928 13.992 55.928 15.624C55.928 17.256 55.552 18.728 54.8 20.04C54.048 21.336 53.016 22.352 51.704 23.088C50.408 23.808 48.976 24.168 47.408 24.168ZM47.408 21.792C48.512 21.792 49.496 21.544 50.36 21.048C51.224 20.536 51.896 19.816 52.376 18.888C52.872 17.944 53.12 16.856 53.12 15.624C53.12 14.392 52.872 13.312 52.376 12.384C51.896 11.456 51.224 10.744 50.36 10.248C49.496 9.752 48.512 9.504 47.408 9.504C46.304 9.504 45.32 9.752 44.456 10.248C43.592 10.744 42.912 11.456 42.416 12.384C41.936 13.312 41.696 14.392 41.696 15.624C41.696 16.856 41.936 17.944 42.416 18.888C42.912 19.816 43.592 20.536 44.456 21.048C45.32 21.544 46.304 21.792 47.408 21.792ZM68.9163 7.32V9.552H61.8363V14.472H67.3563V16.704H61.8363V24H59.1003V7.32H68.9163ZM91.0062 7.32L85.4862 17.952V24H82.7502V17.952L77.2062 7.32H80.2542L84.1182 15.504L87.9822 7.32H91.0062ZM101.265 24.168C99.7135 24.168 98.2815 23.808 96.9695 23.088C95.6735 22.352 94.6415 21.336 93.8735 20.04C93.1215 18.728 92.7455 17.256 92.7455 15.624C92.7455 13.992 93.1215 12.528 93.8735 11.232C94.6415 9.936 95.6735 8.928 96.9695 8.208C98.2815 7.472 99.7135 7.104 101.265 7.104C102.833 7.104 104.265 7.472 105.561 8.208C106.873 8.928 107.905 9.936 108.657 11.232C109.409 12.528 109.785 13.992 109.785 15.624C109.785 17.256 109.409 18.728 108.657 20.04C107.905 21.336 106.873 22.352 105.561 23.088C104.265 23.808 102.833 24.168 101.265 24.168ZM101.265 21.792C102.369 21.792 103.353 21.544 104.217 21.048C105.081 20.536 105.753 19.816 106.233 18.888C106.729 17.944 106.977 16.856 106.977 15.624C106.977 14.392 106.729 13.312 106.233 12.384C105.753 11.456 105.081 10.744 104.217 10.248C103.353 9.752 102.369 9.504 101.265 9.504C100.161 9.504 99.1775 9.752 98.3135 10.248C97.4495 10.744 96.7695 11.456 96.2735 12.384C95.7935 13.312 95.5535 14.392 95.5535 15.624C95.5535 16.856 95.7935 17.944 96.2735 18.888C96.7695 19.816 97.4495 20.536 98.3135 21.048C99.1775 21.544 100.161 21.792 101.265 21.792ZM115.67 7.32V17.952C115.67 19.216 115.998 20.168 116.654 20.808C117.326 21.448 118.254 21.768 119.438 21.768C120.638 21.768 121.566 21.448 122.222 20.808C122.894 20.168 123.23 19.216 123.23 17.952V7.32H125.966V17.904C125.966 19.264 125.67 20.416 125.078 21.36C124.486 22.304 123.694 23.008 122.702 23.472C121.71 23.936 120.614 24.168 119.414 24.168C118.214 24.168 117.118 23.936 116.126 23.472C115.15 23.008 114.374 22.304 113.798 21.36C113.222 20.416 112.934 19.264 112.934 17.904V7.32H115.67ZM138.672 24L134.832 17.328H132.744V24H130.008V7.32H135.768C137.048 7.32 138.128 7.544 139.008 7.992C139.904 8.44 140.568 9.04 141 9.792C141.448 10.544 141.672 11.384 141.672 12.312C141.672 13.4 141.352 14.392 140.712 15.288C140.088 16.168 139.12 16.768 137.808 17.088L141.936 24H138.672ZM132.744 15.144H135.768C136.792 15.144 137.56 14.888 138.072 14.376C138.6 13.864 138.864 13.176 138.864 12.312C138.864 11.448 138.608 10.776 138.096 10.296C137.584 9.8 136.808 9.552 135.768 9.552H132.744V15.144Z" fill="white"/>
</svg>
