<svg width="578" height="179" viewBox="0 0 578 179" fill="none" xmlns="http://www.w3.org/2000/svg">
<path d="M131.264 0.311996H134.264V-2.688H131.264V0.311996ZM131.264 29.24V32.24H134.264V29.24H131.264ZM83.648 29.24V26.24H80.648V29.24H83.648ZM83.648 179V182H86.648V179H83.648ZM47.808 179H44.808V182H47.808V179ZM47.808 29.24H50.808V26.24H47.808V29.24ZM0.192 29.24H-2.808V32.24H0.192V29.24ZM0.192 0.311996V-2.688H-2.808V0.311996H0.192ZM128.264 0.311996V29.24H134.264V0.311996H128.264ZM131.264 26.24H83.648V32.24H131.264V26.24ZM80.648 29.24V179H86.648V29.24H80.648ZM83.648 176H47.808V182H83.648V176ZM50.808 179V29.24H44.808V179H50.808ZM47.808 26.24H0.192V32.24H47.808V26.24ZM3.192 29.24V0.311996H-2.808V29.24H3.192ZM0.192 3.312H131.264V-2.688H0.192V3.312ZM198.374 0.311996H201.374V-2.688H198.374V0.311996ZM198.374 179V182H201.374V179H198.374ZM162.534 179H159.534V182H162.534V179ZM162.534 0.311996V-2.688H159.534V0.311996H162.534ZM195.374 0.311996V179H201.374V0.311996H195.374ZM198.374 176H162.534V182H198.374V176ZM165.534 179V0.311996H159.534V179H165.534ZM162.534 3.312H198.374V-2.688H162.534V3.312ZM433.72 0.311996H436.72V-2.688H433.72V0.311996ZM433.72 179V182H436.72V179H433.72ZM397.88 179H394.88V182H397.88V179ZM397.88 62.776H400.88L395.106 61.6334L397.88 62.776ZM350.008 179V182H352.017L352.782 180.143L350.008 179ZM322.872 179L320.1 180.148L320.867 182H322.872V179ZM274.744 62.776L277.516 61.6282L271.744 62.776H274.744ZM274.744 179V182H277.744V179H274.744ZM238.904 179H235.904V182H238.904V179ZM238.904 0.311996V-2.688H235.904V0.311996H238.904ZM279.608 0.311996L282.366 -0.867836L281.588 -2.688H279.608V0.311996ZM336.44 133.176L333.682 134.356L336.44 140.804L339.198 134.356L336.44 133.176ZM393.272 0.311996V-2.688H391.292L390.514 -0.867836L393.272 0.311996ZM430.72 0.311996V179H436.72V0.311996H430.72ZM433.72 176H397.88V182H433.72V176ZM400.88 179V62.776H394.88V179H400.88ZM395.106 61.6334L347.234 177.857L352.782 180.143L400.654 63.9185L395.106 61.6334ZM350.008 176H322.872V182H350.008V176ZM325.644 177.852L277.516 61.6282L271.972 63.9238L320.1 180.148L325.644 177.852ZM271.744 62.776V179H277.744V62.776H271.744ZM274.744 176H238.904V182H274.744V176ZM241.904 179V0.311996H235.904V179H241.904ZM238.904 3.312H279.608V-2.688H238.904V3.312ZM276.85 1.49183L333.682 134.356L339.198 131.996L282.366 -0.867836L276.85 1.49183ZM339.198 134.356L396.03 1.49183L390.514 -0.867836L333.682 131.996L339.198 134.356ZM393.272 3.312H433.72V-2.688H393.272V3.312ZM510.114 29.24V26.24H507.114V29.24H510.114ZM510.114 74.04H507.114V77.04H510.114V74.04ZM570.274 74.04H573.274V71.04H570.274V74.04ZM570.274 102.456V105.456H573.274V102.456H570.274ZM510.114 102.456V99.456H507.114V102.456H510.114ZM510.114 149.816H507.114V152.816H510.114V149.816ZM577.954 149.816H580.954V146.816H577.954V149.816ZM577.954 179V182H580.954V179H577.954ZM474.274 179H471.274V182H474.274V179ZM474.274 0.0559845V-2.94402H471.274V0.0559845H474.274ZM577.954 0.0559845H580.954V-2.94402H577.954V0.0559845ZM577.954 29.24V32.24H580.954V29.24H577.954ZM507.114 29.24V74.04H513.114V29.24H507.114ZM510.114 77.04H570.274V71.04H510.114V77.04ZM567.274 74.04V102.456H573.274V74.04H567.274ZM570.274 99.456H510.114V105.456H570.274V99.456ZM507.114 102.456V149.816H513.114V102.456H507.114ZM510.114 152.816H577.954V146.816H510.114V152.816ZM574.954 149.816V179H580.954V149.816H574.954ZM577.954 176H474.274V182H577.954V176ZM477.274 179V0.0559845H471.274V179H477.274ZM474.274 3.05598H577.954V-2.94402H474.274V3.05598ZM574.954 0.0559845V29.24H580.954V0.0559845H574.954ZM577.954 26.24H510.114V32.24H577.954V26.24Z" fill="white"/>
</svg>
