<svg width="20" height="17" viewBox="0 0 20 17" fill="none" xmlns="http://www.w3.org/2000/svg">
<path d="M6.2825 16.6952C13.83 16.6952 17.9587 10.4415 17.9587 5.0277C17.9587 4.8527 17.9587 4.6752 17.9513 4.5002C18.7551 3.91831 19.4488 3.19789 20 2.3727C19.2491 2.70377 18.4535 2.92196 17.6388 3.0202C18.4969 2.50725 19.1397 1.70016 19.4475 0.748952C18.6412 1.22661 17.7588 1.56192 16.8387 1.7402C16.2202 1.08148 15.4018 0.645099 14.5101 0.498649C13.6185 0.352199 12.7034 0.503854 11.9067 0.930124C11.1099 1.35639 10.476 2.03349 10.1031 2.85653C9.73012 3.67957 9.63897 4.60262 9.84375 5.4827C8.21218 5.40089 6.61602 4.97704 5.1588 4.23863C3.70159 3.50022 2.41586 2.46376 1.385 1.19645C0.861675 2.10031 0.701967 3.16945 0.938308 4.18678C1.17465 5.20412 1.78932 6.09336 2.6575 6.67395C2.00692 6.65185 1.37065 6.47715 0.8 6.16395V6.2202C0.801122 7.16705 1.12913 8.08448 1.72859 8.8174C2.32805 9.55033 3.16218 10.0538 4.09 10.2427C3.73783 10.3397 3.37404 10.3881 3.00875 10.3865C2.75123 10.3872 2.49423 10.3634 2.24125 10.3152C2.50348 11.1303 3.01409 11.8429 3.70156 12.3533C4.38903 12.8637 5.21892 13.1463 6.075 13.1615C4.62069 14.3037 2.82425 14.9232 0.975 14.9202C0.649151 14.9216 0.323529 14.9028 0 14.864C1.87689 16.0605 4.05662 16.6959 6.2825 16.6952Z" fill="black"/>
</svg>
